<?xml version="1.0" encoding="UTF-8"?>
<svg width="74px" height="74px" viewBox="0 0 74 74" version="1.1" xmlns="http://www.w3.org/2000/svg" xmlns:xlink="http://www.w3.org/1999/xlink">
    <!-- Generator: Sketch 42 (36781) - http://www.bohemiancoding.com/sketch -->
    <title>icon-play_while</title>
    <desc>Created with Sketch.</desc>
    <defs></defs>
    <g id="Desktop---1400px" stroke="none" stroke-width="1" fill="none" fill-rule="evenodd">
        <g id="digitalml---Homepage-Copy" transform="translate(-920.000000, -5028.000000)" fill="#FFFFFF">
            <g id="thumbnail-plan-design-build-run" transform="translate(734.000000, 4940.000000)">
                <path d="M222.992598,88 C202.591397,88 186,104.599907 186,125.004935 C186,145.407496 202.593865,162 222.992598,162 C243.39133,162 260,145.405029 260,125.004935 C260,104.599907 243.393798,88 222.992598,88 L222.992598,88 Z M222.992598,159.344805 C204.057086,159.344805 188.655018,143.946645 188.655018,125.004935 C188.655018,106.063225 204.057086,90.6551954 222.992598,90.6551954 C241.933044,90.6551954 257.344982,106.063225 257.344982,125.004935 C257.344982,143.946645 241.933044,159.344805 222.992598,159.344805 L222.992598,159.344805 Z M239.672824,121.500867 L216.510504,108.641923 C213.354585,106.887422 210.331911,108.748033 210.331911,112.281713 L210.331911,137.720755 C210.331911,140.319194 211.824742,142.068761 214.043014,142.068761 C214.842481,142.068761 215.676492,141.831866 216.515438,141.36548 L239.672824,128.501601 C241.205135,127.652728 242.088496,126.376951 242.088496,125.007403 C242.088496,123.637855 241.205135,122.359611 239.672824,121.500867 L239.672824,121.500867 Z M238.382327,126.177071 L215.229877,139.04095 C214.790664,139.28278 214.385995,139.411098 214.045482,139.411098 C213.130043,139.411098 212.989396,138.354942 212.989396,137.718287 L212.989396,112.281713 C212.989396,111.649993 213.130043,110.593838 214.045482,110.593838 C214.388463,110.593838 214.793131,110.724623 215.229877,110.963986 L238.382327,123.822929 C239.02881,124.183207 239.433478,124.637255 239.433478,125.004935 C239.43101,125.36768 239.026342,125.819261 238.382327,126.177071 L238.382327,126.177071 Z" id="icon-play_while"></path>
            </g>
        </g>
    </g>
</svg>