<?xml version="1.0" encoding="UTF-8"?>
<svg width="114px" height="95px" viewBox="0 0 114 95" version="1.1" xmlns="http://www.w3.org/2000/svg" xmlns:xlink="http://www.w3.org/1999/xlink">
    <!-- Generator: Sketch 42 (36781) - http://www.bohemiancoding.com/sketch -->
    <title>icon-design</title>
    <desc>Created with Sketch.</desc>
    <defs></defs>
    <g id="Desktop---1400px" stroke="none" stroke-width="1" fill="none" fill-rule="evenodd">
        <g id="digitalml---ignite-Platform-Page" transform="translate(-942.000000, -1131.000000)" fill="#FFFFFF">
            <g id="Design-Card" transform="translate(827.000000, 994.000000)">
                <g id="icon-design" transform="translate(115.000000, 137.000000)">
                    <path d="M89.095303,94.6320991 C88.5558459,94.6320991 88.0163888,94.4922877 87.5323065,94.2126651 L73.0955771,85.8490802 C72.1291987,85.2880425 71.5325806,84.2520047 71.5325806,83.1317217 L71.5325806,67.9854953 L63.9015848,63.5635142 C61.9706142,65.4204953 59.3501388,66.5658726 56.4706526,66.5658726 C53.639396,66.5658726 51.0600051,65.4617217 49.1397522,63.6567217 L41.4515954,68.110967 C41.4373052,68.1199292 41.4212286,68.1270991 41.4087247,68.1360613 L41.4087247,83.1317217 C41.4087247,84.2520047 40.8121065,85.2880425 39.8457281,85.8490802 L25.4089988,94.2126651 C24.4426203,94.7737028 23.2493841,94.7737028 22.2830056,94.2126651 L7.8462763,85.8490802 C6.87989785,85.2880425 6.28327974,84.2520047 6.28327974,83.1317217 L6.28327974,68.3332311 L1.56392328,65.601533 C0.0688054284,64.7357783 -0.443857442,62.8160613 0.418916657,61.3157783 C1.28169076,59.8172877 3.19479854,59.3010613 4.68991639,60.166816 L9.30745479,62.8393632 L22.2830056,55.3236085 C23.2493841,54.7625708 24.4426203,54.7625708 25.4089988,55.3236085 L38.2166391,62.7443632 C38.254151,62.7210613 38.2898767,62.6995519 38.3273886,62.6780425 L46.0084002,58.2273821 C45.8261995,57.4422877 45.7315266,56.6249292 45.7315266,55.7878538 C45.7315266,50.935684 48.9450475,46.8220047 53.3482321,45.4758726 L53.3482321,38.4046462 L40.4744993,30.94625 C39.5081208,30.3852123 38.9115027,29.3491745 38.9115027,28.2288915 L38.9115027,11.5017217 C38.9115027,10.3814387 39.5081208,9.34540094 40.4744993,8.78436321 L54.9112286,0.420778302 C55.8776071,-0.140259434 57.0708433,-0.140259434 58.0372217,0.420778302 L71.0556434,7.96341981 L76.0750952,5.05426887 C77.5719993,4.1903066 79.4833208,4.70294811 80.3460949,6.20323113 C81.208869,7.70351415 80.6962061,9.62143868 79.2010883,10.4889858 L74.0369476,13.4805896 L74.0369476,28.230684 C74.0369476,29.350967 73.4403295,30.3870047 72.4739511,30.9480425 L59.6002183,38.4064387 L59.6002183,45.4776651 C64.0034029,46.8237972 67.2169238,50.9374764 67.2169238,55.7896462 C67.2169238,56.5801179 67.1311823,57.3526651 66.9686306,58.096533 L74.8622098,62.6708726 L87.5376653,55.3271934 C88.5040438,54.7661557 89.69728,54.7661557 90.6636584,55.3271934 L105.100388,63.6907783 C106.066766,64.251816 106.663384,65.2878538 106.663384,66.4081368 L106.663384,81.3500236 L111.625675,84.2251179 C113.120793,85.0908726 113.633456,87.0105896 112.770682,88.5108726 C111.909694,90.0129481 109.996586,90.5291745 108.499682,89.6598349 L103.51417,86.7721934 L90.6636584,94.21625 C90.1742172,94.4922877 89.6329739,94.6320991 89.095303,94.6320991 Z M77.7845668,81.3195519 L89.095303,87.8727594 L100.406039,81.3195519 L100.406039,68.2149292 L89.095303,61.6617217 L77.7845668,68.2149292 L77.7845668,81.3195519 Z M12.5316934,81.3195519 L23.8424296,87.8727594 L35.1531659,81.3195519 L35.1531659,68.2149292 L23.8424296,61.6617217 L12.5316934,68.2149292 L12.5316934,81.3195519 Z M52.8266378,58.4191745 C53.6429686,59.5537972 54.9719622,60.2922877 56.4688663,60.2922877 C58.0157864,60.2922877 59.3840782,59.5036085 60.1914776,58.3044575 C60.245066,58.1700236 60.3093722,58.0355896 60.384396,57.9047406 C60.441557,57.8043632 60.5040769,57.7093632 60.5701693,57.6179481 C60.8202488,57.0587028 60.9577925,56.4385142 60.9577925,55.7878538 C60.9577925,53.3035142 58.9428666,51.2834198 56.4670801,51.2834198 C53.9912935,51.2834198 51.9763677,53.3035142 51.9763677,55.7878538 C51.9763677,56.4438915 52.1174839,57.0694575 52.3711359,57.6322877 C52.4640226,57.7505896 52.5497641,57.8778538 52.6283605,58.0122877 C52.7069569,58.1431368 52.7712631,58.2793632 52.8266378,58.4191745 Z M45.1581301,26.4149292 L56.4688663,32.9681368 L67.7796026,26.4149292 L67.7796026,13.3120991 L56.4688663,6.75709906 L45.1581301,13.3103066 L45.1581301,26.4149292 Z" id="Shape"></path>
                </g>
            </g>
        </g>
    </g>
</svg>