<?xml version="1.0" encoding="UTF-8"?>
<svg width="158px" height="157px" viewBox="0 0 158 157" version="1.1" xmlns="http://www.w3.org/2000/svg" xmlns:xlink="http://www.w3.org/1999/xlink">
    <!-- Generator: Sketch 42 (36781) - http://www.bohemiancoding.com/sketch -->
    <title>icon-digital transformation</title>
    <desc>Created with Sketch.</desc>
    <defs>
        <ellipse id="path-1" cx="78.3921653" cy="78.5239852" rx="78.3152308" ry="78.317471"></ellipse>
        <mask id="mask-2" maskContentUnits="userSpaceOnUse" maskUnits="objectBoundingBox" x="0" y="0" width="156.630462" height="156.634942" fill="white">
            <use xlink:href="#path-1"></use>
        </mask>
    </defs>
    <g id="Mobile---320px" stroke="none" stroke-width="1" fill="none" fill-rule="evenodd">
        <g id="digitalml---Mobile-Homepage" transform="translate(-81.000000, -3350.000000)">
            <g id="Group-14" transform="translate(-878.000000, 3035.000000)">
                <g id="Digital-Transformation" transform="translate(909.000000, 315.000000)">
                    <g transform="translate(50.478261, 0.000000)" id="icon-digital-transformation">
                        <g>
                            <use id="Oval-4" stroke="#FFFFFF" mask="url(#mask-2)" stroke-width="3" xlink:href="#path-1"></use>
                            <path d="M38.8544358,46.0716168 L40.0951782,47.3091302 C40.1838027,47.397524 40.3610516,47.4859178 40.5383005,47.4859178 C40.7155494,47.4859178 40.8927984,47.397524 40.9814228,47.3091302 C41.2472962,47.0439487 41.2472962,46.6019796 40.9814228,46.3367982 L39.7406804,45.0992848 C39.474807,44.8341034 39.0316847,44.8341034 38.7658113,45.0992848 C38.5885624,45.3644663 38.5885624,45.8064353 38.8544358,46.0716168 Z" id="Shape" fill="#FFFFFF"></path>
                            <path d="M43.9946545,51.1984579 C44.0832789,51.2868518 44.2605279,51.3752456 44.4377768,51.3752456 C44.6150257,51.3752456 44.7922746,51.2868518 44.8808991,51.1984579 C45.1467725,50.9332765 45.1467725,50.4913074 44.8808991,50.226126 L43.6401566,48.9886126 C43.3742832,48.7234312 42.9311609,48.7234312 42.6652876,48.9886126 C42.3994142,49.253794 42.3994142,49.6957631 42.6652876,49.9609446 L43.9946545,51.1984579 Z" id="Shape" fill="#FFFFFF"></path>
                            <path d="M40.0951782,48.9886126 L38.8544358,50.226126 C38.5885624,50.4913074 38.5885624,50.9332765 38.8544358,51.1984579 C38.9430602,51.2868518 39.1203092,51.3752456 39.2975581,51.3752456 C39.474807,51.3752456 39.6520559,51.2868518 39.7406804,51.1984579 L40.9814228,49.9609446 C41.2472962,49.6957631 41.2472962,49.253794 40.9814228,48.9886126 C40.8041739,48.7234312 40.3610516,48.7234312 40.0951782,48.9886126 Z" id="Shape" fill="#FFFFFF"></path>
                            <path d="M43.2856588,47.4859178 C43.4629077,47.4859178 43.6401566,47.397524 43.7287811,47.3091302 L44.9695235,46.0716168 C45.2353969,45.8064353 45.2353969,45.3644663 44.9695235,45.0992848 C44.7036502,44.8341034 44.2605279,44.8341034 43.9946545,45.0992848 L42.753912,46.3367982 C42.4880386,46.6019796 42.4880386,47.0439487 42.753912,47.3091302 C42.9311609,47.397524 43.1084099,47.4859178 43.2856588,47.4859178 Z" id="Shape" fill="#FFFFFF"></path>
                            <path d="M34.8663351,40.2376251 C37.170571,40.2376251 38.9430602,38.381355 38.9430602,36.1715097 C38.9430602,33.8732705 37.0819466,32.1053942 34.8663351,32.1053942 C32.5620991,32.1053942 30.7896099,33.9616643 30.7896099,36.1715097 C30.7896099,38.4697488 32.6507236,40.2376251 34.8663351,40.2376251 Z M34.8663351,33.4313014 C36.3729509,33.4313014 37.6136933,34.6688148 37.6136933,36.1715097 C37.6136933,37.6742045 36.3729509,38.9117179 34.8663351,38.9117179 C33.3597193,38.9117179 32.1189768,37.6742045 32.1189768,36.1715097 C32.1189768,34.6688148 33.3597193,33.4313014 34.8663351,33.4313014 Z" id="Shape" fill="#FFFFFF"></path>
                            <path d="M32.2076013,104.146352 C30.2578631,104.146352 28.7512473,105.737441 28.7512473,107.593711 C28.7512473,109.449981 30.3464876,111.04107 32.2076013,111.04107 C34.1573394,111.04107 35.6639552,109.449981 35.6639552,107.593711 C35.6639552,105.737441 34.1573394,104.146352 32.2076013,104.146352 Z M32.2076013,109.715162 C31.0554833,109.715162 30.0806142,108.742831 30.0806142,107.593711 C30.0806142,106.444591 31.0554833,105.472259 32.2076013,105.472259 C33.3597193,105.472259 34.3345883,106.444591 34.3345883,107.593711 C34.3345883,108.742831 33.4483437,109.715162 32.2076013,109.715162 Z" id="Shape" fill="#FFFFFF"></path>
                            <path d="M82.9894169,49.6073693 L68.7208789,49.6073693 C68.366381,49.6073693 68.0118832,49.8725507 68.0118832,50.3145198 C68.0118832,50.6680951 68.2777566,51.0216703 68.7208789,51.0216703 L82.9894169,51.0216703 C83.3439148,51.0216703 83.6984126,50.7564889 83.6984126,50.3145198 C83.6097882,49.8725507 83.3439148,49.6073693 82.9894169,49.6073693 Z" id="Shape" fill="#FFFFFF"></path>
                            <path d="M114.273851,98.4007544 L114.273851,73.6504866 C114.273851,71.6174289 112.589987,70.0263402 110.640249,70.0263402 L100.625685,70.0263402 L100.625685,48.811825 C100.625685,46.6903735 98.9418198,45.010891 96.8148327,45.010891 L55.3385854,45.010891 C53.3002228,45.010891 51.5277336,46.6903735 51.5277336,48.811825 L51.5277336,120.764389 C51.5277336,122.797447 53.2115983,124.565323 55.3385854,124.565323 L96.9034572,124.565323 C98.9418198,124.565323 100.714309,122.885841 100.714309,120.764389 L100.714309,102.024901 L110.728873,102.024901 C112.678611,102.024901 114.273851,100.433812 114.273851,98.4007544 Z M52.8571005,48.811825 C52.8571005,47.4859178 53.920594,46.3367982 55.3385854,46.3367982 L96.9034572,46.3367982 C98.2328241,46.3367982 99.3849421,47.397524 99.3849421,48.811825 L99.3849421,54.02706 L52.8571005,54.02706 L52.8571005,48.811825 Z M99.2963176,120.675995 C99.2963176,122.001903 98.2328241,123.151022 96.8148327,123.151022 L55.3385854,123.151022 C54.0092185,123.151022 52.8571005,122.090296 52.8571005,120.675995 L52.8571005,115.991123 L99.2963176,115.991123 L99.2963176,120.675995 Z M99.2963176,114.665216 L52.8571005,114.665216 L52.8571005,55.3529672 L99.2963176,55.3529672 L99.2963176,70.0263402 L63.935158,70.0263402 C61.8967954,70.0263402 60.3015551,71.7058227 60.3015551,73.6504866 L60.3015551,98.4007544 C60.3015551,100.433812 61.9854199,102.024901 63.935158,102.024901 L99.2963176,102.024901 L99.2963176,114.665216 Z M63.935158,100.698994 C62.6944156,100.698994 61.630922,99.6382678 61.630922,98.4007544 L61.630922,73.6504866 C61.630922,72.4129732 62.6944156,71.3522474 63.935158,71.3522474 L100.625685,71.3522474 L110.640249,71.3522474 C111.880991,71.3522474 112.944484,72.4129732 112.944484,73.6504866 L112.944484,98.4007544 C112.944484,99.6382678 111.880991,100.698994 110.640249,100.698994 L63.935158,100.698994 Z" id="Shape" fill="#FFFFFF"></path>
                            <path d="M87.3320155,77.5398144 C82.6349191,77.5398144 78.8240673,81.3407484 78.8240673,86.0256205 C78.8240673,90.7104926 82.6349191,94.5114266 87.3320155,94.5114266 C92.0291119,94.5114266 95.8399637,90.7104926 95.8399637,86.0256205 C95.8399637,81.3407484 92.0291119,77.5398144 87.3320155,77.5398144 Z M87.3320155,93.1855194 C83.3439148,93.1855194 80.1534342,90.0033421 80.1534342,86.0256205 C80.1534342,82.0478989 83.3439148,78.8657216 87.3320155,78.8657216 C91.3201162,78.8657216 94.5105968,82.0478989 94.5105968,86.0256205 C94.5105968,89.9149483 91.2314917,93.1855194 87.3320155,93.1855194 Z" id="Shape" fill="#FFFFFF"></path>
                            <path d="M34.8663351,56.5020868 C31.3213567,56.4136929 27.9536272,57.7396001 25.3835178,60.2146269 C22.8134085,62.6896537 21.3954171,65.9602248 21.3067927,69.5843712 C21.2181682,73.1201237 22.5475351,76.4790886 25.02902,79.0425092 C27.5105049,81.6059298 30.7896099,83.0202308 34.4232128,83.1086246 L34.6890862,83.1086246 C38.1454401,83.1086246 41.4245451,81.7827174 43.90603,79.3960845 C46.4761394,76.9210577 47.8941307,73.6504866 47.9827552,70.0263402 C48.0713796,66.4905877 46.7420127,63.1316228 44.2605279,60.5682022 C41.779043,58.0047816 38.4113135,56.5904806 34.8663351,56.5020868 Z M46.6533883,70.0263402 C46.5647638,73.2085175 45.3240214,76.2139072 43.0197854,78.4237525 C40.7155494,80.6335978 37.7023178,81.8711112 34.5118372,81.7827174 C31.3213567,81.6943236 28.308125,80.4568102 26.0925135,78.1585711 C23.876902,75.8603319 22.6361596,72.8549423 22.724784,69.672765 C22.8134085,66.4905877 24.0541509,63.485198 26.3583869,61.2753527 C28.5739984,59.0655073 31.58723,57.9163878 34.6890862,57.9163878 L34.8663351,57.9163878 C38.0568156,58.0047816 41.0700473,59.242295 43.2856588,61.5405341 C45.5012703,63.8387733 46.6533883,66.8441629 46.6533883,70.0263402 L46.6533883,70.0263402 Z" id="Shape" fill="#FFFFFF"></path>
                            <path d="M129.694507,40.0608374 C126.947149,37.3206292 123.313546,35.8179344 119.502695,35.7295406 L119.41407,35.7295406 C111.437869,35.7295406 104.968283,42.182289 104.879659,50.1377322 C104.879659,54.02706 106.386274,57.6512063 109.045008,60.3914146 C111.792366,63.1316228 115.425969,64.6343176 119.236821,64.7227114 L119.325446,64.7227114 C123.136297,64.7227114 126.7699,63.2200166 129.517259,60.5682022 C132.264617,57.827994 133.771233,54.2038476 133.859857,50.4029136 C133.859857,46.425192 132.353241,42.8010457 129.694507,40.0608374 Z M128.631014,59.5958702 C126.149529,62.070897 122.870424,63.3968042 119.41407,63.3968042 L119.325446,63.3968042 C115.780467,63.3968042 112.501362,61.9825032 110.019877,59.5074764 C107.538392,57.0324496 106.209025,53.6734847 106.209025,50.226126 C106.209025,42.9778333 112.146864,37.1438416 119.325446,37.1438416 L119.41407,37.1438416 C122.959048,37.1438416 126.238153,38.5581426 128.719638,41.0331694 C131.201123,43.5081962 132.53049,46.8671611 132.53049,50.3145198 C132.53049,53.8502724 131.112499,57.1208435 128.631014,59.5958702 Z" id="Shape" fill="#FFFFFF"></path>
                            <path d="M126.947149,42.624258 L124.199791,43.7733776 C124.022542,43.8617714 123.845293,44.0385591 123.845293,44.2153467 L121.452433,52.3475775 L113.919354,52.3475775 L113.298982,50.3145198 L118.261952,50.3145198 C118.61645,50.3145198 118.970948,50.0493384 118.970948,49.6073693 C118.970948,49.253794 118.705074,48.9002188 118.261952,48.9002188 L118.261952,48.9002188 L112.944484,48.9002188 L112.944484,48.9002188 L112.324113,46.8671611 L121.186559,46.8671611 C121.541057,46.8671611 121.895555,46.6019796 121.895555,46.1600106 C121.895555,45.8064353 121.629682,45.4528601 121.186559,45.4528601 L121.186559,45.4528601 L111.437869,45.4528601 C111.26062,45.4528601 110.994746,45.5412539 110.906122,45.7180415 C110.817497,45.8948291 110.728873,46.0716168 110.817497,46.3367982 L112.767236,53.054728 C112.85586,53.3199095 113.121733,53.4966971 113.387607,53.4966971 L113.387607,53.4966971 L121.895555,53.4966971 C122.161428,53.4966971 122.427302,53.3199095 122.515926,53.054728 L124.908787,44.7457096 L127.301647,43.6849838 C127.656145,43.5081962 127.833394,43.1546209 127.656145,42.8010457 C127.744769,42.7126518 127.301647,42.5358642 126.947149,42.624258 Z" id="Shape" fill="#FFFFFF"></path>
                            <path d="M120.920686,54.2922414 C119.945817,54.2922414 118.970948,55.1761796 118.970948,56.1485115 C118.970948,57.2092373 119.857192,58.0931754 120.832061,58.0931754 L120.832061,58.0931754 C121.363808,58.0931754 121.80693,57.9163878 122.161428,57.5628125 C122.515926,57.2092373 122.693175,56.7672682 122.693175,56.2369053 L122.693175,56.2369053 C122.7818,55.1761796 121.984179,54.2922414 120.920686,54.2922414 Z M121.275184,56.5904806 C121.186559,56.6788744 121.00931,56.7672682 120.832061,56.7672682 C120.477564,56.7672682 120.300315,56.5020868 120.300315,56.1485115 C120.300315,55.7949362 120.566188,55.6181486 120.832061,55.6181486 L120.832061,55.6181486 C121.186559,55.6181486 121.363808,55.8833301 121.363808,56.2369053 C121.452433,56.3252991 121.363808,56.5020868 121.275184,56.5904806 Z" id="Shape" fill="#FFFFFF"></path>
                            <path d="M114.894223,54.2038476 L114.894223,54.2038476 C113.830729,54.2038476 112.944484,55.0877857 112.944484,56.0601177 C112.944484,56.5904806 113.121733,57.0324496 113.476231,57.3860249 C113.830729,57.7396001 114.273851,57.9163878 114.805598,57.9163878 L114.805598,57.9163878 C115.337345,57.9163878 115.780467,57.7396001 116.134965,57.3860249 C116.489463,57.0324496 116.666712,56.5904806 116.666712,56.0601177 C116.666712,55.5297548 116.489463,55.0877857 116.134965,54.7342105 C115.869092,54.469029 115.425969,54.2038476 114.894223,54.2038476 Z M115.24872,56.5904806 C115.160096,56.6788744 114.982847,56.7672682 114.805598,56.7672682 C114.628349,56.7672682 114.539725,56.6788744 114.362476,56.5904806 C114.273851,56.5020868 114.185227,56.3252991 114.185227,56.1485115 C114.185227,55.7949362 114.4511,55.6181486 114.716974,55.6181486 C114.894223,55.6181486 114.982847,55.7065424 115.160096,55.7949362 C115.24872,55.8833301 115.337345,56.0601177 115.337345,56.2369053 C115.425969,56.3252991 115.425969,56.4136929 115.24872,56.5904806 Z" id="Shape" fill="#FFFFFF"></path>
                            <path d="M97.9669507,35.3759653 C98.0555752,35.4643591 98.2328241,35.552753 98.410073,35.552753 C98.5873219,35.552753 98.7645708,35.4643591 98.8531953,35.3759653 C99.1190687,35.1107839 99.1190687,34.6688148 98.8531953,34.4036334 L97.7010773,33.2545138 C97.4352039,32.9893324 96.9920816,32.9893324 96.7262083,33.2545138 C96.4603349,33.5196952 96.4603349,33.9616643 96.7262083,34.2268458 L97.9669507,35.3759653 Z" id="Shape" fill="#FFFFFF"></path>
                            <path d="M101.689178,39.0001117 C101.777802,39.0885055 101.955051,39.1768993 102.1323,39.1768993 C102.309549,39.1768993 102.486798,39.0885055 102.575423,39.0001117 C102.841296,38.7349302 102.841296,38.2929612 102.575423,38.0277797 L101.511929,36.967054 C101.246056,36.7018725 100.802933,36.7018725 100.53706,36.967054 C100.271187,37.2322354 100.271187,37.6742045 100.53706,37.9393859 L101.689178,39.0001117 Z" id="Shape" fill="#FFFFFF"></path>
                            <path d="M97.3465795,39.2652931 C97.5238284,39.2652931 97.7010773,39.1768993 97.7897018,39.0885055 L98.9418198,37.9393859 C99.2076931,37.6742045 99.2076931,37.2322354 98.9418198,36.967054 C98.6759464,36.7018725 98.2328241,36.7018725 97.9669507,36.967054 L96.8148327,38.1161735 C96.5489593,38.381355 96.5489593,38.8233241 96.8148327,39.0885055 C96.9920816,39.1768993 97.1693306,39.2652931 97.3465795,39.2652931 Z" id="Shape" fill="#FFFFFF"></path>
                            <path d="M100.980182,35.552753 C101.157431,35.552753 101.33468,35.4643591 101.423305,35.3759653 L102.575423,34.2268458 C102.841296,33.9616643 102.841296,33.5196952 102.575423,33.2545138 C102.309549,32.9893324 101.866427,32.9893324 101.600554,33.2545138 L100.53706,34.4036334 C100.271187,34.6688148 100.271187,35.1107839 100.53706,35.3759653 C100.625685,35.4643591 100.802933,35.552753 100.980182,35.552753 Z" id="Shape" fill="#FFFFFF"></path>
                            <path d="M104.436536,116.698274 C104.170663,116.433092 103.727541,116.433092 103.461667,116.698274 C103.195794,116.963455 103.195794,117.405424 103.461667,117.670606 L104.613785,118.819725 C104.70241,118.908119 104.879659,118.996513 105.056908,118.996513 C105.234156,118.996513 105.411405,118.908119 105.50003,118.819725 C105.765903,118.554544 105.765903,118.112575 105.50003,117.847393 L104.436536,116.698274 Z" id="Shape" fill="#FFFFFF"></path>
                            <path d="M108.158764,120.410814 C107.89289,120.145632 107.449768,120.145632 107.183895,120.410814 C106.918021,120.675995 106.918021,121.117964 107.183895,121.383146 L108.336013,122.532265 C108.424637,122.620659 108.601886,122.709053 108.779135,122.709053 C108.956384,122.709053 109.133633,122.620659 109.222257,122.532265 C109.488131,122.267084 109.488131,121.825115 109.222257,121.559934 L108.158764,120.410814 Z" id="Shape" fill="#FFFFFF"></path>
                            <path d="M104.70241,120.410814 L103.550292,121.559934 C103.284418,121.825115 103.284418,122.267084 103.550292,122.532265 C103.638916,122.620659 103.816165,122.709053 103.993414,122.709053 C104.170663,122.709053 104.347912,122.620659 104.436536,122.532265 L105.588654,121.383146 C105.854528,121.117964 105.854528,120.675995 105.588654,120.410814 C105.322781,120.145632 104.968283,120.145632 104.70241,120.410814 Z" id="Shape" fill="#FFFFFF"></path>
                            <path d="M108.336013,116.698274 L107.183895,117.847393 C106.918021,118.112575 106.918021,118.554544 107.183895,118.819725 C107.272519,118.908119 107.449768,118.996513 107.627017,118.996513 C107.804266,118.996513 107.981515,118.908119 108.070139,118.819725 L109.222257,117.670606 C109.488131,117.405424 109.488131,116.963455 109.222257,116.698274 C109.045008,116.433092 108.601886,116.433092 108.336013,116.698274 Z" id="Shape" fill="#FFFFFF"></path>
                            <path d="M41.2472962,120.941177 C40.9814228,120.675995 40.5383005,120.675995 40.2724271,120.941177 C40.0065538,121.206358 40.0065538,121.648327 40.2724271,121.913509 L41.4245451,123.062628 C41.5131696,123.151022 41.6904185,123.239416 41.8676674,123.239416 C42.0449163,123.239416 42.2221653,123.151022 42.3107897,123.062628 C42.5766631,122.797447 42.5766631,122.355478 42.3107897,122.090296 L41.2472962,120.941177 Z" id="Shape" fill="#FFFFFF"></path>
                            <path d="M44.9695235,124.653717 C44.7036502,124.388536 44.2605279,124.388536 43.9946545,124.653717 C43.7287811,124.918898 43.7287811,125.360867 43.9946545,125.626049 L45.1467725,126.775169 C45.2353969,126.863562 45.4126458,126.951956 45.5898948,126.951956 C45.7671437,126.951956 45.9443926,126.863562 46.0330171,126.775169 C46.2988904,126.509987 46.2988904,126.068018 46.0330171,125.802837 L44.9695235,124.653717 Z" id="Shape" fill="#FFFFFF"></path>
                            <path d="M41.4245451,124.653717 L40.2724271,125.802837 C40.0065538,126.068018 40.0065538,126.509987 40.2724271,126.775169 C40.3610516,126.863562 40.5383005,126.951956 40.7155494,126.951956 C40.8927984,126.951956 41.0700473,126.863562 41.1586717,126.775169 L42.3107897,125.626049 C42.5766631,125.360867 42.5766631,124.918898 42.3107897,124.653717 C42.1335408,124.388536 41.6904185,124.388536 41.4245451,124.653717 Z" id="Shape" fill="#FFFFFF"></path>
                            <path d="M45.1467725,120.941177 L43.9946545,122.090296 C43.7287811,122.355478 43.7287811,122.797447 43.9946545,123.062628 C44.0832789,123.151022 44.2605279,123.239416 44.4377768,123.239416 C44.6150257,123.239416 44.7922746,123.151022 44.8808991,123.062628 L46.0330171,121.913509 C46.2988904,121.648327 46.2988904,121.206358 46.0330171,120.941177 C45.8557681,120.675995 45.4126458,120.675995 45.1467725,120.941177 Z" id="Shape" fill="#FFFFFF"></path>
                            <path d="M54.8954631,41.1215632 C56.3134544,41.1215632 57.4655724,39.9724436 57.4655724,38.5581426 C57.4655724,37.1438416 56.3134544,35.994722 54.8954631,35.994722 C53.4774717,35.994722 52.3253537,37.1438416 52.3253537,38.5581426 C52.3253537,39.9724436 53.4774717,41.1215632 54.8954631,41.1215632 Z M54.8954631,37.3206292 C55.6044587,37.3206292 56.1362055,37.8509921 56.1362055,38.5581426 C56.1362055,39.2652931 55.6044587,39.795656 54.8954631,39.795656 C54.1864674,39.795656 53.6547206,39.2652931 53.6547206,38.5581426 C53.6547206,37.8509921 54.1864674,37.3206292 54.8954631,37.3206292 Z" id="Shape" fill="#FFFFFF"></path>
                            <path d="M122.161428,121.383146 C120.743437,121.383146 119.591319,122.532265 119.591319,123.946566 C119.591319,125.360867 120.743437,126.509987 122.161428,126.509987 C123.57942,126.509987 124.731538,125.360867 124.731538,123.946566 C124.731538,122.532265 123.57942,121.383146 122.161428,121.383146 Z M122.161428,125.18408 C121.452433,125.18408 120.920686,124.653717 120.920686,123.946566 C120.920686,123.239416 121.452433,122.709053 122.161428,122.709053 C122.870424,122.709053 123.402171,123.239416 123.402171,123.946566 C123.402171,124.565323 122.7818,125.18408 122.161428,125.18408 Z" id="Shape" fill="#FFFFFF"></path>
                            <path d="M122.959048,72.1477917 C122.959048,70.5567031 121.718306,69.3191897 120.123066,69.3191897 C118.527825,69.3191897 117.287083,70.5567031 117.287083,72.1477917 C117.287083,73.7388804 118.527825,74.9763938 120.123066,74.9763938 C121.718306,74.9763938 122.959048,73.6504866 122.959048,72.1477917 Z M118.61645,72.1477917 C118.61645,71.3522474 119.325446,70.6450969 120.123066,70.6450969 C120.920686,70.6450969 121.629682,71.3522474 121.629682,72.1477917 C121.629682,72.9433361 120.920686,73.6504866 120.123066,73.6504866 C119.325446,73.5620928 118.61645,72.9433361 118.61645,72.1477917 Z" id="Shape" fill="#FFFFFF"></path>
                            <path d="M45.5898948,94.2462451 C45.2353969,94.2462451 44.8808991,94.5114266 44.8808991,94.9533956 L44.8808991,102.732051 C44.8808991,103.085626 45.1467725,103.439202 45.5898948,103.439202 C45.9443926,103.439202 46.2988904,103.17402 46.2988904,102.732051 L46.2988904,94.9533956 C46.2988904,94.5114266 45.9443926,94.2462451 45.5898948,94.2462451 Z" id="Shape" fill="#FFFFFF"></path>
                            <path d="M45.5898948,104.588321 C45.2353969,104.588321 44.8808991,104.853503 44.8808991,105.295472 L44.8808991,107.858892 C44.8808991,108.212468 45.1467725,108.566043 45.5898948,108.566043 C45.9443926,108.566043 46.2988904,108.300861 46.2988904,107.858892 L46.2988904,105.295472 C46.2988904,104.941897 45.9443926,104.588321 45.5898948,104.588321 Z" id="Shape" fill="#FFFFFF"></path>
                            <path d="M123.313546,96.5444843 C123.313546,96.8980595 123.57942,97.2516348 124.022542,97.2516348 C124.37704,97.2516348 124.731538,96.9864533 124.731538,96.5444843 L124.731538,88.7658287 C124.731538,88.4122534 124.465664,88.0586782 124.022542,88.0586782 C123.668044,88.0586782 123.313546,88.3238596 123.313546,88.7658287 L123.313546,96.5444843 Z" id="Shape" fill="#FFFFFF"></path>
                            <path d="M124.022542,86.8211648 C124.37704,86.8211648 124.731538,86.5559834 124.731538,86.1140143 L124.731538,83.5505937 C124.731538,83.1970184 124.465664,82.8434432 124.022542,82.8434432 C123.668044,82.8434432 123.313546,83.1086246 123.313546,83.5505937 L123.313546,86.1140143 C123.313546,86.5559834 123.668044,86.8211648 124.022542,86.8211648 Z" id="Shape" fill="#FFFFFF"></path>
                            <path d="M76.5198313,37.8509921 L84.3187838,37.8509921 C84.6732817,37.8509921 85.0277795,37.5858107 85.0277795,37.1438416 C85.0277795,36.7902663 84.7619061,36.4366911 84.3187838,36.4366911 L76.5198313,36.4366911 C76.1653335,36.4366911 75.8108357,36.7018725 75.8108357,37.1438416 C75.8108357,37.5858107 76.1653335,37.8509921 76.5198313,37.8509921 Z" id="Shape" fill="#FFFFFF"></path>
                            <path d="M86.8888932,37.8509921 L89.4590025,37.8509921 C89.8135004,37.8509921 90.1679982,37.5858107 90.1679982,37.1438416 C90.1679982,36.7902663 89.9021248,36.4366911 89.4590025,36.4366911 L86.8888932,36.4366911 C86.5343953,36.4366911 86.1798975,36.7018725 86.1798975,37.1438416 C86.268522,37.5858107 86.5343953,37.8509921 86.8888932,37.8509921 Z" id="Shape" fill="#FFFFFF"></path>
                            <path d="M89.4590025,39.2652931 L83.964286,39.2652931 C83.6097882,39.2652931 83.2552903,39.5304746 83.2552903,39.9724436 C83.2552903,40.3260189 83.5211637,40.6795941 83.964286,40.6795941 L89.4590025,40.6795941 C89.8135004,40.6795941 90.1679982,40.4144127 90.1679982,39.9724436 C90.0793737,39.5304746 89.8135004,39.2652931 89.4590025,39.2652931 Z" id="Shape" fill="#FFFFFF"></path>
                            <path d="M79.8875608,39.2652931 C79.533063,39.2652931 79.1785651,39.5304746 79.1785651,39.9724436 C79.1785651,40.3260189 79.4444385,40.6795941 79.8875608,40.6795941 L81.66005,40.6795941 C82.0145479,40.6795941 82.3690457,40.4144127 82.3690457,39.9724436 C82.3690457,39.6188684 82.1031723,39.2652931 81.66005,39.2652931 L79.8875608,39.2652931 Z" id="Shape" fill="#FFFFFF"></path>
                            <path d="M114.894223,108.212468 C114.894223,107.858892 114.628349,107.505317 114.185227,107.505317 L106.386274,107.505317 C106.031777,107.505317 105.677279,107.770499 105.677279,108.212468 C105.677279,108.654437 105.943152,108.919618 106.386274,108.919618 L114.185227,108.919618 C114.628349,108.831224 114.894223,108.566043 114.894223,108.212468 Z" id="Shape" fill="#FFFFFF"></path>
                            <path d="M116.134965,108.212468 C116.134965,108.566043 116.400838,108.919618 116.843961,108.919618 L119.41407,108.919618 C119.768568,108.919618 120.123066,108.654437 120.123066,108.212468 C120.123066,107.770499 119.857192,107.505317 119.41407,107.505317 L116.843961,107.505317 C116.489463,107.505317 116.134965,107.858892 116.134965,108.212468 Z" id="Shape" fill="#FFFFFF"></path>
                            <path d="M120.034441,110.864282 C120.034441,110.510707 119.768568,110.157132 119.325446,110.157132 L113.919354,110.157132 C113.564856,110.157132 113.210358,110.422313 113.210358,110.864282 C113.210358,111.217857 113.476231,111.571433 113.919354,111.571433 L119.41407,111.571433 C119.768568,111.571433 120.034441,111.217857 120.034441,110.864282 Z" id="Shape" fill="#FFFFFF"></path>
                            <path d="M111.526493,110.245525 L109.754004,110.245525 C109.399506,110.245525 109.045008,110.510707 109.045008,110.952676 C109.045008,111.306251 109.310882,111.659826 109.754004,111.659826 L111.526493,111.659826 C111.880991,111.659826 112.235489,111.394645 112.235489,110.952676 C112.235489,110.510707 111.880991,110.245525 111.526493,110.245525 Z" id="Shape" fill="#FFFFFF"></path>
                            <path d="M87.5978889,85.4068638 L87.5978889,82.6666556 C88.2182601,82.7550494 88.5727579,83.1086246 88.6613824,83.8157751 L89.7248759,83.8157751 C89.6362514,82.5782617 88.9272558,81.959505 87.5978889,81.8711112 L87.5978889,81.0755669 L86.9775176,81.0755669 L86.9775176,81.8711112 C86.268522,81.959505 85.7367752,82.1362927 85.3822774,82.5782617 C85.0277795,82.931837 84.7619061,83.4621999 84.7619061,84.0809566 C84.7619061,85.2300761 85.4709018,85.9372267 86.9775176,86.2024081 L86.9775176,89.2077978 C86.1798975,89.0310101 85.7367752,88.5890411 85.6481507,87.7051029 L84.6732817,87.7051029 C84.7619061,89.1194039 85.5595263,89.9149483 87.0661421,90.0917359 L87.0661421,90.8872802 L87.6865133,90.8872802 L87.6865133,90.0917359 C88.395509,90.0917359 88.9272558,89.8265545 89.3703781,89.2961916 C89.8135004,88.8542225 89.9907493,88.3238596 89.9907493,87.6167091 C89.9907493,86.9979524 89.8135004,86.5559834 89.547627,86.2024081 C89.1045047,85.9372267 88.4841335,85.6720452 87.5978889,85.4068638 Z M87.0661421,85.31847 C86.7116443,85.2300761 86.4457709,85.1416823 86.268522,84.8765009 C86.091273,84.6997133 85.9140241,84.4345318 85.9140241,83.9925628 C85.9140241,83.2854123 86.268522,82.8434432 87.0661421,82.6666556 L87.0661421,85.31847 L87.0661421,85.31847 Z M87.5978889,89.2961916 L87.5978889,86.3791957 C88.1296356,86.4675895 88.395509,86.6443772 88.5727579,86.9095586 C88.7500068,87.17474 88.8386313,87.4399215 88.8386313,87.7934967 C88.8386313,88.6774349 88.4841335,89.2077978 87.5978889,89.2961916 Z" id="Shape" fill="#FFFFFF"></path>
                            <path d="M39.0316847,65.4298619 L37.170571,65.4298619 L37.170571,63.1316228 C37.170571,61.7173218 36.0184531,60.5682022 34.6004617,60.5682022 C33.1824703,60.5682022 32.0303523,61.7173218 32.0303523,63.1316228 L32.0303523,65.4298619 L30.1692387,65.4298619 C29.8147408,65.4298619 29.5488675,65.6950434 29.5488675,65.9602248 L28.1308761,76.302301 C28.1308761,76.4790886 28.1308761,76.6558762 28.308125,76.8326639 C28.3967495,77.0094515 28.6626229,77.0978453 28.8398718,77.0978453 L40.5383005,77.0978453 C40.7155494,77.0978453 40.8927984,77.0094515 41.0700473,76.8326639 C41.1586717,76.6558762 41.2472962,76.4790886 41.2472962,76.302301 L39.8293048,65.9602248 C39.6520559,65.6066495 39.3861825,65.4298619 39.0316847,65.4298619 Z M33.4483437,63.1316228 C33.4483437,62.5128661 33.9800905,61.9825032 34.6004617,61.9825032 C35.2208329,61.9825032 35.7525797,62.5128661 35.7525797,63.1316228 L35.7525797,65.4298619 L33.3597193,65.4298619 L33.3597193,63.1316228 L33.4483437,63.1316228 Z M29.5488675,75.6835443 L30.7896099,66.6673753 L32.1189768,66.6673753 L32.1189768,68.1700701 C32.1189768,68.5236454 32.3848502,68.8772206 32.8279725,68.8772206 C33.2710948,68.8772206 33.5369682,68.6120392 33.5369682,68.1700701 L33.5369682,66.6673753 L35.9298286,66.6673753 L35.9298286,68.1700701 C35.9298286,68.5236454 36.195702,68.8772206 36.6388243,68.8772206 C37.0819466,68.8772206 37.34782,68.6120392 37.34782,68.1700701 L37.34782,66.6673753 L38.6771869,66.6673753 L39.9179293,75.6835443 L29.5488675,75.6835443 Z" id="Shape" fill="#FFFFFF"></path>
                            <path d="M68.5436299,121.294752 L83.0780414,121.294752 C84.0529105,121.294752 84.8505306,120.499208 84.8505306,119.526876 C84.8505306,118.554544 84.0529105,117.759 83.0780414,117.759 L68.5436299,117.759 C67.5687609,117.759 66.7711407,118.554544 66.7711407,119.526876 C66.7711407,120.499208 67.5687609,121.294752 68.5436299,121.294752 Z M68.5436299,119.084907 L83.0780414,119.084907 C83.3439148,119.084907 83.5211637,119.261694 83.5211637,119.526876 C83.5211637,119.792057 83.3439148,119.968845 83.0780414,119.968845 L68.5436299,119.968845 C68.2777566,119.968845 68.1005076,119.792057 68.1005076,119.526876 C68.1005076,119.261694 68.2777566,119.084907 68.5436299,119.084907 Z" id="Shape" fill="#FFFFFF"></path>
                        </g>
                    </g>
                </g>
            </g>
        </g>
    </g>
</svg>