<?xml version="1.0" encoding="UTF-8"?>
<svg width="46px" height="45px" viewBox="0 0 46 45" version="1.1" xmlns="http://www.w3.org/2000/svg" xmlns:xlink="http://www.w3.org/1999/xlink">
    <!-- Generator: Sketch 42 (36781) - http://www.bohemiancoding.com/sketch -->
    <title>icon_platforms</title>
    <desc>Created with Sketch.</desc>
    <defs></defs>
    <g id="Desktop---1400px" stroke="none" stroke-width="1" fill="none" fill-rule="evenodd">
        <g id="digitalml---ignite-Fast-Track" transform="translate(-1080.000000, -1837.000000)" fill="#00849D">
            <g id="How-We-Do-It" transform="translate(0.000000, 1660.000000)">
                <g id="icon_platforms" transform="translate(1080.000000, 177.000000)">
                    <path d="M7.94291424,40.3693269 L14.4924557,40.3693269 C15.1012004,40.3693269 15.6849855,40.60875 16.1154189,41.0349038 C16.5458523,41.4610577 16.7876797,42.0390385 16.7876797,42.6417308 L16.7876797,42.6426923 C16.7876797,43.2453846 16.5458523,43.8233654 16.1154189,44.2495192 C15.6849855,44.6756731 15.1012004,44.9150962 14.4924557,44.9150962 L2.29201903,44.9150962 C1.70133853,44.9150962 1.13484078,44.6827885 0.717130021,44.2692308 L0.717130021,44.2692308 C0.299419265,43.8556731 0.0647786734,43.2948077 0.0647786734,42.7099038 L0.0647786734,30.6308654 C0.0647786734,30.0281731 0.306606105,29.4501923 0.737039508,29.0240385 C1.16747291,28.5978846 1.75125793,28.3584615 2.36000264,28.3584615 L2.36097384,28.3584615 C2.96971855,28.3584615 3.55350357,28.5978846 3.98393697,29.0240385 C4.41437038,29.4501923 4.65619781,30.0281731 4.65619781,30.6308654 L4.65619781,37.1152885 C4.65619781,37.1152885 10.2687308,31.5585577 13.1350172,28.7207692 C14.0423071,27.8224038 15.5133754,27.8224038 16.4206653,28.7207692 C16.4210538,28.7210577 16.4213451,28.7214423 16.4217336,28.7218269 C17.3290235,29.6200962 17.3290235,31.0765385 16.4217336,31.9748077 C13.5554473,34.8125962 7.94291424,40.3693269 7.94291424,40.3693269 L7.94291424,40.3693269 Z" id="Shape"></path>
                    <path d="M7.94291424,4.58798077 L14.4924557,4.58798077 C15.1012004,4.58798077 15.6849855,4.34855769 16.1154189,3.92240385 C16.5458523,3.49625 16.7876797,2.91826923 16.7876797,2.31557692 L16.7876797,2.31461538 C16.7876797,1.71192308 16.5458523,1.13394231 16.1154189,0.707692308 C15.6849855,0.281538462 15.1012004,0.0421153846 14.4924557,0.0421153846 L2.29201903,0.0421153846 C1.70133853,0.0421153846 1.13484078,0.274519231 0.717130021,0.687980769 L0.717130021,0.688076923 C0.299419265,1.10163462 0.0647786734,1.6625 0.0647786734,2.24730769 L0.0647786734,14.3264423 C0.0647786734,14.9291346 0.306606105,15.5071154 0.737039508,15.9332692 C1.16747291,16.3594231 1.75125793,16.5988462 2.36000264,16.5988462 L2.36097384,16.5988462 C2.96971855,16.5988462 3.55350357,16.3594231 3.98393697,15.9332692 C4.41437038,15.5071154 4.65619781,14.9291346 4.65619781,14.3264423 L4.65619781,7.84201923 C4.65619781,7.84201923 10.2687308,13.39875 13.1350172,16.2365385 C14.0423071,17.1348077 15.5133754,17.1348077 16.4206653,16.2365385 C16.4210538,16.2361538 16.4213451,16.2358654 16.4217336,16.2354808 C17.3290235,15.3372115 17.3290235,13.8807692 16.4217336,12.9825 L7.94291424,4.58798077 L7.94291424,4.58798077 Z" id="Shape"></path>
                    <path d="M38.0484871,40.3693269 L31.4990427,40.3693269 C30.890298,40.3693269 30.3065129,40.60875 29.8759824,41.0349038 C29.445549,41.4610577 29.2037216,42.0390385 29.2037216,42.6417308 L29.2037216,42.6426923 C29.2037216,43.2453846 29.445549,43.8233654 29.8759824,44.2495192 C30.3065129,44.6756731 30.890298,44.9150962 31.4990427,44.9150962 L43.6993823,44.9150962 C44.2901599,44.9150962 44.8566576,44.6827885 45.2743684,44.2692308 L45.2743684,44.2692308 C45.6920791,43.8556731 45.9267197,43.2948077 45.9267197,42.7099038 L45.9267197,30.6308654 C45.9267197,30.0281731 45.6848923,29.4501923 45.2544589,29.0240385 C44.8240255,28.5978846 44.2402405,28.3584615 43.6314958,28.3584615 L43.6305246,28.3584615 C43.0217799,28.3584615 42.4379948,28.5978846 42.0074643,29.0240385 C41.5770309,29.4501923 41.3352035,30.0281731 41.3352035,30.6308654 L41.3352035,37.1152885 C41.3352035,37.1152885 35.7227676,31.5585577 32.8564812,28.7207692 C31.9490942,27.8224038 30.478123,27.8224038 29.5708331,28.7207692 C29.5704446,28.7210577 29.5700562,28.7214423 29.5696677,28.7218269 C28.6623778,29.6200962 28.6623778,31.0765385 29.5696677,31.9748077 C32.435954,34.8125962 38.0484871,40.3693269 38.0484871,40.3693269 L38.0484871,40.3693269 Z" id="Shape"></path>
                    <path d="M38.0484871,4.58798077 L31.4990427,4.58798077 C30.890298,4.58798077 30.3065129,4.34855769 29.8759824,3.92240385 C29.445549,3.49625 29.2037216,2.91826923 29.2037216,2.31557692 L29.2037216,2.31461538 C29.2037216,1.71192308 29.445549,1.13394231 29.8759824,0.707692308 C30.3065129,0.281538462 30.890298,0.0421153846 31.4990427,0.0421153846 L43.6993823,0.0421153846 C44.2901599,0.0421153846 44.8566576,0.274519231 45.2743684,0.687980769 L45.2743684,0.688076923 C45.6920791,1.10163462 45.9267197,1.6625 45.9267197,2.24730769 L45.9267197,14.3264423 C45.9267197,14.9291346 45.6848923,15.5071154 45.2544589,15.9332692 C44.8240255,16.3594231 44.2402405,16.5988462 43.6314958,16.5988462 L43.6305246,16.5988462 C43.0217799,16.5988462 42.4379948,16.3594231 42.0074643,15.9332692 C41.5770309,15.5071154 41.3352035,14.9291346 41.3352035,14.3264423 L41.3352035,7.84201923 C41.3352035,7.84201923 35.7227676,13.39875 32.8564812,16.2365385 C31.9490942,17.1348077 30.478123,17.1348077 29.5708331,16.2365385 C29.5704446,16.2361538 29.5700562,16.2358654 29.5696677,16.2354808 C28.6623778,15.3372115 28.6623778,13.8807692 29.5696677,12.9825 C32.435954,10.1447115 38.0484871,4.58798077 38.0484871,4.58798077 L38.0484871,4.58798077 Z" id="Shape"></path>
                </g>
            </g>
        </g>
    </g>
</svg>