<?xml version="1.0" encoding="UTF-8"?>
<svg width="54px" height="52px" viewBox="0 0 54 52" version="1.1" xmlns="http://www.w3.org/2000/svg" xmlns:xlink="http://www.w3.org/1999/xlink">
    <!-- Generator: Sketch 42 (36781) - http://www.bohemiancoding.com/sketch -->
    <title>icon-processes</title>
    <desc>Created with Sketch.</desc>
    <defs></defs>
    <g id="Desktop---1400px" stroke="none" stroke-width="1" fill="none" fill-rule="evenodd">
        <g id="digitalml---ignite-Fast-Track" transform="translate(-600.000000, -1837.000000)" fill="#00849D">
            <g id="How-We-Do-It" transform="translate(0.000000, 1660.000000)">
                <g id="icon-processes" transform="translate(600.000000, 177.000000)">
                    <path d="M19.9671598,33.7171317 C18.910137,34.9576376 17.2611815,35.5778905 15.6605471,35.340735 L13.4196589,41.5250216 C15.1048551,42.8141747 15.751149,45.1492446 14.9538519,47.1255407 C21.4288712,50.7801682 29.4501639,50.865301 36.003705,47.3505344 C35.5748557,46.1647567 35.635257,44.8208754 36.1728286,43.6776641 L19.9671598,33.7171317 Z M17.0799776,25.8970801 L23.2650708,8.8462054 C22.2563691,8.2441952 21.4892725,7.27124943 21.1449851,6.14628088 C16.6813291,7.0888221 12.5680005,9.46037742 9.48149408,12.841364 C12.1029105,14.9392783 12.453238,18.861466 10.2425505,21.3972059 L14.3015178,26.310582 C15.1592163,25.8970801 16.1377174,25.7511382 17.0799776,25.8970801 Z M26.3817779,25.836271 C26.2126542,23.1545892 27.4629611,20.7222247 29.8910934,19.5121234 L26.2790956,9.47253924 C25.8683668,9.52726744 25.4515978,9.52726744 25.040869,9.47253924 L18.8436956,26.5477376 C19.5020698,26.9551586 20.0517216,27.5267642 20.4443301,28.1956645 L26.3817779,25.836271 Z M34.1977061,31.4793564 C31.171601,32.2029849 28.0307333,30.5915434 26.8408277,27.6970298 L21.0664634,29.9895332 C21.1570654,30.6827571 21.0966641,31.3942237 20.8852595,32.057043 L37.2962928,42.1513554 C37.4774967,41.9871708 37.6707808,41.8412289 37.8761453,41.7074489 L34.1977061,31.4793564 Z M39.0056496,26.2011256 C38.7278036,28.0983699 37.5801789,29.7949441 35.9433037,30.7678899 L39.627783,41.014225 C40.7331268,40.8196359 41.8928317,41.0263868 42.8592525,41.6040734 C45.4987893,38.277815 47.1417047,34.1975237 47.5524335,29.9591287 C45.6437525,29.6307595 44.0853989,28.1105317 43.7048707,26.2011256 L39.0056496,26.2011256 Z M39.0056496,24.3038814 L43.6988306,24.3038814 C44.1397601,22.0843488 46.1028023,20.4729074 48.3497307,20.4729074 C53.936851,20.4729074 54.867031,28.5970046 49.4490344,29.8922387 C49.0443457,34.6231875 47.2202264,39.171709 44.2666028,42.8689029 C47.8000789,47.6545799 41.023053,53.3341509 36.982206,48.9619758 C29.8065316,52.8537589 20.9879418,52.7564643 13.9028693,48.7004966 C13.0210103,49.5883097 11.800904,50.0930253 10.5505971,50.0930253 C3.51988576,50.0930253 4.88495515,38.9588771 11.7103021,40.6858558 L13.890789,34.6839966 C11.3962153,33.1455261 10.8646839,29.6733259 12.8035656,27.4537933 L8.79291926,22.5951454 C7.89293989,23.1241846 6.86611779,23.4039065 5.8211753,23.4039065 C-1.94039177,23.4039065 -1.94039177,11.5461299 5.8211753,11.5461299 C6.49162973,11.5461299 7.16208416,11.6616672 7.79629781,11.8866609 C11.2210515,8.00095876 15.8840319,5.27671059 20.9577411,4.25511753 C21.5255133,-1.41837251 29.8306921,-1.41837251 30.3924242,4.25511753 C32.9232387,4.76591406 35.3634512,5.70237437 37.5922592,6.99760843 C40.5036018,3.7990492 45.8309965,5.8848017 45.8309965,10.2204913 C45.8309965,17.627041 34.149385,15.6020976 36.6197982,8.62121169 C34.6265553,7.46583858 32.4521085,6.62667285 30.19914,6.14628088 C29.8488125,7.27733034 29.0756758,8.25635702 28.060934,8.85228631 L31.6789719,18.9222751 C35.170167,18.3567503 38.4922385,20.7830339 39.0056496,24.3038814 Z" id="Shape"></path>
                </g>
            </g>
        </g>
    </g>
</svg>