<?xml version="1.0" encoding="UTF-8"?>
<svg width="13px" height="13px" viewBox="0 0 13 13" version="1.1" xmlns="http://www.w3.org/2000/svg" xmlns:xlink="http://www.w3.org/1999/xlink">
    <!-- Generator: Sketch 42 (36781) - http://www.bohemiancoding.com/sketch -->
    <title>icon-check_mark</title>
    <desc>Created with Sketch.</desc>
    <defs></defs>
    <g id="Mobile---320px" stroke="none" stroke-width="1" fill="none" fill-rule="evenodd">
        <g id="digitalml---Mobile-Homepage" transform="translate(-15.000000, -473.000000)" fill="#FFFFFF">
            <g id="Group-2" transform="translate(15.000000, 429.000000)">
                <g id="icon-check_mark" transform="translate(0.000000, 44.000000)">
                    <path d="M5.73010914,0.674962284 C5.30182115,0.685907347 4.87162365,0.74263669 4.44845037,0.848387585 C1.3016173,1.63485977 -0.611716505,4.82440542 0.177866703,7.95883112 C0.967449834,11.0932661 4.16478348,12.9990483 7.31162769,12.2125761 C10.4584608,11.4261039 12.3717953,8.24138333 11.5822114,5.10694222 C11.5687511,4.98755068 11.4868945,4.88681829 11.3724653,4.84882945 C11.2580361,4.81084061 11.1318739,4.84251378 11.0491922,4.92998756 C10.9665106,5.01746134 10.9423672,5.14480514 10.9873283,5.25628838 C11.695488,8.06748015 9.98403074,10.9098515 7.1616978,11.6152223 C4.33936517,12.3205931 1.48090977,10.620686 0.772749752,7.80950037 C0.0645898125,4.99829319 1.77604764,2.1511122 4.59838026,1.4457414 C6.11325055,1.0671347 7.71838243,1.38167424 8.98020232,2.29842351 C9.0682593,2.37630648 9.19305474,2.39767895 9.30217094,2.35356387 C9.41128714,2.3094488 9.48582368,2.2074875 9.49447305,2.09050668 C9.50312243,1.97352586 9.44438645,1.8617882 9.34293593,1.80222674 C8.28549181,1.03397578 7.01498426,0.642327496 5.73010914,0.674962284 L5.73010914,0.674962284 Z M12.6462297,0.978464269 C12.5773871,0.989584865 12.5143315,1.0235345 12.4672811,1.07481166 C10.7961129,2.81638708 8.05462376,5.82820648 6.32499227,7.64088473 L3.91644107,5.52606107 C3.83529279,5.44236963 3.71375782,5.41130282 3.60217672,5.44572872 C3.49059562,5.48015461 3.40797086,5.57421041 3.38852614,5.68893761 C3.36908141,5.80366481 3.4161282,5.91952514 3.51017942,5.98852854 L6.14120723,8.30087206 C6.26565781,8.40817575 6.45265062,8.3997096 6.56681467,8.28160258 C8.29321774,6.48249621 11.1993721,3.28377212 12.9122344,1.49874017 C13.0047061,1.40413333 13.0264385,1.2613809 12.9662818,1.14372116 C12.9061252,1.02606141 12.7774329,0.95961195 12.6462297,0.978464269 Z" id="Shape"></path>
                </g>
            </g>
        </g>
    </g>
</svg>