<?xml version="1.0" encoding="UTF-8"?>
<svg width="131px" height="130px" viewBox="0 0 131 130" version="1.1" xmlns="http://www.w3.org/2000/svg" xmlns:xlink="http://www.w3.org/1999/xlink">
    <!-- Generator: Sketch 42 (36781) - http://www.bohemiancoding.com/sketch -->
    <title>icon-IT_modernization</title>
    <desc>Created with Sketch.</desc>
    <defs>
        <ellipse id="path-1" cx="65.312997" cy="64.9290393" rx="65.0339103" ry="64.7582791"></ellipse>
        <mask id="mask-2" maskContentUnits="userSpaceOnUse" maskUnits="objectBoundingBox" x="0" y="0" width="130.067821" height="129.516558" fill="white">
            <use xlink:href="#path-1"></use>
        </mask>
    </defs>
    <g id="Mobile---320px" stroke="none" stroke-width="1" fill="none" fill-rule="evenodd">
        <g id="digitalml---Mobile-Homepage" transform="translate(-95.000000, -3798.000000)">
            <g id="Group-14" transform="translate(-878.000000, 3035.000000)">
                <g id="IT-modernization" transform="translate(956.000000, 763.000000)">
                    <g id="icon-IT_modernization" transform="translate(17.000000, 0.000000)">
                        <use id="Oval-4" stroke="#FFFFFF" mask="url(#mask-2)" stroke-width="2.7" xlink:href="#path-1"></use>
                        <path d="M98.4423242,58.9820534 L82.5206512,58.9820534 L82.5206512,58.3113797 L82.5206512,58.189439 C82.5206512,57.9455577 82.3369396,57.7016763 82.0919908,57.7016763 C81.847042,57.7016763 81.6020932,57.8845873 81.6020932,58.1284687 L81.6020932,58.37235 L81.6020932,59.0430237 L50.3711193,59.0430237 C48.8401892,59.0430237 47.6154451,60.2624304 47.6154451,61.7866888 L47.6154451,68.1276036 L46.8805987,68.1276036 L46.8805987,68.1276036 C46.6356498,68.1276036 46.4519382,68.3105146 46.4519382,68.554396 C46.4519382,68.7982773 46.6356498,68.9811883 46.8805987,68.9811883 L47.6154451,68.9811883 L47.6154451,74.6514294 C46.6356498,73.9807558 46.1457522,73.4929931 46.1457522,73.4929931 L45.8395662,73.1271711 L45.5333802,73.4929931 C45.472143,73.5539634 41.1855387,78.0657682 32.1836698,77.8828572 L31.7550093,77.8828572 L31.7550093,78.3096495 C31.7550093,78.4925605 31.1426373,95.1984323 45.7170918,102.636813 L45.9008034,102.758754 L46.084515,102.636813 C49.5137984,100.868673 52.391947,98.4908304 54.5964863,95.503284 L67.7624851,95.503284 L66.4152666,100.25897 L64.8843365,100.25897 C63.3534064,100.25897 62.1286624,101.478377 62.1286624,103.002635 C62.1286624,103.246517 62.312374,103.429428 62.5573228,103.429428 L86.1948834,103.429428 C86.4398322,103.429428 86.6235439,103.246517 86.6235439,103.002635 C86.6235439,101.478377 85.3987998,100.25897 83.8678697,100.25897 L82.459414,100.25897 L81.1121955,95.503284 L101.259236,95.503284 L101.259236,61.7257184 C101.197998,60.2014601 99.9732543,58.9820534 98.4423242,58.9820534 Z M53.9841143,94.7106696 C51.8408122,97.6372457 49.1463752,99.9541184 45.8395662,101.661288 C33.2859394,95.0764916 32.6123302,81.3581663 32.551093,78.7364419 L32.6735674,78.7364419 C40.3894551,78.7364419 44.6148221,75.4440438 45.8395662,74.4075481 C46.1457522,74.7123998 46.7581242,75.2001625 47.6154451,75.7488955 L47.6154451,75.7488955 L47.8603939,75.8708361 C50.0649332,77.2121835 53.8004027,78.7974122 59.1280394,78.7364419 C59.1280394,79.9558486 58.9443278,83.6140687 57.5358721,87.8210218 C57.2909233,88.4307251 57.1072117,89.1013988 56.8010257,89.6501318 C56.0661792,91.4792419 55.1476212,93.1864113 53.9841143,94.7106696 Z M83.9291069,101.051584 C84.7864277,101.051584 85.5212742,101.661288 85.7049858,102.453902 L63.0472204,102.453902 C63.230932,101.661288 63.9657785,101.051584 64.8230993,101.051584 L66.6602154,101.051584 L81.9695164,101.051584 L83.9291069,101.051584 Z M81.4796187,100.198 L67.3338247,100.198 L68.6810432,95.4423137 L80.0711631,95.4423137 L81.4796187,100.198 Z M100.340677,94.5277586 L55.2088584,94.5277586 C55.3313328,94.3448476 55.4538072,94.1619366 55.5150444,93.9790256 C55.6375188,93.7351443 55.8212304,93.5522333 55.9437048,93.3083519 C56.1274164,93.0035003 56.311128,92.6376783 56.4948396,92.3328266 C56.617314,92.0889452 56.7397884,91.9060342 56.8622629,91.6621529 C57.0459745,91.2963309 57.2296861,90.8695385 57.4133977,90.5037165 C57.4746349,90.3208055 57.5971093,90.1378945 57.6583465,89.8940132 C57.8420581,89.4062505 58.0870069,88.9184878 58.2094813,88.3697548 L100.218203,88.3697548 L100.218203,94.5277586 L100.340677,94.5277586 Z M100.340677,87.5161701 L58.5769046,87.5161701 C60.1690719,82.5166027 60.0465974,78.4315902 60.0465974,78.2486792 L60.0465974,77.8218869 L59.617937,77.8218869 L58.6381418,77.8218869 L58.3931929,77.8218869 L57.7195837,77.8218869 L57.4133977,77.8218869 C57.2296861,77.8218869 56.9847373,77.8218869 56.8010257,77.7609165 C56.6785512,77.7609165 56.617314,77.7609165 56.4948396,77.6999462 C56.311128,77.6999462 56.1274164,77.6389759 55.9437048,77.6389759 C55.8212304,77.6389759 55.7599932,77.6389759 55.6375188,77.5780055 C55.4538072,77.5780055 55.2700956,77.5170352 55.1476212,77.5170352 C55.0251467,77.5170352 54.9639095,77.4560649 54.8414351,77.4560649 C54.6577235,77.4560649 54.5352491,77.3950945 54.3515375,77.3950945 C54.2290631,77.3950945 54.1678259,77.3341242 54.0453515,77.3341242 C53.9228771,77.2731538 53.7391655,77.2731538 53.6166911,77.2121835 C53.4942167,77.2121835 53.4329794,77.1512132 53.310505,77.1512132 C53.1880306,77.0902428 53.0655562,77.0902428 52.8818446,77.0292725 C52.7593702,77.0292725 52.698133,76.9683022 52.5756586,76.9683022 C52.4531842,76.9073318 52.3307098,76.9073318 52.2082354,76.8463615 C52.085761,76.7853912 52.0245238,76.7853912 51.9020494,76.7244208 C51.7795749,76.6634505 51.6571005,76.6634505 51.5346261,76.6024802 C51.4121517,76.5415098 51.3509145,76.5415098 51.2284401,76.4805395 C51.1059657,76.4195692 50.9834913,76.4195692 50.9222541,76.3585988 C50.7997797,76.2976285 50.7385425,76.2976285 50.6773053,76.2366582 C50.5548309,76.1756878 50.4935937,76.1756878 50.3711193,76.1147175 C50.3098821,76.0537472 50.1874077,76.0537472 50.1261704,75.9927768 C50.003696,75.9318065 49.9424588,75.9318065 49.8812216,75.8708361 C49.8199844,75.8098658 49.69751,75.8098658 49.6362728,75.7488955 C49.5750356,75.6879251 49.4525612,75.6879251 49.391324,75.6269548 C49.3300868,75.5659845 49.2076124,75.5659845 49.1463752,75.5050141 C49.085138,75.4440438 48.9626636,75.4440438 48.9014264,75.3830735 C48.8401892,75.3221031 48.778952,75.3221031 48.7177148,75.2611328 C48.6564776,75.2611328 48.6564776,75.2001625 48.5952404,75.2001625 L48.5952404,61.7257184 C48.5952404,60.7501931 49.391324,59.8966084 50.4323565,59.8966084 L98.5035614,59.8966084 C99.5445938,59.8966084 100.340677,60.6892227 100.340677,61.7257184 L100.340677,87.5161701 Z" id="Shape" fill="#FFFFFF"></path>
                        <path d="M30.2853164,36.5449701 C30.5302653,36.5449701 30.7139769,36.3620591 30.7139769,36.1181778 L30.7139769,31.240551 C30.7139769,30.9966696 30.5302653,30.8137586 30.2853164,30.8137586 C30.0403676,30.8137586 29.856656,30.9966696 29.856656,31.240551 L29.856656,36.0572074 C29.856656,36.3620591 30.0403676,36.5449701 30.2853164,36.5449701 Z" id="Shape" fill="#FFFFFF"></path>
                        <path d="M30.2853164,40.5690122 C30.5302653,40.5690122 30.7139769,40.3861012 30.7139769,40.1422199 L30.7139769,38.4350505 C30.7139769,38.1911692 30.5302653,38.0082582 30.2853164,38.0082582 C30.0403676,38.0082582 29.856656,38.1911692 29.856656,38.4350505 L29.856656,40.1422199 C29.856656,40.3251309 30.0403676,40.5690122 30.2853164,40.5690122 Z" id="Shape" fill="#FFFFFF"></path>
                        <path d="M53.5554539,52.0314352 L52.7593702,51.2388208 C52.5756586,51.0559098 52.2694726,51.0559098 52.1469982,51.2388208 C51.9632866,51.4217318 51.9632866,51.7265835 52.1469982,51.8485242 L52.9430818,52.6411385 C53.004319,52.7021089 53.1267934,52.7630792 53.2492678,52.7630792 C53.3717422,52.7630792 53.4942167,52.7021089 53.5554539,52.6411385 C53.7391655,52.4582275 53.7391655,52.2143462 53.5554539,52.0314352 Z" id="Shape" fill="#FFFFFF"></path>
                        <path d="M55.3313328,53.7995749 C55.1476212,53.6166639 54.8414351,53.6166639 54.7189607,53.7995749 C54.5352491,53.9824859 54.5352491,54.2873376 54.7189607,54.4092783 L55.5150444,55.2018926 C55.5762816,55.2628629 55.698756,55.3238333 55.8212304,55.3238333 C55.9437048,55.3238333 56.0661792,55.2628629 56.1274164,55.2018926 C56.311128,55.0189816 56.311128,54.7141299 56.1274164,54.5921893 L55.3313328,53.7995749 Z" id="Shape" fill="#FFFFFF"></path>
                        <path d="M52.9430818,53.7995749 L52.1469982,54.5921893 C51.9632866,54.7751003 51.9632866,55.0799519 52.1469982,55.2018926 C52.2082354,55.2628629 52.3307098,55.3238333 52.4531842,55.3238333 C52.5756586,55.3238333 52.698133,55.2628629 52.7593702,55.2018926 L53.5554539,54.4092783 C53.7391655,54.2263672 53.7391655,53.9215156 53.5554539,53.7995749 C53.3717422,53.6166639 53.0655562,53.6166639 52.9430818,53.7995749 Z" id="Shape" fill="#FFFFFF"></path>
                        <path d="M56.0661792,51.2388208 C55.8824676,51.0559098 55.5762816,51.0559098 55.4538072,51.2388208 L54.6577235,52.0314352 C54.4740119,52.2143462 54.4740119,52.5191979 54.6577235,52.6411385 C54.7189607,52.7021089 54.8414351,52.7630792 54.9639095,52.7630792 C55.0863839,52.7630792 55.2088584,52.7021089 55.2700956,52.6411385 L56.0661792,51.8485242 C56.2498908,51.7265835 56.2498908,51.4217318 56.0661792,51.2388208 Z" id="Shape" fill="#FFFFFF"></path>
                        <path d="M54.4127747,98.6737414 C54.2290631,98.4908304 53.9228771,98.4908304 53.8004027,98.6737414 C53.6166911,98.8566524 53.6166911,99.1615041 53.8004027,99.2834448 L54.5964863,100.076059 C54.6577235,100.137029 54.7801979,100.198 54.9026723,100.198 C55.0251467,100.198 55.1476212,100.137029 55.2088584,100.076059 C55.39257,99.8931481 55.39257,99.5882964 55.2088584,99.4663558 L54.4127747,98.6737414 Z" id="Shape" fill="#FFFFFF"></path>
                        <path d="M56.9847373,101.173525 C56.8010257,100.990614 56.4948396,100.990614 56.3723652,101.173525 C56.1886536,101.356436 56.1886536,101.661288 56.3723652,101.783228 L57.1684489,102.575843 C57.2296861,102.636813 57.3521605,102.697784 57.4746349,102.697784 C57.5971093,102.697784 57.7195837,102.636813 57.7808209,102.575843 C57.9645325,102.392932 57.9645325,102.08808 57.7808209,101.966139 L56.9847373,101.173525 Z" id="Shape" fill="#FFFFFF"></path>
                        <path d="M54.5964863,101.173525 L53.8004027,101.966139 C53.6166911,102.149051 53.6166911,102.453902 53.8004027,102.575843 C53.8616399,102.636813 53.9841143,102.697784 54.1065887,102.697784 C54.2290631,102.697784 54.3515375,102.636813 54.4127747,102.575843 L55.2088584,101.783228 C55.39257,101.600317 55.39257,101.295466 55.2088584,101.173525 C55.0251467,100.990614 54.7801979,100.990614 54.5964863,101.173525 Z" id="Shape" fill="#FFFFFF"></path>
                        <path d="M57.1072117,98.6737414 L56.311128,99.4663558 C56.1274164,99.6492668 56.1274164,99.9541184 56.311128,100.076059 C56.3723652,100.137029 56.4948396,100.198 56.617314,100.198 C56.7397884,100.198 56.8622629,100.137029 56.9235001,100.076059 L57.7195837,99.2834448 C57.9032953,99.1005338 57.9032953,98.7956821 57.7195837,98.6737414 C57.5971093,98.4908304 57.2909233,98.4908304 57.1072117,98.6737414 Z" id="Shape" fill="#FFFFFF"></path>
                        <path d="M70.7018709,56.8480916 C71.7429034,56.8480916 72.6614614,55.994507 72.6614614,54.8970409 C72.6614614,53.7995749 71.8041406,52.9459902 70.7018709,52.9459902 C69.6608384,52.9459902 68.7422804,53.7995749 68.7422804,54.8970409 C68.7422804,55.994507 69.6608384,56.8480916 70.7018709,56.8480916 Z M70.7018709,53.8605452 C71.2530057,53.8605452 71.7429034,54.3483079 71.7429034,54.8970409 C71.7429034,55.4457739 71.2530057,55.9335366 70.7018709,55.9335366 C70.1507361,55.9335366 69.6608384,55.4457739 69.6608384,54.8970409 C69.6608384,54.3483079 70.1507361,53.8605452 70.7018709,53.8605452 Z" id="Shape" fill="#FFFFFF"></path>
                        <path d="M33.6533627,47.5806007 C34.6943951,47.5806007 35.6129532,46.727016 35.6129532,45.62955 C35.6129532,44.5930543 34.7556323,43.6784993 33.6533627,43.6784993 C32.6123302,43.6784993 31.6937721,44.532084 31.6937721,45.62955 C31.6937721,46.727016 32.551093,47.5806007 33.6533627,47.5806007 Z M33.6533627,44.5930543 C34.2044975,44.5930543 34.6943951,45.080817 34.6943951,45.62955 C34.6943951,46.178283 34.2044975,46.6660457 33.6533627,46.6660457 C33.1022278,46.6660457 32.6123302,46.178283 32.6123302,45.62955 C32.6123302,45.080817 33.0409906,44.5930543 33.6533627,44.5930543 Z" id="Shape" fill="#FFFFFF"></path>
                        <path d="M59.617937,36.7278811 L65.0068109,36.7278811 C65.2517598,36.7278811 65.4354714,36.5449701 65.4354714,36.3010888 C65.4354714,36.0572074 65.2517598,35.8742964 65.0068109,35.8742964 L59.617937,35.8742964 C59.3729882,35.8742964 59.1892766,36.0572074 59.1892766,36.3010888 C59.1280394,36.4839998 59.3729882,36.7278811 59.617937,36.7278811 Z" id="Shape" fill="#FFFFFF"></path>
                        <path d="M66.7214527,36.7278811 L68.4360944,36.7278811 C68.6810432,36.7278811 68.8647548,36.5449701 68.8647548,36.3010888 C68.8647548,36.0572074 68.6810432,35.8742964 68.4360944,35.8742964 L66.7214527,35.8742964 C66.4765038,35.8742964 66.2927922,36.0572074 66.2927922,36.3010888 C66.2927922,36.4839998 66.4765038,36.7278811 66.7214527,36.7278811 Z" id="Shape" fill="#FFFFFF"></path>
                        <path d="M68.4973316,37.6424361 L64.7006249,37.6424361 C64.4556761,37.6424361 64.2719645,37.8253471 64.2719645,38.0692285 C64.2719645,38.3131098 64.4556761,38.4960208 64.7006249,38.4960208 L68.4360944,38.4960208 C68.6810432,38.4960208 68.8647548,38.3131098 68.8647548,38.0692285 C68.925992,37.8253471 68.7422804,37.6424361 68.4973316,37.6424361 Z" id="Shape" fill="#FFFFFF"></path>
                        <path d="M61.8837136,37.6424361 C61.6387647,37.6424361 61.4550531,37.8253471 61.4550531,38.0692285 C61.4550531,38.3131098 61.6387647,38.4960208 61.8837136,38.4960208 L63.1084576,38.4960208 C63.3534064,38.4960208 63.5371181,38.3131098 63.5371181,38.0692285 C63.5371181,37.8253471 63.3534064,37.6424361 63.1084576,37.6424361 L61.8837136,37.6424361 Z" id="Shape" fill="#FFFFFF"></path>
                        <path d="M94.4619059,98.0640381 C94.4619059,97.8201567 94.2781943,97.6372457 94.0332455,97.6372457 L88.6443716,97.6372457 C88.3994228,97.6372457 88.2157112,97.8201567 88.2157112,98.0640381 C88.2157112,98.3079194 88.3994228,98.4908304 88.6443716,98.4908304 L94.0332455,98.4908304 C94.2781943,98.4908304 94.4619059,98.3079194 94.4619059,98.0640381 Z" id="Shape" fill="#FFFFFF"></path>
                        <path d="M97.5237661,97.5762754 L95.8091244,97.5762754 C95.5641756,97.5762754 95.380464,97.7591864 95.380464,98.0030677 C95.380464,98.2469491 95.5641756,98.4298601 95.8091244,98.4298601 L97.5237661,98.4298601 C97.7687149,98.4298601 97.9524265,98.2469491 97.9524265,98.0030677 C97.9524265,97.8201567 97.7687149,97.5762754 97.5237661,97.5762754 Z" id="Shape" fill="#FFFFFF"></path>
                        <path d="M97.5237661,99.4663558 L93.7882967,99.4663558 C93.5433479,99.4663558 93.3596363,99.6492668 93.3596363,99.8931481 C93.3596363,100.137029 93.5433479,100.31994 93.7882967,100.31994 L97.5237661,100.31994 C97.7687149,100.31994 97.9524265,100.137029 97.9524265,99.8931481 C97.9524265,99.6492668 97.7687149,99.4663558 97.5237661,99.4663558 Z" id="Shape" fill="#FFFFFF"></path>
                        <path d="M92.1348922,99.4663558 L90.9101481,99.4663558 C90.6651993,99.4663558 90.4814877,99.6492668 90.4814877,99.8931481 C90.4814877,100.137029 90.6651993,100.31994 90.9101481,100.31994 L92.1348922,100.31994 C92.379841,100.31994 92.5635526,100.137029 92.5635526,99.8931481 C92.6247898,99.6492668 92.4410782,99.4663558 92.1348922,99.4663558 Z" id="Shape" fill="#FFFFFF"></path>
                        <path d="M91.8899434,34.2890677 L97.2788173,34.2890677 C97.5237661,34.2890677 97.7074777,34.1061567 97.7074777,33.8622754 C97.7074777,33.618394 97.5237661,33.435483 97.2788173,33.435483 L91.8899434,33.435483 C91.6449946,33.435483 91.4612829,33.618394 91.4612829,33.8622754 C91.4000457,34.1061567 91.6449946,34.2890677 91.8899434,34.2890677 Z" id="Shape" fill="#FFFFFF"></path>
                        <path d="M99.0546962,34.2890677 L100.769338,34.2890677 C101.014287,34.2890677 101.197998,34.1061567 101.197998,33.8622754 C101.197998,33.618394 101.014287,33.435483 100.769338,33.435483 L99.0546962,33.435483 C98.8097474,33.435483 98.6260358,33.618394 98.6260358,33.8622754 C98.5647986,34.1061567 98.7485102,34.2890677 99.0546962,34.2890677 Z" id="Shape" fill="#FFFFFF"></path>
                        <path d="M100.769338,35.2645931 L97.0338685,35.2645931 C96.7889197,35.2645931 96.6052081,35.4475041 96.6052081,35.6913854 C96.6052081,35.9352668 96.7889197,36.1181778 97.0338685,36.1181778 L100.769338,36.1181778 C101.014287,36.1181778 101.197998,35.9352668 101.197998,35.6913854 C101.197998,35.4475041 101.014287,35.2645931 100.769338,35.2645931 Z" id="Shape" fill="#FFFFFF"></path>
                        <path d="M94.2169571,35.2645931 C93.9720083,35.2645931 93.7882967,35.4475041 93.7882967,35.6913854 C93.7882967,35.9352668 93.9720083,36.1181778 94.2169571,36.1181778 L95.4417012,36.1181778 C95.68665,36.1181778 95.8703616,35.9352668 95.8703616,35.6913854 C95.8703616,35.4475041 95.68665,35.2645931 95.4417012,35.2645931 L94.2169571,35.2645931 Z" id="Shape" fill="#FFFFFF"></path>
                        <path d="M84.6639533,51.5436725 C84.9089022,51.5436725 85.0926138,51.3607615 85.0926138,51.1168802 C85.0926138,50.8729988 84.9089022,50.6900878 84.6639533,50.6900878 L82.6431256,50.6900878 C82.3981768,50.6900878 82.2144652,50.8729988 82.2144652,51.1168802 C82.2144652,51.3607615 82.3981768,51.5436725 82.6431256,51.5436725 L84.6639533,51.5436725 Z" id="Shape" fill="#FFFFFF"></path>
                        <path d="M80.2548747,50.6900878 C79.9486887,50.6900878 79.6425026,50.6291175 79.3363166,50.4462065 C79.0913678,50.3242658 78.846419,50.3852361 78.7239446,50.6291175 C78.6014702,50.8729988 78.6627074,51.1168802 78.9076562,51.2388208 C79.3363166,51.4827022 79.764977,51.5436725 80.1936375,51.5436725 L81.0509583,51.5436725 C81.2959071,51.5436725 81.4796187,51.3607615 81.4796187,51.1168802 C81.4796187,50.8729988 81.2959071,50.6900878 81.0509583,50.6900878 L80.2548747,50.6900878 L80.2548747,50.6900878 Z" id="Shape" fill="#FFFFFF"></path>
                        <path d="M87.1134415,51.5436725 C87.4196275,51.5436725 87.7870507,51.6046428 88.0319995,51.7875538 C88.0932367,51.8485242 88.1544739,51.8485242 88.2769484,51.8485242 C88.46066,51.8485242 88.5831344,51.7875538 88.6443716,51.6046428 C88.766846,51.3607615 88.7056088,51.1168802 88.46066,50.9949395 C88.1544739,50.8120285 87.8482879,50.6900878 87.5421019,50.6900878 C87.4808647,50.6900878 87.4196275,50.6291175 87.3583903,50.6291175 L86.1336462,50.6291175 C85.8886974,50.6291175 85.7049858,50.8120285 85.7049858,51.0559098 C85.7049858,51.2997912 85.8886974,51.4827022 86.1336462,51.4827022 L86.9909671,51.4827022 C87.0522043,51.5436725 87.0522043,51.5436725 87.1134415,51.5436725 Z" id="Shape" fill="#FFFFFF"></path>
                        <path d="M86.6847811,56.9700323 L86.6847811,56.9700323 C87.4808647,56.909062 88.2157112,56.6042103 88.766846,56.0554773 C88.9505576,55.8725663 88.9505576,55.6286849 88.766846,55.4457739 C88.5831344,55.2628629 88.3381856,55.2628629 88.1544739,55.4457739 C87.7258135,55.811596 87.1746787,56.0554773 86.6235439,56.1164476 C86.378595,56.1164476 86.1948834,56.360329 86.1948834,56.6042103 C86.2561206,56.7871213 86.4398322,56.9700323 86.6847811,56.9700323 Z" id="Shape" fill="#FFFFFF"></path>
                        <path d="M89.1342692,54.8970409 L89.2567436,54.8970409 C89.4404552,54.8970409 89.6241668,54.7751003 89.685404,54.5921893 C89.8078784,54.2263672 89.8691157,53.8605452 89.8691157,53.4337529 C89.8691157,53.0679309 89.8078784,52.6411385 89.6241668,52.3362869 C89.5016924,52.0924055 89.2567436,52.0314352 89.0117948,52.0924055 C88.766846,52.2143462 88.7056088,52.4582275 88.766846,52.7021089 C88.8893204,52.9459902 88.9505576,53.1898716 88.9505576,53.4337529 C88.9505576,53.7386046 88.8893204,54.0434562 88.8280832,54.2873376 C88.766846,54.5312189 88.8893204,54.7751003 89.1342692,54.8970409 Z" id="Shape" fill="#FFFFFF"></path>
                        <path d="M82.8268372,57.3968247 C82.9493116,57.3968247 83.0105488,57.3358543 83.1330232,57.274884 C83.3779721,57.091973 83.6841581,56.9700323 83.9903441,56.9700323 L84.1128185,56.9700323 L85.153851,56.9700323 C85.3987998,56.9700323 85.5825114,56.7871213 85.5825114,56.54324 C85.5825114,56.2993586 85.3987998,56.1164476 85.153851,56.1164476 L83.9291069,56.1164476 C83.8678697,56.1164476 83.8066325,56.1164476 83.7453953,56.177418 C83.3167349,56.2383883 82.8880744,56.360329 82.5206512,56.6651806 C82.3369396,56.7871213 82.2757024,57.091973 82.459414,57.274884 C82.5818884,57.3358543 82.7043628,57.3968247 82.8268372,57.3968247 Z" id="Shape" fill="#FFFFFF"></path>
                        <path d="M43.6350269,53.1898716 C44.0636873,53.1898716 44.5535849,53.0679309 44.9210081,52.8850199 C45.1659569,52.7630792 45.2271942,52.5191979 45.1047197,52.2753165 C44.9822453,52.0314352 44.7372965,51.9704649 44.4923477,52.0924055 C44.2473989,52.2143462 43.9412129,52.3362869 43.5737897,52.3362869 L42.7164688,52.3362869 C42.47152,52.3362869 42.2878084,52.5191979 42.2878084,52.7630792 C42.2878084,53.0069605 42.47152,53.1898716 42.7164688,53.1898716 L43.6350269,53.1898716 L43.6350269,53.1898716 Z" id="Shape" fill="#FFFFFF"></path>
                        <path d="M41.2467759,52.2753165 L39.2259482,52.2753165 C38.9809994,52.2753165 38.7972878,52.4582275 38.7972878,52.7021089 C38.7972878,52.9459902 38.9809994,53.1289012 39.2259482,53.1289012 L41.2467759,53.1289012 C41.4917247,53.1289012 41.6754363,52.9459902 41.6754363,52.7021089 C41.7366735,52.4582275 41.4917247,52.2753165 41.2467759,52.2753165 Z" id="Shape" fill="#FFFFFF"></path>
                        <path d="M35.2455299,53.2508419 C35.3067672,53.3727826 35.4904788,53.4947232 35.6129532,53.4947232 C35.6741904,53.4947232 35.7354276,53.4947232 35.857902,53.4337529 C36.164088,53.2508419 36.470274,53.1898716 36.77646,53.1898716 L36.8989344,53.1898716 L37.7562553,53.1898716 C38.0012041,53.1898716 38.1849157,53.0069605 38.1849157,52.7630792 C38.1849157,52.5191979 38.0012041,52.3362869 37.7562553,52.3362869 L36.5315112,52.3362869 C36.470274,52.3362869 36.4090368,52.3362869 36.3477996,52.3972572 C36.0416136,52.4582275 35.6741904,52.5801682 35.4292416,52.7021089 C35.1842927,52.7630792 35.1230555,53.0679309 35.2455299,53.2508419 Z" id="Shape" fill="#FFFFFF"></path>
                        <path d="M35.1230555,57.640706 C35.6741904,58.189439 36.4090368,58.4942907 37.2051205,58.555261 L37.2663577,58.555261 C37.5113065,58.555261 37.6950181,58.37235 37.6950181,58.1284687 C37.6950181,57.8845873 37.5113065,57.640706 37.2663577,57.640706 C36.7152228,57.5797357 36.164088,57.3358543 35.7354276,56.9700323 C35.551716,56.7871213 35.2455299,56.7871213 35.1230555,56.9700323 C34.9393439,57.2139137 34.9393439,57.457795 35.1230555,57.640706 Z" id="Shape" fill="#FFFFFF"></path>
                        <path d="M34.6331579,56.54324 L34.7556323,56.54324 C35.0005811,56.4822696 35.1230555,56.177418 35.0618183,55.994507 C34.9393439,55.6896553 34.9393439,55.4457739 34.9393439,55.1409223 C34.9393439,54.8970409 35.0005811,54.5921893 35.1230555,54.4092783 C35.2455299,54.1653969 35.1230555,53.9215156 34.8781067,53.7995749 C34.6331579,53.6776342 34.3882091,53.7995749 34.2657347,54.0434562 C34.0820231,54.4092783 34.0207859,54.7751003 34.0207859,55.1409223 C34.0207859,55.5067443 34.0820231,55.9335366 34.2044975,56.2993586 C34.2657347,56.4212993 34.4494463,56.54324 34.6331579,56.54324 Z" id="Shape" fill="#FFFFFF"></path>
                        <path d="M38.7360506,58.555261 L39.777083,58.555261 L39.8995574,58.555261 C40.2669807,58.555261 40.5731667,58.6162314 40.7568783,58.7991424 C40.8181155,58.8601127 40.9405899,58.921083 41.0630643,58.921083 C41.1855387,58.921083 41.3080131,58.8601127 41.4304875,58.738172 C41.6141991,58.555261 41.5529619,58.2504094 41.3692503,58.1284687 C41.0018271,57.8845873 40.6344039,57.7016763 40.1445062,57.7016763 C40.083269,57.7016763 40.0220318,57.640706 39.9607946,57.640706 L38.7360506,57.640706 C38.4911017,57.640706 38.3073901,57.823617 38.3073901,58.0674983 C38.3073901,58.37235 38.4911017,58.555261 38.7360506,58.555261 Z" id="Shape" fill="#FFFFFF"></path>
                        <path d="M41.9816224,61.9086294 C42.165334,61.5428074 42.2265712,61.1769854 42.2265712,60.7501931 C42.2265712,60.5063117 42.2265712,60.1404897 42.165334,59.7136974 C42.1040968,59.469816 41.9203852,59.286905 41.6754363,59.3478754 C41.4304875,59.4088457 41.2467759,59.5917567 41.3080131,59.8356381 C41.3692503,60.0795194 41.3692503,60.2624304 41.3692503,60.4453414 L41.3692503,60.5063117 L41.3692503,60.8111634 L41.3692503,60.8721338 L41.3692503,60.8721338 C41.3692503,61.0550448 41.3080131,61.2379558 41.2467759,61.4208668 C41.1243015,61.6647481 41.2467759,61.9086294 41.4917247,62.0305701 C41.5529619,62.0305701 41.6141991,62.0915405 41.6754363,62.0915405 C41.7366735,62.1525108 41.9203852,62.0915405 41.9816224,61.9086294 Z" id="Shape" fill="#FFFFFF"></path>
                        <path d="M35.1230555,63.4938582 L37.1438833,63.4938582 C37.3888321,63.4938582 37.5725437,63.3109472 37.5725437,63.0670658 C37.5725437,62.8231845 37.3888321,62.6402735 37.1438833,62.6402735 L35.1230555,62.6402735 C34.8781067,62.6402735 34.6943951,62.8231845 34.6943951,63.0670658 C34.6331579,63.3109472 34.8781067,63.4938582 35.1230555,63.4938582 Z" id="Shape" fill="#FFFFFF"></path>
                        <path d="M40.7568783,63.1890065 C41.0018271,63.0670658 41.0630643,62.8231845 40.9405899,62.5793031 C40.8181155,62.3354218 40.5731667,62.2744515 40.3282179,62.3963921 C40.083269,62.5183328 39.777083,62.6402735 39.4096598,62.6402735 L38.5523389,62.6402735 C38.3073901,62.6402735 38.1236785,62.8231845 38.1236785,63.0670658 C38.1236785,63.3109472 38.3073901,63.4938582 38.5523389,63.4938582 L39.4096598,63.4938582 C39.8995574,63.4938582 40.3894551,63.4328878 40.7568783,63.1890065 Z" id="Shape" fill="#FFFFFF"></path>
                        <path d="M31.4488233,63.8596802 C31.5100605,63.8596802 31.5712977,63.8596802 31.6937721,63.7987098 C31.9999582,63.6157988 32.3061442,63.5548285 32.6123302,63.5548285 L32.7348046,63.5548285 L33.5921254,63.5548285 C33.8370743,63.5548285 34.0207859,63.3719175 34.0207859,63.1280361 C34.0207859,62.8841548 33.8370743,62.7012438 33.5921254,62.7012438 L32.3673814,62.7012438 C32.3061442,62.7012438 32.244907,62.7012438 32.1836698,62.7622141 C31.8774837,62.8231845 31.5100605,62.9451251 31.2651117,63.0670658 C31.0201629,63.1890065 30.9589257,63.4938582 31.0814001,63.6767692 C31.1426373,63.7377395 31.3263489,63.8596802 31.4488233,63.8596802 Z" id="Shape" fill="#FFFFFF"></path>
                        <path d="M43.0226548,68.920218 L45.2271942,68.920218 L45.2271942,68.920218 C45.472143,68.920218 45.6558546,68.737307 45.6558546,68.4934256 C45.6558546,68.2495443 45.472143,68.0666333 45.2271942,68.0666333 L43.0226548,68.0666333 L43.0226548,68.0666333 C42.777706,68.0666333 42.5939944,68.2495443 42.5939944,68.4934256 C42.5939944,68.737307 42.777706,68.920218 43.0226548,68.920218 Z" id="Shape" fill="#FFFFFF"></path>
                        <path d="M33.7145999,68.0056629 L33.3471766,68.0056629 C32.7960418,68.0056629 32.3061442,67.8227519 31.8774837,67.5788706 C31.6937721,67.4569299 31.3875861,67.5179003 31.2651117,67.7008113 C31.1426373,67.8837223 31.2038745,68.1885739 31.3875861,68.3105146 C31.9387209,68.6763366 32.6735674,68.920218 33.3471766,68.920218 L33.7145999,68.920218 C33.9595487,68.920218 34.1432603,68.737307 34.1432603,68.4934256 C34.2044975,68.2495443 33.9595487,68.0056629 33.7145999,68.0056629 Z" id="Shape" fill="#FFFFFF"></path>
                        <path d="M30.5915025,67.1520783 C30.6527397,67.1520783 30.7139769,67.1520783 30.7752141,67.0911079 C31.0201629,66.9691672 31.0814001,66.7252859 30.9589257,66.4814046 C30.7752141,66.1155826 30.7139769,65.7497605 30.7139769,65.3839385 C30.7139769,65.1400572 30.7752141,64.9571462 30.8364513,64.7132649 C30.8976885,64.4693835 30.7752141,64.2255022 30.5915025,64.1645318 C30.3465537,64.1035615 30.1016048,64.2255022 30.0403676,64.4084132 C29.9178932,64.7132649 29.856656,65.0181165 29.856656,65.3839385 C29.856656,65.9326716 29.9791304,66.4204342 30.2240792,66.9081969 C30.2240792,67.0911079 30.4077909,67.1520783 30.5915025,67.1520783 Z" id="Shape" fill="#FFFFFF"></path>
                        <path d="M35.3680044,68.920218 L37.5725437,68.920218 L37.5725437,68.920218 C37.8174925,68.920218 38.0012041,68.737307 38.0012041,68.4934256 C38.0012041,68.2495443 37.8174925,68.0666333 37.5725437,68.0666333 L35.3680044,68.0666333 C35.1230555,68.0666333 34.9393439,68.2495443 34.9393439,68.4934256 C34.9393439,68.737307 35.1230555,68.920218 35.3680044,68.920218 Z" id="Shape" fill="#FFFFFF"></path>
                        <path d="M39.2259482,68.920218 L41.4304875,68.920218 L41.4304875,68.920218 C41.6754363,68.920218 41.8591479,68.737307 41.8591479,68.4934256 C41.8591479,68.2495443 41.6754363,68.0666333 41.4304875,68.0666333 L39.2259482,68.0666333 L39.2259482,68.0666333 C38.9809994,68.0666333 38.7972878,68.2495443 38.7972878,68.4934256 C38.7360506,68.737307 38.9809994,68.920218 39.2259482,68.920218 Z" id="Shape" fill="#FFFFFF"></path>
                        <path d="M49.1463752,83.6140687 C49.1463752,81.845929 47.6766823,80.3826409 45.9008034,80.3826409 C44.1249245,80.3826409 42.6552316,81.845929 42.6552316,83.6140687 C42.6552316,84.5286237 43.0226548,85.3822084 43.6962641,85.9919117 L42.5939944,92.8205893 L43.1451292,92.8205893 L48.7177148,92.8205893 L49.2688496,92.8205893 L48.1053427,85.9919117 C48.7177148,85.3822084 49.1463752,84.5286237 49.1463752,83.6140687 Z M48.1053427,91.9060342 L43.5737897,91.9060342 L44.5535849,85.8699711 L44.5535849,85.8699711 L44.6148221,85.6260897 L44.4311105,85.4431787 C43.8799757,85.0163864 43.5125524,84.3457127 43.5125524,83.6140687 C43.5125524,82.3336916 44.5535849,81.297196 45.8395662,81.297196 C47.1255475,81.297196 48.1665799,82.3336916 48.1665799,83.6140687 C48.1665799,84.3457127 47.8603939,85.0163864 47.2480219,85.4431787 L47.0643103,85.6260897 L48.1053427,91.9060342 Z" id="Shape" fill="#FFFFFF"></path>
                        <path d="M69.84455,92.5767079 L78.9688934,92.5767079 C79.764977,92.5767079 80.3773491,91.9670046 80.3773491,91.1743902 C80.3773491,90.3817759 79.764977,89.7720725 78.9688934,89.7720725 L69.84455,89.7720725 C69.0484664,89.7720725 68.4360944,90.3817759 68.4360944,91.1743902 C68.4360944,91.9670046 69.1097036,92.5767079 69.84455,92.5767079 Z M69.84455,90.6866275 L78.9688934,90.6866275 C79.2750794,90.6866275 79.458791,90.9305089 79.458791,91.1743902 C79.458791,91.4792419 79.2138422,91.6621529 78.9688934,91.6621529 L69.84455,91.6621529 C69.538364,91.6621529 69.3546524,91.4182716 69.3546524,91.1743902 C69.3546524,90.8695385 69.5996012,90.6866275 69.84455,90.6866275 Z" id="Shape" fill="#FFFFFF"></path>
                        <path d="M94.7680919,65.3839385 L54.1065887,65.3839385 C53.8616399,65.3839385 53.6779283,65.5668495 53.6779283,65.8107309 C53.6779283,66.0546122 53.8616399,66.2375232 54.1065887,66.2375232 L94.7680919,66.2375232 C95.0130408,66.2375232 95.1967524,66.0546122 95.1967524,65.8107309 C95.1967524,65.6278199 95.0130408,65.3839385 94.7680919,65.3839385 Z" id="Shape" fill="#FFFFFF"></path>
                        <path d="M94.7680919,70.1396247 L54.1065887,70.1396247 C53.8616399,70.1396247 53.6779283,70.3225357 53.6779283,70.566417 C53.6779283,70.8102983 53.8616399,70.9932094 54.1065887,70.9932094 L94.7680919,70.9932094 C95.0130408,70.9932094 95.1967524,70.8102983 95.1967524,70.566417 C95.1967524,70.3225357 95.0130408,70.1396247 94.7680919,70.1396247 Z" id="Shape" fill="#FFFFFF"></path>
                        <path d="M94.7680919,74.8343405 L54.1065887,74.8343405 C53.8616399,74.8343405 53.6779283,75.0172515 53.6779283,75.2611328 C53.6779283,75.5050141 53.8616399,75.6879251 54.1065887,75.6879251 L94.7680919,75.6879251 C95.0130408,75.6879251 95.1967524,75.5050141 95.1967524,75.2611328 C95.1967524,75.0172515 95.0130408,74.8343405 94.7680919,74.8343405 Z" id="Shape" fill="#FFFFFF"></path>
                        <path d="M94.7680919,79.5900266 L68.925992,79.5900266 C68.6810432,79.5900266 68.4973316,79.7729376 68.4973316,80.0168189 C68.4973316,80.2607003 68.6810432,80.4436113 68.925992,80.4436113 L94.7680919,80.4436113 C95.0130408,80.4436113 95.1967524,80.2607003 95.1967524,80.0168189 C95.1967524,79.7729376 95.0130408,79.5900266 94.7680919,79.5900266 Z" id="Shape" fill="#FFFFFF"></path>
                        <path d="M44.9210081,46.6050754 L51.2284401,46.6050754 C52.2082354,46.6050754 53.0655562,45.812461 53.0655562,44.7759653 L53.0655562,40.9348342 C53.0655562,39.9593089 52.2694726,39.1057242 51.2284401,39.1057242 L50.8610169,39.1057242 L50.8610169,37.0937031 C50.8610169,35.5694448 49.5750356,34.2890677 48.0441055,34.2890677 C46.5131754,34.2890677 45.2271942,35.5694448 45.2271942,37.0937031 L45.2271942,39.1057242 L44.8597709,39.1057242 C43.8799757,39.1057242 43.0226548,39.8983385 43.0226548,40.9348342 L43.0226548,44.7759653 C43.1451292,45.812461 43.9412129,46.6050754 44.9210081,46.6050754 Z M46.2069894,37.0937031 C46.2069894,36.0572074 47.0643103,35.2036227 48.1053427,35.2036227 C49.1463752,35.2036227 50.003696,36.0572074 50.003696,37.0937031 L50.003696,39.1057242 L46.2069894,39.1057242 L46.2069894,37.0937031 Z M44.0024501,40.9348342 C44.0024501,40.4470716 44.4311105,40.0202792 44.9210081,40.0202792 L45.7170918,40.0202792 L50.4323565,40.0202792 L51.2284401,40.0202792 C51.7183377,40.0202792 52.1469982,40.4470716 52.1469982,40.9348342 L52.1469982,44.7759653 C52.1469982,45.263728 51.7183377,45.6905204 51.2284401,45.6905204 L44.9210081,45.6905204 C44.4311105,45.6905204 44.0024501,45.263728 44.0024501,44.7759653 L44.0024501,40.9348342 Z" id="Shape" fill="#FFFFFF"></path>
                        <path d="M45.9008034,42.3981223 L50.3711193,42.3981223 C50.6160681,42.3981223 50.7997797,42.2152113 50.7997797,41.9713299 C50.7997797,41.7274486 50.6160681,41.5445376 50.3711193,41.5445376 L45.9008034,41.5445376 C45.6558546,41.5445376 45.472143,41.7274486 45.472143,41.9713299 C45.4109058,42.2152113 45.6558546,42.3981223 45.9008034,42.3981223 Z" id="Shape" fill="#FFFFFF"></path>
                        <path d="M45.9008034,44.2272323 L50.3711193,44.2272323 C50.6160681,44.2272323 50.7997797,44.0443213 50.7997797,43.80044 C50.7997797,43.5565586 50.6160681,43.3736476 50.3711193,43.3736476 L45.9008034,43.3736476 C45.6558546,43.3736476 45.472143,43.5565586 45.472143,43.80044 C45.4109058,44.0443213 45.6558546,44.2272323 45.9008034,44.2272323 Z" id="Shape" fill="#FFFFFF"></path>
                        <path d="M98.4423242,56.4212993 C98.5035614,56.4212993 98.6260358,56.4212993 98.687273,56.360329 C99.5445938,55.8725663 100.034491,54.9580113 100.034491,53.9824859 C100.034491,53.6166639 99.9732543,53.2508419 99.8507799,52.9459902 C99.7283054,52.7021089 99.4833566,52.5801682 99.2384078,52.7021089 C98.993459,52.8240495 98.8709846,53.0679309 98.993459,53.3118122 C99.1159334,53.5556936 99.1159334,53.7995749 99.1159334,54.0434562 C99.1159334,54.7141299 98.7485102,55.3238333 98.1973754,55.6286849 C97.9524265,55.7506256 97.8911893,56.0554773 98.0136637,56.2383883 C98.1361382,56.360329 98.3198498,56.4212993 98.4423242,56.4212993 Z" id="Shape" fill="#FFFFFF"></path>
                        <path d="M97.8299521,52.2143462 C98.0749009,52.2753165 98.3198498,52.1533759 98.381087,51.9094945 C98.4423242,51.6656132 98.3198498,51.4217318 98.0749009,51.3607615 C97.1563429,51.1168802 96.1153104,51.3607615 95.4417012,52.0924055 C95.2579896,52.2753165 95.2579896,52.5801682 95.4417012,52.7021089 C95.5029384,52.7630792 95.6254128,52.8240495 95.7478872,52.8240495 C95.8703616,52.8240495 95.992836,52.7630792 96.0540732,52.7021089 C96.4827337,52.2143462 97.1563429,52.0314352 97.8299521,52.2143462 Z" id="Shape" fill="#FFFFFF"></path>
                        <path d="M95.5029384,54.2263672 C95.4417012,53.9824859 95.2579896,53.7995749 95.0130408,53.8605452 C94.7680919,53.9215156 94.5843803,54.1044266 94.6456175,54.3483079 C94.7680919,55.3238333 95.4417012,56.177418 96.299022,56.54324 C96.3602592,56.54324 96.4214964,56.6042103 96.4827337,56.6042103 C96.6664453,56.6042103 96.8501569,56.4822696 96.9113941,56.2993586 C97.0338685,56.0554773 96.9113941,55.811596 96.6664453,55.6896553 C95.992836,55.4457739 95.5641756,54.8970409 95.5029384,54.2263672 Z" id="Shape" fill="#FFFFFF"></path>
                        <path d="M33.163465,97.6372457 C33.2247022,97.3933644 33.1022278,97.149483 32.857279,97.0885127 C32.6123302,97.0275424 32.3673814,96.966572 32.1224326,96.966572 L32.1224326,96.966572 C31.3875861,96.966572 30.7139769,97.2714237 30.162842,97.7591864 C29.9791304,97.9420974 29.9791304,98.2469491 30.162842,98.3688897 C30.2240792,98.4298601 30.3465537,98.4908304 30.4690281,98.4908304 C30.5915025,98.4908304 30.7139769,98.4298601 30.7752141,98.3688897 C31.1426373,98.0030677 31.5712977,97.8201567 32.0611954,97.8201567 L32.0611954,97.8201567 C32.244907,97.8201567 32.3673814,97.8201567 32.551093,97.8811271 C32.857279,98.0640381 33.1022278,97.8811271 33.163465,97.6372457 Z" id="Shape" fill="#FFFFFF"></path>
                        <path d="M34.0820231,98.4298601 C33.8370743,98.5518007 33.7145999,98.7956821 33.8370743,99.0395634 C33.9595487,99.2834448 33.9595487,99.5273261 33.9595487,99.7712074 C33.9595487,100.441881 33.5921254,101.051584 33.0409906,101.356436 C32.7960418,101.478377 32.7348046,101.783228 32.857279,101.966139 C32.9185162,102.08808 33.1022278,102.210021 33.2247022,102.210021 C33.2859394,102.210021 33.4084138,102.210021 33.469651,102.149051 C34.3269719,101.661288 34.8168695,100.746733 34.8168695,99.7712074 C34.8168695,99.4053854 34.7556323,99.0395634 34.6331579,98.7347117 C34.5719207,98.4908304 34.3269719,98.3688897 34.0820231,98.4298601 Z" id="Shape" fill="#FFFFFF"></path>
                        <path d="M31.4488233,101.417406 C30.8364513,101.173525 30.4077909,100.624792 30.3465537,99.9541184 C30.2853164,99.7102371 30.1016048,99.5273261 29.856656,99.5882964 C29.6117072,99.6492668 29.4279956,99.8321778 29.4892328,100.076059 C29.6117072,101.051584 30.2853164,101.905169 31.1426373,102.270991 C31.2038745,102.270991 31.2651117,102.331962 31.3263489,102.331962 C31.5100605,102.331962 31.6937721,102.210021 31.7550093,102.02711 C31.7550093,101.783228 31.6325349,101.539347 31.4488233,101.417406 Z" id="Shape" fill="#FFFFFF"></path>
                        <path d="M45.7170918,49.8365031 C45.5333802,49.8974735 45.472143,50.0803845 45.472143,50.2632955 C45.472143,50.5681471 45.4109058,50.9339692 45.2884314,51.2388208 C45.1659569,51.4827022 45.2884314,51.7265835 45.5333802,51.8485242 C45.5946174,51.8485242 45.6558546,51.9094945 45.7170918,51.9094945 C45.9008034,51.9094945 46.0232778,51.7875538 46.1457522,51.6656132 C46.3294638,51.2388208 46.4519382,50.7510582 46.390701,50.2632955 C46.390701,50.2023251 46.3294638,50.0803845 46.2682266,50.0194141 C46.8805987,50.1413548 47.4317335,50.2023251 48.0441055,50.2023251 C53.2492678,50.2023251 57.4746349,45.995372 57.4746349,40.8128936 C57.4746349,35.6304151 53.2492678,31.423462 48.0441055,31.423462 C42.8389432,31.423462 38.6135762,35.6304151 38.6135762,40.8128936 C38.6748134,45.1417873 41.6754363,48.8000074 45.7170918,49.8365031 Z M48.1053427,32.2770467 C52.8206074,32.2770467 56.617314,36.0572074 56.617314,40.7519232 C56.617314,45.446639 52.8206074,49.2267998 48.1053427,49.2267998 C43.390078,49.2267998 39.5933714,45.446639 39.5933714,40.7519232 C39.5933714,36.0572074 43.390078,32.2770467 48.1053427,32.2770467 Z" id="Shape" fill="#FFFFFF"></path>
                        <path d="M73.3963079,48.8000074 L77.4992005,48.8000074 C77.4992005,49.2267998 77.5604377,49.5926218 77.7441493,49.9584438 C77.8053865,50.1413548 77.9890981,50.2023251 78.1728097,50.2023251 C78.2340469,50.2023251 78.2952842,50.2023251 78.3565214,50.1413548 C78.6014702,50.0194141 78.6627074,49.7755328 78.6014702,49.5316515 C78.4789958,49.2877701 78.4177586,48.9829184 78.4177586,48.7390371 L85.766223,48.7390371 C86.8684927,48.7390371 87.8482879,48.1293338 88.3994228,47.2757491 L88.3994228,47.2757491 L97.4625289,47.2757491 C97.6462405,47.9464227 98.2586126,48.4341854 98.993459,48.4341854 C99.8507799,48.4341854 100.585626,47.7025414 100.585626,46.8489567 C100.585626,45.995372 99.8507799,45.263728 98.993459,45.263728 C98.2586126,45.263728 97.6462405,45.7514907 97.4625289,46.4221644 L88.766846,46.4221644 C88.8280832,46.178283 88.8893204,45.8734314 88.8893204,45.62955 C88.8893204,45.3856687 88.8280832,45.1417873 88.766846,44.897906 L92.8085014,44.897906 C92.992213,45.5685797 93.6045851,46.0563424 94.3394315,46.0563424 C95.1967524,46.0563424 95.9315988,45.3246983 95.9315988,44.4711137 C95.9315988,43.617529 95.1967524,42.8858849 94.3394315,42.8858849 C93.6045851,42.8858849 92.992213,43.3736476 92.8085014,44.0443213 L88.3994228,44.0443213 C87.8482879,43.1297663 86.8684927,42.5810333 85.7049858,42.5810333 L84.7864277,42.5810333 L84.7864277,42.2761816 C84.7864277,41.4835672 84.4802417,40.8128936 83.9903441,40.3251309 L83.9903441,33.6793644 C84.6639533,33.4964534 85.153851,32.88675 85.153851,32.155106 C85.153851,31.3015213 84.4190045,30.5698773 83.5616837,30.5698773 C82.7043628,30.5698773 81.9695164,31.3015213 81.9695164,32.155106 C81.9695164,32.88675 82.459414,33.4964534 83.1330232,33.6793644 L83.1330232,39.6544572 C82.7656,39.5325165 82.3981768,39.4105759 82.0307536,39.4105759 C81.9082792,39.4105759 81.7245676,39.4105759 81.6020932,39.4715462 L81.6020932,29.1065893 C82.2757024,28.9236782 82.7656,28.3139749 82.7656,27.5823309 C82.7656,26.7287462 82.0307536,25.9971022 81.1734327,25.9971022 C80.3161119,25.9971022 79.5812654,26.7287462 79.5812654,27.5823309 C79.5812654,28.3139749 80.0711631,28.9236782 80.7447723,29.1065893 L80.7447723,39.7763979 C80.4998235,39.8983385 80.2548747,40.0812495 80.0099259,40.3251309 C79.8262142,39.5934869 79.458791,39.0447538 79.152605,38.6789318 C78.4177586,37.8863175 77.3767261,37.4595251 76.2132192,37.4595251 C74.0699171,37.4595251 72.2940382,39.2276649 72.2940382,41.3616266 C72.2940382,41.8493893 72.3552754,42.2761816 72.538987,42.7639443 C71.2530057,43.1907366 70.3344477,44.349173 70.3344477,45.7514907 C70.2732105,47.3976897 71.6816662,48.8000074 73.3963079,48.8000074 Z M98.993459,46.178283 C99.3608822,46.178283 99.6670682,46.4831347 99.6670682,46.8489567 C99.6670682,47.2147787 99.3608822,47.5196304 98.993459,47.5196304 C98.6260358,47.5196304 98.3198498,47.2147787 98.3198498,46.8489567 C98.3198498,46.4831347 98.6260358,46.178283 98.993459,46.178283 Z M94.3394315,43.7394696 C94.7068547,43.7394696 95.0130408,44.0443213 95.0130408,44.4101433 C95.0130408,44.7759653 94.7068547,45.080817 94.3394315,45.080817 C93.9720083,45.080817 93.6658223,44.7759653 93.6658223,44.4101433 C93.6658223,44.0443213 93.9720083,43.7394696 94.3394315,43.7394696 Z M82.8880744,32.155106 C82.8880744,31.789284 83.1942604,31.4844323 83.5616837,31.4844323 C83.9291069,31.4844323 84.2352929,31.789284 84.2352929,32.155106 C84.2352929,32.520928 83.9291069,32.8257797 83.5616837,32.8257797 C83.1942604,32.8257797 82.8880744,32.520928 82.8880744,32.155106 Z M80.3773491,27.5213605 C80.3773491,27.1555385 80.6835351,26.8506869 81.0509583,26.8506869 C81.4183815,26.8506869 81.7245676,27.1555385 81.7245676,27.5213605 C81.7245676,27.8871826 81.4183815,28.1920342 81.0509583,28.1920342 C80.7447723,28.1920342 80.3773491,27.8871826 80.3773491,27.5213605 Z M73.151359,43.434618 C73.2738334,43.434618 73.4575451,43.3126773 73.5187823,43.1907366 C73.5800195,43.068796 73.5800195,42.8858849 73.5187823,42.7639443 C73.2738334,42.3371519 73.0901218,41.7884189 73.0901218,41.3006562 C73.0901218,39.6544572 74.4373403,38.3131098 76.0907448,38.3131098 C77.0093029,38.3131098 77.8053865,38.6179615 78.3565214,39.2276649 C78.9076562,39.8373682 79.152605,40.7519232 79.152605,41.7884189 C79.152605,41.9103596 79.0913678,42.0932706 79.0913678,42.2152113 C79.0913678,42.4590926 79.2750794,42.6420036 79.5200282,42.6420036 C79.764977,42.6420036 79.9486887,42.4590926 80.0099259,42.2152113 L80.0099259,41.8493893 C80.1936375,40.9348342 80.9897211,40.2641605 81.9082792,40.2641605 C82.9493116,40.2641605 83.8678697,41.1177452 83.8678697,42.2152113 C83.8678697,42.3981223 83.8066325,42.6420036 83.7453953,42.8249146 C83.6841581,42.9468553 83.7453953,43.1297663 83.8066325,43.251707 C83.8678697,43.3736476 84.0515813,43.434618 84.1740557,43.434618 L85.7049858,43.434618 C86.9297299,43.434618 87.9707623,44.4711137 87.9707623,45.6905204 C87.9707623,46.9099271 86.9297299,47.9464227 85.7049858,47.9464227 L73.3963079,47.9464227 C72.1715638,47.9464227 71.1305313,46.9099271 71.1305313,45.6905204 C71.1917685,44.4711137 72.0490894,43.4955883 73.151359,43.434618 Z" id="Shape" fill="#FFFFFF"></path>
                    </g>
                </g>
            </g>
        </g>
    </g>
</svg>