<?xml version="1.0" encoding="UTF-8"?>
<svg width="50px" height="52px" viewBox="0 0 50 52" version="1.1" xmlns="http://www.w3.org/2000/svg" xmlns:xlink="http://www.w3.org/1999/xlink">
    <!-- Generator: Sketch 42 (36781) - http://www.bohemiancoding.com/sketch -->
    <title>icon-people</title>
    <desc>Created with Sketch.</desc>
    <defs></defs>
    <g id="Desktop---1400px" stroke="none" stroke-width="1" fill="none" fill-rule="evenodd">
        <g id="digitalml---ignite-Fast-Track" transform="translate(-120.000000, -1837.000000)" fill="#00849D">
            <g id="How-We-Do-It" transform="translate(0.000000, 1660.000000)">
                <g id="icon-people" transform="translate(120.000000, 177.000000)">
                    <g id="Group">
                        <path d="M7.68041237,30.3861386 L7.98969072,30.3861386 C9.3814433,30.1815182 10.3608247,28.9537954 10.1546392,27.5726073 C10.1030928,27.009901 10.0515464,26.4471947 10.0515464,25.8844884 C10.0515464,21.7409241 12.1134021,17.8531353 15.5670103,15.4488449 C16.7010309,14.6815182 17.0103093,13.0957096 16.185567,11.970297 C15.4123711,10.8448845 13.814433,10.5379538 12.6804124,11.3564356 C7.93814433,14.6815182 5.05154639,20.1039604 5.05154639,25.8844884 C5.05154639,26.6518152 5.10309278,27.4191419 5.20618557,28.1864686 C5.36082474,29.4653465 6.44329897,30.3861386 7.68041237,30.3861386 Z" id="Shape"></path>
                        <ellipse id="Oval" cx="6.44329897" cy="39.0825083" rx="6.44329897" ry="6.39438944"></ellipse>
                        <path d="M34.1237113,15.5 C37.5773196,17.8531353 39.6391753,21.7409241 39.6391753,25.9356436 C39.6391753,26.4983498 39.5876289,27.0610561 39.5360825,27.6237624 C39.3298969,29.0049505 40.3092784,30.2326733 41.7010309,30.4372937 L42.0103093,30.4372937 C43.2474227,30.4372937 44.3298969,29.5165017 44.4845361,28.2376238 C44.5876289,27.470297 44.6391753,26.7029703 44.6391753,25.9356436 C44.6391753,20.1551155 41.7525773,14.7326733 36.9587629,11.4075908 C35.8247423,10.640264 34.2268041,10.8960396 33.4536082,12.0214521 C32.6804124,13.1468647 32.9896907,14.6815182 34.1237113,15.5 Z" id="Shape"></path>
                        <ellipse id="Oval" cx="43.2989691" cy="39.0825083" rx="6.44329897" ry="6.39438944"></ellipse>
                        <ellipse id="Oval" cx="24.8453608" cy="7.51980198" rx="7.57731959" ry="7.51980198"></ellipse>
                        <path d="M31.9587629,44.0445545 C31.3917526,44.4026403 30.7731959,44.709571 30.2061856,44.9653465 C28.5051546,45.6815182 26.7010309,46.0907591 24.8969072,46.1930693 C23.0927835,46.0907591 21.2886598,45.6815182 19.5876289,44.9653465 C18.9690722,44.709571 18.4020619,44.4026403 17.8350515,44.0445545 C16.6494845,43.3283828 15.1030928,43.7376238 14.3814433,44.9141914 C13.6597938,46.0907591 14.0721649,47.6254125 15.257732,48.3415842 C16.0309278,48.8019802 16.8041237,49.2112211 17.628866,49.5693069 C20,50.5924092 22.4742268,51.1039604 24.9484536,51.2062706 C27.4226804,51.1039604 29.9484536,50.5924092 32.2680412,49.5693069 C33.0927835,49.2112211 33.8659794,48.8019802 34.6391753,48.3415842 C35.8247423,47.6254125 36.2371134,46.0907591 35.5154639,44.9141914 C34.6907216,43.6864686 33.1443299,43.3283828 31.9587629,44.0445545 Z" id="Shape"></path>
                    </g>
                </g>
            </g>
        </g>
    </g>
</svg>