<?xml version="1.0" encoding="utf-8"?>
<!-- Generator: Adobe Illustrator 24.2.1, SVG Export Plug-In . SVG Version: 6.00 Build 0)  -->
<svg version="1.1" id="Layer_1" xmlns="http://www.w3.org/2000/svg" xmlns:xlink="http://www.w3.org/1999/xlink" x="0px" y="0px"
	 viewBox="0 0 537.46 99.18" style="enable-background:new 0 0 537.46 99.18;" xml:space="preserve">
<style type="text/css">
	.st0{fill:#717171;}
	.st1{fill:url(#SVGID_1_);}
</style>
<g id="Layer_1_1_">
	<g>
		<path class="st0" d="M162.39,28.41V1.23h10.78v75.51h-9.15v-6.81c-4.75,4.62-11.43,7.65-18.56,7.65
			c-15.43,0-27.84-12.5-27.84-27.84c0-15.43,12.4-27.84,27.84-27.84C151.92,21.94,157.95,24.44,162.39,28.41z M162.48,49.78
			c0-9.37-7.78-16.93-16.93-16.93c-9.37,0-16.93,7.56-16.93,16.93c0,9.28,7.56,16.84,16.93,16.84
			C154.73,66.59,162.48,59.06,162.48,49.78z"/>
		<path class="st0" d="M197.22,11.6c0,3.87-2.69,6.59-6.69,6.59c-3.44,0-6.59-2.69-6.59-6.59c0-3.44,3.12-6.59,6.59-6.59
			C194.53,5.01,197.22,8.14,197.22,11.6z M195.91,76.74h-10.78V22.82h10.78V76.74z"/>
		<path class="st0" d="M261.92,70.59c0,20.59-12.62,28.58-24.8,28.58c-4.53,0-10.03-1.09-15.31-4.62l4.22-8.97
			c3.56,2.06,6.69,3.12,10.47,3.12c8.97,0,15.09-6.15,15.09-18.03c-4.75,4.31-10.56,6.9-17.37,6.9c-15.43,0-27.84-12.5-27.84-27.84
			s12.4-27.84,27.84-27.84c7.12,0,13.59,2.81,18.43,7.56v-6.69h9.28V70.59z M251.24,49.78c0-9.37-7.65-17.03-16.93-17.03
			c-9.28,0-16.93,7.65-16.93,17.03c0,9.28,7.56,16.93,16.93,16.93C243.71,66.71,251.24,59.06,251.24,49.78z"/>
		<path class="st0" d="M286.07,11.6c0,3.87-2.69,6.59-6.69,6.59c-3.44,0-6.59-2.69-6.59-6.59c0-3.44,3.12-6.59,6.59-6.59
			C283.38,5.01,286.07,8.14,286.07,11.6z M284.79,76.74h-10.78V22.82h10.78V76.74z"/>
		<path class="st0" d="M324.59,76.74h-9.28c-11.31,0-18.99-7.34-18.99-19.31V5.67h10.78v17.15h17.68v9.5h-17.68v25.24
			c0,4.62,3.66,8.31,8.4,8.31h9.06v10.87H324.59z"/>
		<path class="st0" d="M386.48,76.74h-9.15v-6.81c-4.75,4.62-11.31,7.65-18.56,7.65c-15.43,0-27.84-12.5-27.84-27.93
			c0-15.21,12.4-27.71,27.84-27.71c7.22,0,13.68,2.91,18.43,7.65v-6.78h9.28L386.48,76.74L386.48,76.74z M375.92,49.65
			c0-9.28-7.56-16.93-17.03-16.93c-9.37,0-16.93,7.65-16.93,16.93c0,9.5,7.56,17.03,16.93,17.03
			C368.36,66.71,375.92,59.15,375.92,49.65z"/>
		<path class="st0" d="M417.97,76.74h-2.91c-11.12,0-17.37-5.28-17.37-18.34V1.23h10.78V58.4c0,5.06,2.91,7.44,6.69,7.44h2.81V76.74
			z"/>
		<path class="st0" d="M461.33,44.81c0-6.69-5.5-12.09-12.18-12.09s-12.09,5.4-12.09,12.09v31.93h-10.78V22.82h8.97v5.19
			c3.12-3.44,8.18-6.03,14.34-6.03c7.12,0,13.06,3.34,17.03,8.53c4.09-5.19,10.47-8.53,17.68-8.53c12.5,0,22.87,10.25,22.87,22.87
			v31.93h-10.9V44.81c0-6.69-5.4-12.09-12.09-12.09c-6.69,0-12.09,5.4-12.09,12.09v31.93H461.3V44.81H461.33z"/>
		<path class="st0" d="M537.46,76.74h-2.91c-11.12,0-17.37-5.28-17.37-18.34V1.23h10.78V58.4c0,5.06,2.91,7.44,6.69,7.44h2.81V76.74
			z"/>
	</g>
	
		<linearGradient id="SVGID_1_" gradientUnits="userSpaceOnUse" x1="44.7363" y1="28.4818" x2="44.7363" y2="115.9862" gradientTransform="matrix(1 0 0 -1 0 116)">
		<stop  offset="0" style="stop-color:#EC6607"/>
		<stop  offset="0.4554" style="stop-color:#EF8B27"/>
		<stop  offset="1" style="stop-color:#FBD324"/>
	</linearGradient>
	<path class="st1" d="M6.4,87.52L6.4,87.52c-3.53,0-6.4-2.87-6.4-6.4V17.54c0-3.53,2.87-6.4,6.4-6.4l0,0c3.53,0,6.4,2.87,6.4,6.4
		v63.54C12.81,84.61,9.93,87.52,6.4,87.52z M63.92,81.11V17.54c0-3.53-2.87-6.4-6.4-6.4l0,0c-3.53,0-6.4,2.87-6.4,6.4v63.54
		c0,3.53,2.87,6.4,6.4,6.4l0,0C61.04,87.52,63.92,84.61,63.92,81.11z M38.36,66.84V13.1c0-3.53-2.87-6.4-6.4-6.4l0,0
		c-3.53,0-6.4,2.87-6.4,6.4v53.73c0,3.53,2.87,6.4,6.4,6.4l0,0C35.49,73.24,38.36,70.37,38.36,66.84z M89.47,76.15V6.32
		c0-3.47-2.84-6.31-6.31-6.31h-0.22c-3.47,0-6.31,2.84-6.31,6.31v69.82c0,3.47,2.84,6.31,6.31,6.31h0.22
		C86.63,82.46,89.47,79.61,89.47,76.15z"/>
</g>
</svg>
