<?xml version="1.0" encoding="UTF-8"?>
<svg width="210px" height="34px" viewBox="0 0 210 34" version="1.1" xmlns="http://www.w3.org/2000/svg" xmlns:xlink="http://www.w3.org/1999/xlink">
    <title>element/brand/3rd/Forrester</title>
    <g id="element/brand/3rd/Forrester" stroke="none" stroke-width="1" fill="none" fill-rule="evenodd">
        <g id="Group-21" fill="#00563F">
            <path d="M206.512219,10.9730712 L205.795633,10.9730712 L205.795633,12.2578744 L206.512219,12.2578744 C206.93996,12.2578744 207.266685,12.0069116 207.266685,11.6138944 C207.265107,11.2587584 206.93996,10.9730712 206.512219,10.9730712 L206.512219,10.9730712 Z M207.298253,14.1156303 L206.408045,12.6493132 L205.795633,12.6493132 L205.795633,14.1156303 L205.402616,14.1156303 L205.402616,10.5784757 L206.546943,10.5784757 C207.157777,10.5784757 207.658124,11.0062173 207.658124,11.6154728 C207.658124,12.1521228 207.298253,12.4741127 206.834209,12.6161671 L207.763876,14.1172087 L207.298253,14.1172087 L207.298253,14.1156303 Z M206.441191,9.46887294 C204.83282,9.46887294 203.546438,10.8278601 203.546438,12.3983504 C203.546438,14.0067219 204.867544,15.3294062 206.441191,15.3294062 C208.011682,15.3294062 209.334366,13.9735759 209.334366,12.3983504 C209.334366,10.8278601 208.011682,9.46887294 206.441191,9.46887294 L206.441191,9.46887294 Z M206.441191,15.687699 C204.619738,15.687699 203.153421,14.2229603 203.153421,12.3999288 C203.153421,10.5784757 204.619738,9.11373694 206.441191,9.11373694 C208.261066,9.11373694 209.727383,10.5784757 209.727383,12.3999288 C209.692659,14.2229603 208.226342,15.687699 206.441191,15.687699 L206.441191,15.687699 Z" id="Fill-1"></path>
            <path d="M159.415029,9.22059341 C159.30612,9.22059341 159.268239,9.25689621 158.270702,9.29162062 C157.233704,9.32634503 155.338067,9.36264782 151.404739,9.36264782 L149.584864,9.36264782 L148.475261,9.36264782 L146.653808,9.36264782 C142.756782,9.36264782 140.831156,9.32634503 139.791002,9.29162062 C138.790308,9.25689621 138.757162,9.22059341 138.648253,9.22059341 C138.182631,9.22059341 138.182631,9.50785898 138.182631,10.4012233 L138.182631,13.8657724 C138.182631,14.0441296 138.182631,14.5097523 138.575648,14.5097523 C139.004968,14.5097523 139.075995,14.3661195 139.756278,12.972408 C140.184019,12.0080165 141.077384,10.6127266 146.227645,10.5432777 C146.75956,10.5780021 146.975798,10.6853321 146.975798,11.5076693 L146.975798,29.0908475 C146.975798,30.5555863 146.975798,31.591005 145.083318,31.6999134 C144.295705,31.7709406 143.759055,31.8025082 143.759055,32.3391582 C143.759055,32.912111 144.259402,32.912111 144.543511,32.912111 C145.261675,32.912111 148.331628,32.7700565 148.977187,32.7700565 C150.228844,32.7700565 152.192351,32.912111 153.445587,32.912111 C153.726539,32.912111 154.231621,32.912111 154.231621,32.3391582 C154.231621,31.7709406 153.694971,31.731481 152.907359,31.6999134 C151.011722,31.591005 151.011722,30.5540079 151.011722,29.0166636 L151.011722,11.7933565 C151.011722,10.7910838 151.122208,10.6127266 152.227076,10.5432777 C156.94486,10.6853321 157.800344,12.0080165 158.231242,12.9376836 C158.909946,14.3313951 158.982552,14.4734495 159.411872,14.4734495 C159.806467,14.4734495 159.806467,14.0094052 159.806467,13.8326263 L159.806467,10.3633422 C159.877495,9.50785898 159.877495,9.22059341 159.415029,9.22059341" id="Fill-3"></path>
            <path d="M118.568232,26.9103125 C118.20994,26.9103125 118.140491,27.0523669 117.460208,28.3750512 C115.782388,31.5902158 113.459009,31.5902158 111.77961,31.5902158 C108.596013,31.5902158 107.809979,31.1608958 107.809979,28.4792244 L107.809979,21.9747112 C107.809979,20.8319624 108.095666,20.8319624 109.918698,20.8319624 C113.026532,20.8319624 114.063529,20.8666868 114.884288,23.7977427 C115.062645,24.5127498 115.31203,24.6926854 115.597717,24.6926854 C116.066496,24.6926854 116.066496,24.1560354 116.066496,23.9429538 C116.066496,23.6525315 115.954431,22.3330039 115.954431,22.04416 C115.954431,21.2249796 116.208551,17.3311106 116.208551,16.7944606 C116.208551,16.3651407 116.031772,16.2578107 115.779231,16.2578107 C115.600874,16.2578107 115.383057,16.3288379 115.207856,16.829185 C114.525995,18.8321521 114.172438,19.6529109 109.989725,19.6529109 C107.811557,19.6529109 107.811557,19.3672237 107.811557,18.1487126 L107.811557,12.6859316 C107.811557,10.7918729 107.950455,10.5409102 109.846092,10.5409102 C115.206278,10.5409102 116.135945,11.9725029 116.565265,12.9716188 C117.245548,14.3653304 117.316575,14.5073848 117.744317,14.5073848 C118.137334,14.5073848 118.137334,14.0433404 118.137334,13.8634048 L118.137334,10.4004341 C118.137334,9.54337258 118.137334,9.21980422 117.671711,9.21980422 C117.564381,9.21980422 117.529657,9.25610702 116.528962,9.29083142 C115.493544,9.32555583 113.563182,9.36185863 109.667735,9.36185863 L107.844703,9.36185863 C104.629539,9.36185863 103.019589,9.32555583 102.160949,9.29083142 C101.34019,9.25610702 101.303887,9.21980422 101.231282,9.21980422 C100.981897,9.21980422 100.48155,9.21980422 100.48155,9.75645419 C100.48155,10.3278286 101.0182,10.3641314 101.840537,10.4004341 C103.733018,10.5077641 103.733018,11.5431829 103.733018,13.0821056 L103.733018,29.0553339 C103.733018,30.5926782 103.733018,31.6265186 101.840537,31.735427 C101.051346,31.8064542 100.48155,31.842757 100.48155,32.3794069 C100.48155,32.9492029 100.981897,32.9492029 101.267584,32.9492029 C101.518547,32.9492029 101.840537,32.9160569 102.448214,32.8765974 C103.055892,32.8402946 103.98398,32.8024134 105.557627,32.8024134 L106.021672,32.8024134 C106.236332,32.8024134 108.026217,32.8402946 110.166504,32.8765974 C112.346249,32.9113218 114.988461,32.9492029 116.918823,32.9492029 C118.030004,32.9492029 118.38514,32.5214613 118.419864,31.8048758 C118.528773,30.4111643 118.958093,27.982034 118.958093,27.4816868 C118.997552,27.2307241 118.890222,26.9103125 118.568232,26.9103125" id="Fill-5"></path>
            <path d="M180.283925,26.9103125 C179.924054,26.9103125 179.856184,27.0523669 179.174322,28.3750512 C177.494924,31.5902158 175.171545,31.5902158 173.490568,31.5902158 C170.310128,31.5902158 169.525672,31.1608958 169.525672,28.4792244 L169.525672,21.9747112 C169.525672,20.8319624 169.811359,20.8319624 171.632812,20.8319624 C174.740647,20.8319624 175.779222,20.8666868 176.598403,23.7977427 C176.775181,24.5127498 177.027723,24.6926854 177.311831,24.6926854 C177.777454,24.6926854 177.777454,24.1560354 177.777454,23.9429538 C177.777454,23.6525315 177.671703,22.3330039 177.671703,22.04416 C177.671703,21.2249796 177.919509,17.3311106 177.919509,16.7944606 C177.919509,16.3651407 177.745887,16.2578107 177.493345,16.2578107 C177.31341,16.2578107 177.101907,16.3288379 176.925128,16.829185 C176.243267,18.8321521 175.886552,19.6529109 171.703839,19.6529109 C169.52725,19.6529109 169.52725,19.3672237 169.52725,18.1487126 L169.52725,12.6859316 C169.52725,10.7918729 169.667726,10.5409102 171.563363,10.5409102 C176.923549,10.5409102 177.848481,11.9725029 178.27938,12.9716188 C178.961241,14.3653304 179.029111,14.5073848 179.46001,14.5073848 C179.853027,14.5073848 179.853027,14.0433404 179.853027,13.8634048 L179.853027,10.4004341 C179.853027,9.54337258 179.853027,9.21980422 179.388982,9.21980422 C179.280074,9.21980422 179.243771,9.25610702 178.241499,9.29083142 C177.209237,9.32555583 175.275718,9.36185863 171.381849,9.36185863 L169.558818,9.36185863 C166.342075,9.36185863 164.735282,9.32555583 163.875063,9.29083142 C163.052726,9.25610702 163.018002,9.21980422 162.950131,9.21980422 C162.696012,9.21980422 162.192508,9.21980422 162.192508,9.75645419 C162.192508,10.3278286 162.730736,10.3641314 163.551495,10.4004341 C165.445554,10.5077641 165.445554,11.5431829 165.445554,13.0821056 L165.445554,29.0553339 C165.445554,30.5926782 165.445554,31.6265186 163.551495,31.735427 C162.765461,31.8064542 162.192508,31.842757 162.192508,32.3794069 C162.192508,32.9492029 162.694433,32.9492029 162.978542,32.9492029 C163.231083,32.9492029 163.551495,32.9160569 164.160751,32.8765974 C164.765271,32.8418729 165.694938,32.8024134 167.268585,32.8024134 L167.738943,32.8024134 C167.952025,32.8024134 169.73244,32.8402946 171.882196,32.8765974 C174.061942,32.9113218 176.707311,32.9492029 178.636094,32.9492029 C179.74254,32.9492029 180.099254,32.5214613 180.135557,31.8048758 C180.242887,30.4111643 180.672207,27.982034 180.672207,27.4816868 C180.711667,27.2307241 180.605915,26.9103125 180.283925,26.9103125" id="Fill-7"></path>
            <path d="M130.467814,18.3310157 C127.394704,17.0493694 125.143931,16.0802427 125.143931,13.3638468 C125.143931,11.8643837 126.359285,9.6846378 129.361368,9.7193622 C132.576533,9.75408661 133.256815,11.8643837 133.722438,13.3638468 C134.113877,14.5444767 134.25751,14.7938611 134.650527,14.7938611 C135.187177,14.7938611 135.187177,14.4718712 135.187177,13.649534 C135.187177,10.2544338 135.187177,9.89929778 134.718397,9.648335 C134.184904,9.36106943 131.900985,8.75497065 129.684936,8.75497065 C124.787216,8.75497065 122.072399,11.8280809 122.072399,15.3999599 C122.072399,19.4769213 125.107628,21.0126872 128.253344,22.3716743 C131.039188,23.6548991 133.651411,25.1196378 133.651411,28.1232992 C133.651411,31.2342906 130.611447,32.3044338 129.006232,32.3044338 C126.255112,32.3044338 123.611321,29.9810551 122.894736,26.6206793 C122.825287,26.2623865 122.749525,25.8709477 122.430691,25.8709477 C121.96349,25.8709477 121.931923,26.4075977 121.931923,26.5464953 C121.894042,27.9433636 122.073977,29.5864596 122.148161,30.0852283 C122.252334,31.0480415 122.395967,31.8372326 122.826865,32.1229198 C123.502413,32.623267 125.434353,33.3714202 128.434858,33.3714202 C133.581962,33.3714202 136.727678,29.8026979 136.727678,25.512655 C136.685062,21.1547416 132.64756,19.2622613 130.467814,18.3310157" id="Fill-9"></path>
            <path d="M39.7723916,32.3391582 C34.6978926,32.3391582 31.053408,26.4470573 31.053408,20.2266528 C31.053408,14.7575583 34.4485082,9.82827058 39.12999,9.82827058 C45.1325777,9.82827058 47.8126707,16.2617566 47.8126707,20.83433 C47.8126707,26.3728733 45.0252477,32.3391582 39.7723916,32.3391582 M39.5593099,8.75497065 C32.1630107,8.75497065 26.5502835,14.0804324 26.5502835,21.0126872 C26.5502835,28.374262 32.7675311,33.374577 39.45198,33.374577 C45.9549148,33.374577 52.2812312,28.1217208 52.2812312,20.6559728 C52.3157953,14.0062484 46.7062248,8.75497065 39.5593099,8.75497065" id="Fill-11"></path>
            <path d="M24.1558776,0 C24.0848504,0 24.0485476,0.0710272011 22.5822305,0.107329993 C21.1537946,0.142054402 18.2953443,0.213081603 12.6131682,0.213081603 L11.4356951,0.213081603 C6.03920616,0.213081603 4.03781747,0.14047602 2.64410594,0.107329993 C1.28511883,0.0363027917 1.21409162,0 1.10834001,0 C0.715322835,0 0.00031567645,0 0.00031567645,0.75130995 C0.00031567645,1.50104152 0.822652827,1.5736471 1.96697996,1.68097709 C4.68179742,1.85933429 4.68179742,3.32407301 4.68179742,5.5748461 L4.68179742,20.2979957 L4.68179742,28.1962205 C4.68179742,30.0176736 4.68179742,31.2693307 2.35841875,31.4113851 C1.3940272,31.5187151 0.750047244,31.5534395 0.750047244,32.1974195 C0.750047244,32.8761238 1.35772441,32.8761238 1.7144388,32.8761238 C2.60938153,32.8761238 6.46694775,32.7009234 7.2529821,32.7009234 C8.79032641,32.7009234 11.2920623,32.8761238 12.8278282,32.8761238 C13.186121,32.8761238 13.7922198,32.8761238 13.7922198,32.1974195 C13.7922198,31.4824123 13.1498182,31.4445311 12.1491238,31.4113851 C9.82574517,31.2693307 9.82574517,30.0176736 9.82574517,28.1251933 L9.82574517,20.3311417 L9.82574517,19.7266213 C9.82574517,18.1876986 9.82574517,17.5468754 10.7191095,17.3306371 C11.2904839,17.1885827 13.8285225,17.1885827 15.4353157,17.1885827 C16.7943028,17.1885827 20.296733,17.1885827 21.0464646,20.1543629 C21.1537946,20.4416285 21.5120873,21.8337616 21.6525634,22.2283572 C21.7598933,22.5093092 21.9745533,23.1185648 22.5112033,23.0854188 C23.1536049,23.049116 23.1536049,22.4414388 23.1536049,22.0468432 L22.9389449,19.4756586 C22.8316149,18.2240014 22.8316149,17.2959127 22.8316149,16.7971439 C22.8316149,15.9732283 23.0115505,12.2561382 23.0115505,11.5064066 C23.0115505,10.9697566 22.8316149,10.6130422 22.3691489,10.5751611 C21.8672233,10.5404366 21.6178389,11.0029026 21.5120873,11.466947 C20.8318046,14.2906729 20.0441918,15.5060272 15.6152513,15.5060272 C14.7944925,15.5060272 11.5414467,15.5060272 10.7191095,15.401854 C10.0056807,15.294524 9.86362634,15.2234968 9.86362634,12.2940193 L9.86362634,4.64517895 C9.86362634,2.07241589 10.7932935,1.96666428 12.649471,1.96666428 C21.1553729,1.96666428 21.8703801,3.14571582 23.4771732,6.79020043 C23.6918332,7.25424481 23.9049148,7.89822477 24.5141704,7.89822477 C25.1218475,7.89822477 25.1218475,7.04116321 25.1218475,6.86122763 L25.1218475,1.00069435 C25.0855447,0.287265569 25.0160959,0 24.1558776,0" id="Fill-13"></path>
            <path d="M62.3554112,20.4056414 C60.4629309,20.4056414 60.4629309,20.3314574 60.4629309,19.0119298 L60.4629309,12.6510494 C60.4629309,11.1847323 60.4976553,10.2566435 62.2496596,10.2566435 C66.929563,10.2566435 67.466213,14.2941453 67.466213,15.6531324 C67.466213,20.4056414 63.7143984,20.4056414 62.3554112,20.4056414 M74.3637434,31.7684152 C73.2920218,31.6247824 72.7900963,30.6588125 72.0040619,29.3361281 L68.3232745,22.8379284 C67.466213,21.2627029 67.003747,21.0133185 66.5018214,20.726053 C67.7882029,20.4766686 71.6836503,19.5485798 71.6836503,15.1149041 C71.6836503,13.7937981 71.1106976,9.18492198 64.4294055,9.18492198 C63.2850784,9.18492198 58.283185,9.32697638 57.2461879,9.32697638 C56.7821435,9.32697638 54.9243876,9.18492198 54.5645165,9.18492198 C53.3144377,9.18492198 53.1708049,9.18492198 53.1708049,9.71999356 C53.1708049,10.2566435 53.7074549,10.2913679 54.5297921,10.3292491 C56.3859696,10.4350007 56.3859696,11.4719979 56.3859696,13.0109205 L56.3859696,29.0551761 C56.3859696,30.6256664 56.3859696,31.6263608 54.5297921,31.7731503 C53.7421793,31.8062963 53.1708049,31.8441775 53.1708049,32.3808275 C53.1708049,32.9506235 53.6727305,32.9174775 53.9584177,32.9174775 C54.637122,32.9174775 57.7102323,32.775423 58.3526339,32.775423 C58.4962666,32.775423 62.177054,32.9174775 62.8904828,32.9174775 C63.17617,32.9174775 63.6780956,32.9506235 63.6780956,32.4139735 C63.6780956,31.8457559 63.1414456,31.8078747 62.3191084,31.7747287 C60.4266281,31.6642419 60.4266281,30.6272448 60.4266281,29.0567545 L60.4266281,22.266554 C60.4266281,21.6241525 60.4976553,21.4094925 61.1416353,21.4094925 C62.8573368,21.4094925 63.0372724,21.5515469 63.8580311,23.1977996 L68.4306045,31.8078747 C68.8583461,32.5939091 69.0019789,32.9522019 69.6806832,32.9522019 L74.6478522,32.9522019 C74.8972366,32.9522019 75.2902538,32.8795963 75.2902538,32.4850007 C75.3644377,32.0556807 75.1481994,31.9104696 74.3637434,31.7684152" id="Fill-15"></path>
            <path d="M86.0849678,20.4056414 C84.1893307,20.4056414 84.1893307,20.3314574 84.1893307,19.0119298 L84.1893307,12.6510494 C84.1893307,11.1847323 84.2256335,10.2566435 85.9760594,10.2566435 C90.6559628,10.2566435 91.1957695,14.2941453 91.1957695,15.6531324 C91.1594667,20.4056414 87.4439549,20.4056414 86.0849678,20.4056414 M98.0917215,31.7684152 C97.0215784,31.6247824 96.5196528,30.6588125 95.7320401,29.3361281 L92.0512527,22.8379284 C91.1941911,21.2627029 90.7317251,21.0133185 90.231378,20.726053 C91.5161811,20.4766686 95.4116285,19.5485798 95.4116285,15.1149041 C95.4116285,13.7937981 94.8402541,9.18492198 88.1589621,9.18492198 C87.0130565,9.18492198 82.0127416,9.32697638 80.9741661,9.32697638 C80.5101217,9.32697638 78.6523658,9.18492198 78.294073,9.18492198 C77.0424159,9.18492198 76.8987831,9.18492198 76.8987831,9.71999356 C76.8987831,10.2566435 77.4354331,10.2913679 78.2577702,10.3292491 C80.1155261,10.4350007 80.1155261,11.4719979 80.1155261,13.0109205 L80.1155261,29.0551761 C80.1155261,30.6256664 80.1155261,31.6263608 78.2577702,31.7731503 C77.4701575,31.8062963 76.8987831,31.8441775 76.8987831,32.3808275 C76.8987831,32.9506235 77.4007087,32.9174775 77.6879742,32.9174775 C78.3666786,32.9174775 81.4382105,32.775423 82.080612,32.775423 C82.2242448,32.775423 85.9066106,32.9174775 86.6200394,32.9174775 C86.9088833,32.9174775 87.4060737,32.9506235 87.4060737,32.4139735 C87.4060737,31.8457559 86.8694238,31.8078747 86.048665,31.7747287 C84.1546063,31.6642419 84.1546063,30.6272448 84.1546063,29.0567545 L84.1546063,22.266554 C84.1546063,21.6241525 84.2272119,21.4094925 84.8680351,21.4094925 C86.585315,21.4094925 86.7636722,21.5515469 87.5844309,23.1977996 L92.1585827,31.8078747 C92.5863243,32.5939091 92.7283787,32.9522019 93.4086614,32.9522019 L98.374252,32.9522019 C98.6252147,32.9522019 99.0182319,32.8795963 99.0182319,32.4850007 C99.0576915,32.0556807 98.8793343,31.9104696 98.0917215,31.7684152" id="Fill-17"></path>
            <path d="M192.004676,20.4056414 C190.113774,20.4056414 190.113774,20.3314574 190.113774,19.0119298 L190.113774,12.6510494 C190.113774,11.1847323 190.14692,10.2566435 191.897346,10.2566435 C196.580406,10.2566435 197.115478,14.2941453 197.115478,15.6531324 C197.113899,20.4056414 193.360506,20.4056414 192.004676,20.4056414 M204.009851,31.7684152 C202.939708,31.6247824 202.437783,30.6588125 201.651748,29.3361281 L198.007264,22.8710744 C197.148624,21.2974273 196.684579,21.0496213 196.185811,20.7623558 C197.470614,20.5082362 201.369218,19.5817258 201.369218,15.1512069 C201.369218,13.8301009 200.794687,9.21964639 194.111816,9.21964639 C192.965911,9.21964639 187.964018,9.36327917 186.928599,9.36327917 C186.462976,9.36327917 184.60522,9.21964639 184.250084,9.21964639 C182.998427,9.21964639 182.854794,9.21964639 182.854794,9.75629635 C182.854794,10.2913679 183.391444,10.3276707 184.212203,10.3639735 C186.06838,10.4697251 186.06838,11.5083006 186.06838,13.0440666 L186.06838,29.0899005 C186.06838,30.6588125 186.06838,31.6610852 184.212203,31.8031396 C183.42459,31.8425991 182.854794,31.8773236 182.854794,32.4123951 C182.854794,32.9837695 183.353563,32.9506235 183.640829,32.9506235 C184.321111,32.9506235 187.392643,32.8038339 188.033466,32.8038339 C188.178678,32.8038339 191.859465,32.9506235 192.572894,32.9506235 C192.861738,32.9506235 193.358928,32.9837695 193.358928,32.4518547 C193.358928,31.8789019 192.827013,31.8441775 192.001519,31.804718 C190.112196,31.7005447 190.112196,30.6603908 190.112196,29.0914789 L190.112196,22.3028568 C190.112196,21.6557201 190.180066,21.4426385 190.824046,21.4426385 C192.541326,21.4426385 192.718105,21.5878497 193.54202,23.2309456 L198.113015,31.8441775 C198.542335,32.6302119 198.68439,32.9853479 199.363094,32.9853479 L204.331841,32.9853479 C204.581226,32.9853479 204.974243,32.9143207 204.974243,32.5197251 C205.012124,32.0556807 204.832189,31.9104696 204.009851,31.7684152" id="Fill-19"></path>
        </g>
    </g>
</svg>