<?xml version="1.0" encoding="UTF-8"?>
<svg width="210px" height="42px" viewBox="0 0 210 42" version="1.1" xmlns="http://www.w3.org/2000/svg" xmlns:xlink="http://www.w3.org/1999/xlink">
    <title>element/brand/3rd/IDC</title>
    <defs>
        <polygon id="path-1" points="0 0.9033 62.5468818 0.9033 62.5468818 4.1678 0 4.1678"></polygon>
        <polygon id="path-3" points="0 0.8382 62.4028818 0.8382 62.4028818 4.7282 0 4.7282"></polygon>
        <polygon id="path-5" points="0 0.696286553 62.4899 0.696286553 62.4899 5.7981 0 5.7981"></polygon>
    </defs>
    <g id="element/brand/3rd/IDC" stroke="none" stroke-width="1" fill="none" fill-rule="evenodd">
        <g id="Group-60">
            <path d="M165.0996,38.1214 L165.0996,3.0914 L165.0996,38.1214 Z" id="Fill-1" fill="#111845"></path>
            <g id="Group-59" transform="translate(0.000000, 0.303800)">
                <path d="M164.7998,2.7979 L164.7998,37.7979 C164.7948,37.9639 164.9238,38.1019 165.0898,38.1079 L165.0998,38.1079 C165.2718,38.1079 165.4098,37.9689 165.4098,37.7979 L165.4098,2.7979 C165.4038,2.6309 165.2678,2.4979 165.0998,2.4979 C164.9348,2.4979 164.7998,2.6319 164.7998,2.7979" id="Fill-2" fill="#111845"></path>
                <path d="M75.5898,6.5079 C75.5398,2.8979 71.5898,3.8879 71.5898,2.7979 C71.5898,2.3479 71.6898,2.2479 72.0798,2.2479 C73.9098,2.2479 75.6998,2.4479 77.5298,2.4479 C79.0598,2.4479 80.5998,2.2479 82.1398,2.2479 C82.9298,2.2479 83.0798,2.3479 83.0798,2.7479 C83.0798,3.9379 79.5098,2.7479 79.5098,6.5079 L79.5098,33.1079 C79.5098,36.4679 83.9198,35.3389 83.9198,36.8179 C83.9198,37.1679 83.7698,37.3179 82.9198,37.3179 C81.7798,37.3179 79.6498,37.1179 77.5198,37.1179 C74.5198,37.1179 73.4598,37.3179 72.7598,37.3179 C71.8698,37.3179 71.7598,37.0679 71.7598,36.5679 C71.7598,35.1379 75.6298,36.7679 75.6298,31.8679 L75.5898,6.5079 Z" id="Fill-4" fill="#111845"></path>
                <path d="M94.29,30.148 C94.29,30.938 94.14,33.318 94.6,33.758 C96.23,35.398 100,35.988 102.23,35.988 C109.23,35.988 115.95,32.228 115.95,20.788 C115.95,9.788 108.62,3.558 99.21,3.508 C94.51,3.508 94.3,4.298 94.3,6.628 L94.29,30.148 Z M90.38,7.548 C90.38,2.548 86.32,4.078 86.32,2.748 C86.32,2.398 86.72,2.248 87.01,2.248 C88.54,2.248 90.01,2.448 91.47,2.448 C94.74,2.448 97.96,2.248 102.22,2.248 C110.98,2.248 119.6,8.888 119.6,18.048 C119.6,29.438 114.2,37.308 100.48,37.308 C97.96,37.308 95.43,37.118 92.91,37.118 C92.46,37.118 87.71,37.308 87.36,37.308 C87.01,37.308 86.87,37.118 86.87,36.818 C86.87,35.678 90.38,36.918 90.38,32.208 L90.38,7.548 Z" id="Fill-6" fill="#111845"></path>
                <path d="M140.8096,1.8082 C150.1206,1.8082 152.7006,5.6182 154.1296,5.6182 C154.5306,5.6182 154.8306,5.1282 155.3206,5.1282 C155.8096,5.1282 155.8706,5.9182 156.0096,9.1282 C156.1106,11.7582 156.5596,13.3882 155.7096,13.3882 C155.1106,13.3882 154.7706,12.1082 154.5706,11.7582 C151.5096,6.4582 147.9806,3.2382 141.5706,3.2382 C131.9106,3.2382 127.2496,9.6782 127.2496,18.8882 C127.2496,27.5082 132.2496,36.1182 141.7096,36.1182 C149.4906,36.1182 154.3396,31.1182 155.0896,28.8882 C155.1646,28.5522 155.4396,28.2972 155.7806,28.2472 C156.0526,28.2802 156.2486,28.5252 156.2196,28.7982 L155.1696,33.7282 C155.1206,33.9172 151.5996,37.6382 140.4596,37.6382 C130.2996,37.6382 123.0196,30.6382 123.0196,20.3982 C123.0196,10.1582 130.3606,1.8082 140.8096,1.8082" id="Fill-8" fill="#111845"></path>
                <path d="M62.0298,8.128 L15.5498,8.128 C14.9678,8.838 14.4408,9.59 13.9698,10.378 L0.4398,10.378 C0.1948,10.415 0.0248,10.644 0.0618,10.89 C0.0918,11.086 0.2448,11.239 0.4398,11.268 L49.0198,11.268 C48.5998,10.488 48.1288,9.736 47.6098,9.018 L62.0398,9.018 C62.2858,8.981 62.4548,8.752 62.4178,8.506 C62.3888,8.311 62.2358,8.157 62.0398,8.128 L62.0298,8.128 Z" id="Fill-10" fill="#111845"></path>
                <g id="Group-14" transform="translate(0.000000, 13.000000)">
                    <mask id="mask-2" fill="white">
                        <use xlink:href="#path-1"></use>
                    </mask>
                    <g id="Clip-13"></g>
                    <path d="M62.0298,0.9078 L12.2598,0.9078 C11.9718,1.6838 11.7378,2.4798 11.5598,3.2878 L0.4398,3.2878 C0.1968,3.2878 -0.0002,3.4848 -0.0002,3.7278 C-0.0002,3.9708 0.1968,4.1678 0.4398,4.1678 L51.0898,4.1678 C50.9468,3.3668 50.7528,2.5748 50.5098,1.7978 L62.0298,1.7978 C62.2758,1.8348 62.5048,1.6658 62.5418,1.4198 C62.5788,1.1748 62.4098,0.9448 62.1638,0.9078 C62.1198,0.9018 62.0738,0.9018 62.0298,0.9078" id="Fill-12" fill="#111845" mask="url(#mask-2)"></path>
                </g>
                <path d="M62.0298,19.3082 L11.1098,19.3082 C11.1098,19.8082 11.0598,20.3082 11.0598,20.8182 L11.0598,22.0582 L0.4398,22.0582 C0.1948,22.0952 0.0248,22.3242 0.0618,22.5702 C0.0918,22.7652 0.2448,22.9182 0.4398,22.9482 L51.3098,22.9482 C51.3798,22.2382 51.4198,21.5182 51.4198,20.8082 L51.4198,20.1982 L62.0498,20.1982 C62.2958,20.1612 62.4648,19.9322 62.4278,19.6862 C62.3988,19.4912 62.2458,19.3372 62.0498,19.3082 L62.0298,19.3082 Z" id="Fill-15" fill="#111845"></path>
                <g id="Group-19" transform="translate(0.000000, 24.000000)">
                    <mask id="mask-4" fill="white">
                        <use xlink:href="#path-3"></use>
                    </mask>
                    <g id="Clip-18"></g>
                    <path d="M62.0298,0.8482 L11.4598,0.8482 C11.6668,1.8692 11.9548,2.8722 12.3198,3.8482 L0.4398,3.8482 C0.1968,3.8482 -0.0002,4.0452 -0.0002,4.2872 C-0.0002,4.5312 0.1968,4.7282 0.4398,4.7282 L49.8098,4.7282 C50.2218,3.7562 50.5558,2.7522 50.8098,1.7282 L62.0198,1.7282 C62.2658,1.6912 62.4348,1.4612 62.3978,1.2162 C62.3688,1.0212 62.2158,0.8682 62.0198,0.8382 L62.0298,0.8482 Z" id="Fill-17" fill="#111845" mask="url(#mask-4)"></path>
                </g>
                <path d="M62.0298,30.3785 L13.4598,30.3785 C14.0798,31.5375 14.8138,32.6335 15.6498,33.6485 L0.4398,33.6485 C0.1968,33.6495 0.0008,33.8465 0.0008,34.0895 C0.0018,34.3315 0.1978,34.5265 0.4398,34.5275 L46.0598,34.5275 C46.9798,33.5285 47.7978,32.4405 48.4998,31.2775 L62.0298,31.2775 C62.2758,31.2405 62.4448,31.0125 62.4078,30.7665 C62.3788,30.5705 62.2258,30.4175 62.0298,30.3885 L62.0298,30.3785 Z" id="Fill-20" fill="#111845"></path>
                <path d="M62.0298,35.9078 L17.8398,35.9078 C25.0928,42.3498 35.9038,42.7198 43.5798,36.7878 L62.0398,36.7878 C62.2858,36.7518 62.4548,36.5218 62.4178,36.2758 C62.3888,36.0808 62.2358,35.9278 62.0398,35.8978 L62.0298,35.9078 Z" id="Fill-22" fill="#111845"></path>
                <g id="Group-26">
                    <mask id="mask-6" fill="white">
                        <use xlink:href="#path-5"></use>
                    </mask>
                    <g id="Clip-25"></g>
                    <path d="M0.4399,5.7281 L44.6399,5.7281 C43.7809,4.9861 42.8609,4.3161 41.8899,3.7281 L62.0399,3.7281 C62.2849,3.7281 62.4839,3.5331 62.4899,3.2881 C62.4899,3.0451 62.2929,2.8481 62.0499,2.8481 C62.0469,2.8481 62.0439,2.8481 62.0399,2.8481 L40.2999,2.8481 C33.3649,-0.6409 25.0429,0.1601 18.8999,4.9081 L0.4399,4.9081 C0.1969,4.9081 -0.0001,5.1051 -0.0001,5.3481 C-0.0001,5.5931 0.1949,5.7921 0.4399,5.7981 L0.4399,5.7281 Z" id="Fill-24" fill="#111845" mask="url(#mask-6)"></path>
                </g>
                <path d="M174.8301,12.6182 L177.3001,12.6182 L176.0701,9.3882 L174.8301,12.6182 Z M177.5591,13.4282 L174.5591,13.4282 L174.0701,14.7282 L173.0701,14.7282 L175.5001,8.6182 L176.6501,8.6182 L179.0591,14.7282 L178.0591,14.7282 L177.5591,13.4282 Z" id="Fill-27" fill="#111845"></path>
                <polygon id="Fill-29" fill="#111845" points="180.4902 10.0079 180.4902 14.7279 179.5702 14.7279 179.5702 8.5879 180.5102 8.5879 183.8402 13.1679 183.8402 8.5879 184.7602 8.5879 184.7602 14.7279 183.8702 14.7279"></polygon>
                <path d="M187.0303,12.6182 L189.4903,12.6182 L188.2693,9.3882 L187.0303,12.6182 Z M189.7593,13.4282 L186.7593,13.4282 L186.2693,14.7282 L185.2693,14.7282 L187.7003,8.6182 L188.8403,8.6182 L191.2593,14.7282 L190.2593,14.7282 L189.7593,13.4282 Z" id="Fill-31" fill="#111845"></path>
                <polygon id="Fill-33" fill="#111845" points="191.7695 8.5879 192.6905 8.5879 192.6905 13.8879 195.4595 13.8879 195.4595 14.7279 191.7695 14.7279"></polygon>
                <polygon id="Fill-35" fill="#111845" points="196.9502 12.1382 194.5592 8.5882 195.6102 8.5882 197.4102 11.3182 199.1702 8.5882 200.2402 8.5882 197.8602 12.1382 197.8602 14.7282 196.9402 14.7282"></polygon>
                <polygon id="Fill-37" fill="#111845" points="200.6299 13.9478 203.9099 9.3878 200.6299 9.3878 200.6299 8.5878 205.0899 8.5878 205.0899 9.3378 201.8099 13.8878 205.1699 13.8878 205.1699 14.7278 200.6399 14.7278"></polygon>
                <polygon id="Fill-39" fill="#111845" points="205.8896 8.5879 209.9996 8.5879 209.9996 9.3879 206.8096 9.3879 206.8096 11.1779 209.9296 11.1779 209.9296 11.9879 206.8096 11.9879 206.8096 13.8879 209.9996 13.8879 209.9996 14.7279 205.8896 14.7279"></polygon>
                <polygon id="Fill-41" fill="#111845" points="175.1699 17.3282 173.2699 17.3282 173.2699 16.5282 177.9699 16.5282 177.9699 17.3282 176.0799 17.3282 176.0799 22.6382 175.1699 22.6382"></polygon>
                <polygon id="Fill-43" fill="#111845" points="182.9004 19.9078 179.5094 19.9078 179.5094 22.6378 178.5994 22.6378 178.5994 16.5278 179.5094 16.5278 179.5094 19.0878 182.8894 19.0878 182.8894 16.5278 183.8094 16.5278 183.8094 22.6378 182.8894 22.6378"></polygon>
                <polygon id="Fill-45" fill="#111845" points="185.0098 16.5279 189.0998 16.5279 189.0998 17.3279 185.9298 17.3279 185.9298 19.1179 189.0498 19.1179 189.0498 19.9279 185.9298 19.9279 185.9298 21.8279 189.0998 21.8279 189.0998 22.6379 185.0098 22.6379"></polygon>
                <polygon id="Fill-47" fill="#111845" points="173.6904 24.4683 177.7994 24.4683 177.7994 25.2683 174.6104 25.2683 174.6104 27.0583 177.7294 27.0583 177.7294 27.8673 174.6104 27.8673 174.6104 30.5773 173.6904 30.5773"></polygon>
                <path d="M178.4805,24.4683 L179.3895,24.4683 L179.3895,28.1483 C179.3195,29.0563 179.9985,29.8503 180.9065,29.9213 C181.8155,29.9913 182.6095,29.3133 182.6795,28.4053 C182.6865,28.3193 182.6865,28.2333 182.6795,28.1483 L182.6795,24.4683 L183.5995,24.4683 L183.5995,28.1783 C183.5995,29.5973 182.4495,30.7473 181.0305,30.7473 C179.6105,30.7473 178.4595,29.5973 178.4595,28.1783 L178.4805,24.4683 Z" id="Fill-49" fill="#111845"></path>
                <polygon id="Fill-51" fill="#111845" points="186.1699 25.2681 184.2799 25.2681 184.2799 24.4681 188.9809 24.4681 188.9809 25.2681 187.0899 25.2681 187.0899 30.5781 186.1699 30.5781"></polygon>
                <path d="M189.5498,24.4683 L190.4698,24.4683 L190.4698,28.1483 C190.3998,29.0563 191.0778,29.8503 191.9868,29.9213 C192.8958,29.9913 193.6898,29.3133 193.7598,28.4053 C193.7668,28.3193 193.7668,28.2333 193.7598,28.1483 L193.7598,24.4683 L194.6698,24.4683 L194.6698,28.1783 C194.6698,29.5973 193.5198,30.7473 192.0998,30.7473 C190.6808,30.7473 189.5298,29.5973 189.5298,28.1783 L189.5498,24.4683 Z" id="Fill-53" fill="#111845"></path>
                <path d="M198.3096,25.2681 L196.7806,25.2681 L196.7806,27.4081 L198.3096,27.4081 C198.8916,27.4751 199.4166,27.0581 199.4846,26.4761 C199.4876,26.4541 199.4896,26.4311 199.4906,26.4081 C199.5546,25.8181 199.1296,25.2861 198.5396,25.2181 L198.3096,25.2681 Z M197.9196,28.2181 L196.7696,28.2181 L196.7696,30.5781 L195.8606,30.5781 L195.8606,24.4681 L198.4296,24.4681 C199.4296,24.3681 200.3226,25.0971 200.4216,26.0971 C200.4306,26.1811 200.4336,26.2641 200.4296,26.3481 C200.4776,27.2561 199.8046,28.0431 198.9006,28.1381 L200.4696,30.5781 L199.4006,30.5781 L197.9196,28.2181 Z" id="Fill-55" fill="#111845"></path>
                <polygon id="Fill-57" fill="#111845" points="201.2998 24.4683 205.4008 24.4683 205.4008 25.2683 202.1698 25.2683 202.1698 27.0583 205.2998 27.0583 205.2998 27.8673 202.1698 27.8673 202.1698 29.7283 205.3608 29.7283 205.3608 30.5373 201.2598 30.5373"></polygon>
            </g>
        </g>
    </g>
</svg>