<svg height="318" viewBox="0 0 1722 318" width="1722" xmlns="http://www.w3.org/2000/svg" xmlns:xlink="http://www.w3.org/1999/xlink"><linearGradient id="a" x1="50%" x2="50%" y1="100%" y2="0%"><stop offset="0" stop-color="#ea5b0c"/><stop offset=".4554" stop-color="#ee8123"/><stop offset="1" stop-color="#fcce21"/></linearGradient><g fill="none" fill-rule="nonzero"><g fill="#fff" transform="translate(376.2 3.8)"><path d="m143.6 87.1v-87h34.5v241.7h-29.3v-21.8c-15.2 14.8-36.6 24.5-59.4 24.5-49.4 0-89.1-40-89.1-89.1 0-49.4 39.7-89.1 89.1-89.1 20.7.1 40 8.1 54.2 20.8zm.3 68.4c0-30-24.9-54.2-54.2-54.2-30 0-54.2 24.2-54.2 54.2 0 29.7 24.2 53.9 54.2 53.9 29.4-.1 54.2-24.2 54.2-53.9z"/><path d="m255.1 33.3c0 12.4-8.6 21.1-21.4 21.1-11 0-21.1-8.6-21.1-21.1 0-11 10-21.1 21.1-21.1 12.8 0 21.4 10 21.4 21.1zm-4.2 208.5h-34.5v-172.6h34.5z"/><path d="m462.2 222.1c0 65.9-40.4 91.5-79.4 91.5-14.5 0-32.1-3.5-49-14.8l13.5-28.7c11.4 6.6 21.4 10 33.5 10 28.7 0 48.3-19.7 48.3-57.7-15.2 13.8-33.8 22.1-55.6 22.1-49.4 0-89.1-40-89.1-89.1s39.7-89.1 89.1-89.1c22.8 0 43.5 9 59 24.2v-21.4h29.7zm-34.2-66.6c0-30-24.5-54.5-54.2-54.5s-54.2 24.5-54.2 54.5c0 29.7 24.2 54.2 54.2 54.2 30.1 0 54.2-24.5 54.2-54.2z"/><path d="m539.5 33.3c0 12.4-8.6 21.1-21.4 21.1-11 0-21.1-8.6-21.1-21.1 0-11 10-21.1 21.1-21.1 12.8 0 21.4 10 21.4 21.1zm-4.1 208.5h-34.5v-172.6h34.5z"/><path d="m662.8 241.8h-29.7c-36.2 0-60.8-23.5-60.8-61.8v-165.7h34.5v54.9h56.6v30.4h-56.6v80.8c0 14.8 11.7 26.6 26.9 26.6h29z"/><path d="m860.9 241.8h-29.3v-21.8c-15.2 14.8-36.2 24.5-59.4 24.5-49.4 0-89.1-40-89.1-89.4 0-48.7 39.7-88.7 89.1-88.7 23.1 0 43.8 9.3 59 24.5v-21.7h29.7zm-33.8-86.7c0-29.7-24.2-54.2-54.5-54.2-30 0-54.2 24.5-54.2 54.2 0 30.4 24.2 54.500309 54.2 54.500309 30.3.099691 54.5-24.100309 54.5-54.500309z"/><path d="m961.7 241.8h-9.3c-35.6 0-55.6-16.9-55.6-58.7v-183h34.5v183c0 16.2 9.3 23.8 21.4 23.8h9z"/><path d="m1100.5 139.6c0-21.4-17.6-38.7-39-38.7s-38.7 17.3-38.7 38.7v102.2h-34.5v-172.6h28.7v16.6c10-11 26.2-19.3 45.9-19.3 22.8 0 41.8 10.7 54.5 27.3 13.1-16.6 33.5-27.3 56.6-27.3 40 0 73.2 32.8 73.2 73.2v102.2h-34.9v-102.3c0-21.4-17.3-38.7-38.7-38.7s-38.7 17.3-38.7 38.7v102.2h-34.5z"/><path d="m1344.2 241.8h-9.3c-35.6 0-55.6-16.9-55.6-58.7v-183h34.5v183c0 16.2 9.3 23.8 21.4 23.8h9z"/></g><path d="m20.5 280.1c-11.3 0-20.5-9.2-20.5-20.5v-203.5c0-11.3 9.2-20.5 20.5-20.5 11.3 0 20.5 9.2 20.5 20.5v203.4c0 11.3-9.2 20.6-20.5 20.6zm184.1-20.5v-203.5c0-11.3-9.2-20.5-20.5-20.5-11.3 0-20.5 9.2-20.5 20.5v203.4c0 11.3 9.2 20.500799 20.5 20.500799 11.3.099201 20.5-9.200799 20.5-20.400799zm-81.8-45.7v-172c0-11.3-9.2-20.5-20.5-20.5-11.3 0-20.5 9.2-20.5 20.5v172c0 11.3 9.2 20.5 20.5 20.5 11.3 0 20.5-9.2 20.5-20.5zm163.6 29.8v-223.5c0-11.1-9.1-20.2-20.2-20.2h-.7c-11.1 0-20.2 9.1-20.2 20.2v223.5c0 11.1 9.1 20.2 20.2 20.2h.7c11.1 0 20.2-9.1 20.2-20.2z" fill="url(#a)"/></g></svg>