<?xml version="1.0" encoding="utf-8"?>
<!-- Generator: Adobe Illustrator 24.2.1, SVG Export Plug-In . SVG Version: 6.00 Build 0)  -->
<svg version="1.1" id="Layer_1" xmlns="http://www.w3.org/2000/svg" xmlns:xlink="http://www.w3.org/1999/xlink" x="0px" y="0px"
	 viewBox="0 0 144 144" style="enable-background:new 0 0 144 144;" xml:space="preserve">
<style type="text/css">
	.st0{fill:none;stroke:#161C44;stroke-width:3;stroke-linecap:round;stroke-linejoin:round;stroke-miterlimit:10;}
</style>
<g>
	<line class="st0" x1="72.2" y1="5.3" x2="72.2" y2="72.5"/>
	<polyline class="st0" points="79.7,65 72.2,72.5 64.7,65 	"/>
</g>
<g>
	<line class="st0" x1="123.2" y1="124.2" x2="75.6" y2="76.7"/>
	<polyline class="st0" points="75.6,87.3 75.6,76.7 86.2,76.7 	"/>
</g>
<g>
	<line class="st0" x1="21.2" y1="124.2" x2="68.8" y2="76.7"/>
	<polyline class="st0" points="68.8,87.3 68.8,76.7 58.2,76.7 	"/>
</g>
<path class="st0" d="M28.1,110.7c-7.5-9.6-12-21.6-12-34.7c0-29.4,22.6-53.5,51.4-55.9"/>
<path class="st0" d="M76.8,20.1c28.8,2.4,51.5,26.5,51.5,55.9c0,13.1-4.5,25.2-12.1,34.7"/>
<path class="st0" d="M109.9,117.5c-10,9-23.2,14.5-37.7,14.5c-14.5,0-27.7-5.5-37.7-14.6"/>
</svg>
