<?xml version="1.0" encoding="utf-8"?>
<!-- Generator: Adobe Illustrator 24.2.1, SVG Export Plug-In . SVG Version: 6.00 Build 0)  -->
<svg version="1.1" id="Layer_1" xmlns="http://www.w3.org/2000/svg" xmlns:xlink="http://www.w3.org/1999/xlink" x="0px" y="0px"
	 viewBox="0 0 144 144" style="enable-background:new 0 0 144 144;" xml:space="preserve">
<style type="text/css">
	.st0{fill:none;stroke:#161C44;stroke-width:3;stroke-linecap:round;stroke-linejoin:round;stroke-miterlimit:10;}
</style>
<path class="st0" d="M115.8,74.6c0,0.1,0.1,0.1,0.1,0.1c15.5,22.6,20.9,43.6,11.9,52.6c-12.4,12.4-47.4-2.6-78.2-33.3
	S3.8,28.2,16.2,15.8s47.4,2.6,78.2,33.3c6.4,6.4,12.1,12.9,17,19.4"/>
<path class="st0" d="M32.7,68.5c4.9-6.5,10.6-13,16.9-19.3c6.3-6.3,12.9-12,19.3-16.9"/>
<path class="st0" d="M68.9,115.4c-22.6,15.5-43.6,21-52.7,12c-9-9-3.6-30,11.9-52.6"/>
<path class="st0" d="M75.1,27.8c22.7-15.5,43.7-21,52.7-12c12.4,12.4-2.6,47.4-33.3,78.2c-6.4,6.4-13,12.1-19.5,17.1"/>
</svg>
