<?xml version="1.0" encoding="utf-8"?>
<!-- Generator: Adobe Illustrator 24.2.1, SVG Export Plug-In . SVG Version: 6.00 Build 0)  -->
<svg version="1.1" id="Layer_1" xmlns="http://www.w3.org/2000/svg" xmlns:xlink="http://www.w3.org/1999/xlink" x="0px" y="0px"
	 viewBox="0 0 144 144" style="enable-background:new 0 0 144 144;" xml:space="preserve">
<style type="text/css">
	.st0{fill:none;stroke:#161C44;stroke-width:3;stroke-linecap:round;stroke-linejoin:round;stroke-miterlimit:10;}
</style>
<rect x="12.2" y="12.3" class="st0" width="11.8" height="11.8"/>
<rect x="66.9" y="12.3" class="st0" width="11.8" height="11.8"/>
<rect x="66.9" y="120.1" class="st0" width="11.8" height="11.8"/>
<rect x="120" y="12.3" class="st0" width="11.8" height="11.8"/>
<g>
	<rect x="12.2" y="120.1" class="st0" width="11.8" height="11.8"/>
	<rect x="120" y="120.1" class="st0" width="11.8" height="11.8"/>
</g>
<g>
	<rect x="12.2" y="66.1" class="st0" width="11.8" height="11.8"/>
	<rect x="120" y="66.1" class="st0" width="11.8" height="11.8"/>
</g>
<rect x="66.9" y="66.1" class="st0" width="11.8" height="11.8"/>
<line class="st0" x1="18.1" y1="62.2" x2="18.1" y2="28"/>
<line class="st0" x1="18.1" y1="116.2" x2="18.1" y2="81.8"/>
<line class="st0" x1="63" y1="126" x2="27.9" y2="126"/>
<line class="st0" x1="116.2" y1="126" x2="82.6" y2="126"/>
<line class="st0" x1="125.9" y1="81.8" x2="125.9" y2="116.2"/>
<line class="st0" x1="125.9" y1="28" x2="125.9" y2="62.2"/>
<line class="st0" x1="82.6" y1="18.2" x2="116.1" y2="18.2"/>
<line class="st0" x1="27.9" y1="18.2" x2="63" y2="18.2"/>
<line class="st0" x1="72.8" y1="28" x2="72.8" y2="62.2"/>
<line class="st0" x1="72.8" y1="81.8" x2="72.8" y2="116.2"/>
<line class="st0" x1="63" y1="72" x2="27.9" y2="72"/>
<line class="st0" x1="116.1" y1="72" x2="82.7" y2="72"/>
</svg>
