<?xml version="1.0" encoding="utf-8"?>
<!-- Generator: Adobe Illustrator 24.2.1, SVG Export Plug-In . SVG Version: 6.00 Build 0)  -->
<svg version="1.1" id="Layer_1" xmlns="http://www.w3.org/2000/svg" xmlns:xlink="http://www.w3.org/1999/xlink" x="0px" y="0px"
	 viewBox="0 0 144 144" style="enable-background:new 0 0 144 144;" xml:space="preserve">
<style type="text/css">
	.st0{fill:none;stroke:#FFFFFF;stroke-width:3;stroke-linecap:round;stroke-linejoin:round;stroke-miterlimit:10;}
</style>
<g>
	<polyline class="st0" points="57.07,98.88 30.2,72 57.07,45.12 	"/>
	<polyline class="st0" points="86.93,45.12 113.8,72 86.93,98.88 	"/>
	<line class="st0" x1="81.22" y1="45.12" x2="62.61" y2="98.88"/>
</g>
<path class="st0" d="M38.91,125.96C20.73,114.87,8.59,94.85,8.59,72c0-34.89,28.28-63.17,63.17-63.17c4.73,0,9.34,0.52,13.77,1.51
	c2.4,0.53,4.75,1.2,7.04,2"/>
<path class="st0" d="M104.83,18.17c18.06,11.12,30.1,31.07,30.1,53.83c0,34.89-28.28,63.17-63.17,63.17c-7.19,0-14.1-1.2-20.53-3.41
	"/>
<polyline class="st0" points="91.76,7.67 94.24,13.29 88.62,15.77 "/>
<polyline class="st0" points="52.68,136.82 50.2,131.19 55.83,128.72 "/>
</svg>
