<?xml version="1.0" encoding="utf-8"?>
<!-- Generator: Adobe Illustrator 24.2.1, SVG Export Plug-In . SVG Version: 6.00 Build 0)  -->
<svg version="1.1" id="Layer_1" xmlns="http://www.w3.org/2000/svg" xmlns:xlink="http://www.w3.org/1999/xlink" x="0px" y="0px"
	 viewBox="0 0 144 144" style="enable-background:new 0 0 144 144;" xml:space="preserve">
<style type="text/css">
	.st0{fill:none;stroke:#FFFFFF;stroke-width:3;stroke-linecap:round;stroke-linejoin:round;stroke-miterlimit:10;}
</style>
<g>
	<path class="st0" d="M82.11,4.38l4.18,12.55c3.49,0.7,6.97,2.09,10.46,4.18l10.46-7.67l16.03,13.25l-4.88,12.55
		c2.09,2.79,4.18,6.27,5.58,9.76l12.55,1.39l4.18,20.22l-11.85,6.27c-0.7,3.49-1.39,7.67-2.09,11.15l9.06,9.06l-10.46,18.12
		l-13.25-2.79c-2.79,2.09-5.58,4.88-8.37,6.97l0.7,13.25l-19.52,6.97l-8.37-11.15c-3.49,0.7-6.97,0.7-10.46,0l-7.67,11.15
		l-19.52-6.97l0.7-13.94c-3.49-2.09-5.58-4.18-8.37-6.97l-13.25,2.79L8.21,97.1l9.06-10.46c-1.39-2.79-2.09-6.97-2.09-10.46
		L3.33,70.61l3.49-20.22l13.25-2.09c1.39-3.49,3.49-6.27,5.58-9.76l-4.88-11.85L36.1,13.44l11.15,6.97
		c3.49-1.39,6.97-2.79,10.46-3.49l4.18-12.55h20.22V4.38z"/>
</g>
<path class="st0" d="M71.7,38.71c18.59,0,33.59,14.99,33.59,33.59S90.3,105.29,71.7,105.29c-17.99,0-32.99-14.4-32.99-32.99
	S53.71,38.71,71.7,38.71z"/>
</svg>
