<svg xmlns="http://www.w3.org/2000/svg" xmlns:xlink="http://www.w3.org/1999/xlink" width="27" height="33" viewBox="0 0 27 33"><defs><path id="xd5ta" d="M650.37 4428.9h-12.13c-.78 0-1.39-.6-1.39-1.38 0-.78.61-1.38 1.39-1.38h12.1c.77 0 1.38.6 1.38 1.38 0 .77-.6 1.38-1.35 1.38zm0 7.98h-12.13c-.78 0-1.39-.6-1.39-1.38 0-.77.61-1.38 1.39-1.38h12.1c.77 0 1.38.6 1.38 1.38 0 .77-.6 1.38-1.35 1.38zm0 8.02h-12.13c-.78 0-1.39-.6-1.39-1.38 0-.78.61-1.38 1.39-1.38h12.1c.77 0 1.38.6 1.38 1.38 0 .77-.6 1.38-1.35 1.38zm2.69-25.4h-17.52a4.5 4.5 0 0 0-4.48 4.48v23.04a4.5 4.5 0 0 0 4.48 4.48h17.52a4.5 4.5 0 0 0 4.48-4.48v-23.04a4.5 4.5 0 0 0-4.48-4.48z"/></defs><g><g transform="translate(-631 -4419)"><use fill="#fff" xlink:href="#xd5ta"/></g></g></svg>