<svg xmlns="http://www.w3.org/2000/svg" xmlns:xlink="http://www.w3.org/1999/xlink" width="35" height="23" viewBox="0 0 35 23"><defs><path id="8vvza" d="M964.51 4261a5.15 5.15 0 0 0 5.14-5.19v-4.41a5.15 5.15 0 0 0-5.14-5.19h-3.81c.4-2.87.81-5.33 1.63-8.21-2.97 0-7.33 8.99-7.33 13.14v4.67a5.15 5.15 0 0 0 5.14 5.19zm20.35 0a5.15 5.15 0 0 0 5.14-5.19v-4.41a5.15 5.15 0 0 0-5.14-5.19h-3.81c.4-2.87.81-5.33 1.62-8.21-2.96 0-7.32 8.99-7.32 13.14v4.67a5.15 5.15 0 0 0 5.14 5.19z"/></defs><g><g transform="translate(-955 -4238)"><use fill="#ff9b42" xlink:href="#8vvza"/></g></g></svg>