<svg xmlns="http://www.w3.org/2000/svg" xmlns:xlink="http://www.w3.org/1999/xlink" width="22" height="22" viewBox="0 0 22 22"><defs><path id="nd8ja" d="M511.44 6261v4.97c0 .29.02.58-.02.86l.04-.28c-.03.2-.09.4-.17.6l.11-.26c-.08.19-.18.36-.3.52l.17-.22c-.13.16-.27.3-.42.43l.22-.18c-.17.13-.35.24-.55.33l.27-.12c-.2.09-.4.14-.63.17l.3-.03c-.26.03-.52.01-.78.01h-11.72c-.26 0-.53.02-.8-.02l.28.04a2.5 2.5 0 0 1-.6-.17l.27.11a2.52 2.52 0 0 1-.53-.3l.23.17c-.16-.13-.3-.27-.43-.42l.17.22a2.5 2.5 0 0 1-.32-.55l.11.27a2.5 2.5 0 0 1-.17-.63l.04.3c-.03-.26-.02-.52-.02-.78v-1.43-4.44-4.43-1.42c0-.26-.01-.53.02-.8 0 .1-.02.19-.03.28.03-.2.08-.4.16-.6l-.1.27c.07-.2.17-.37.3-.53l-.17.23c.12-.16.26-.3.42-.43l-.23.17c.17-.13.36-.24.55-.32l-.27.11c.2-.08.41-.14.63-.17l-.3.04c.43-.05.87-.02 1.3-.02h4.46c.6 0 1.1-.49 1.1-1.09 0-.59-.49-1.1-1.08-1.1h-5.28c-.3 0-.6.02-.9.08a3.34 3.34 0 0 0-1.82 1.01 3.6 3.6 0 0 0-.95 2.5V6266.4c0 .24.03.47.06.71a3.31 3.31 0 0 0 .97 1.86c.67.68 1.6 1.01 2.54 1.01h12.46a3.58 3.58 0 0 0 1.02-.12c.22-.05.44-.15.64-.24a3.38 3.38 0 0 0 1.87-2.4c.05-.3.07-.59.07-.89v-1.77-3.55c0-.6-.48-1.1-1.08-1.1-.6-.01-1.1.48-1.1 1.08z"/><path id="nd8jb" d="M506.17 6250.2H514.87c.6 0 1.1-.48 1.1-1.08.01-.6-.48-1.1-1.08-1.1a123534.13 123534.13 0 0 1-7.3 0l-1.4-.01c-.6 0-1.1.49-1.11 1.09 0 .6.5 1.1 1.09 1.1z"/><path id="nd8jc" d="M515.97 6257.82v-2.72-4.58-1.4c0-.6-.48-1.1-1.08-1.11-.6 0-1.1.5-1.1 1.09V6256.39l-.01 1.42c0 .6.49 1.1 1.09 1.1.6 0 1.1-.5 1.1-1.09z"/><path id="nd8jd" d="M503.35 6262.18l1.12-1.12a175965.46 175965.46 0 0 0 6.12-6.11l3.09-3.09 1.82-1.82.16-.16a1.1 1.1 0 0 0 0-1.55 1.1 1.1 0 0 0-1.55.01l-1.13 1.12-2.73 2.73-3.39 3.39-3.08 3.08-1.82 1.82-.17.16a1.1 1.1 0 0 0 .01 1.55 1.1 1.1 0 0 0 1.55 0z"/></defs><g><g transform="translate(-494 -6248)"><g><use fill="#fff" xlink:href="#nd8ja"/></g><g><use fill="#fff" xlink:href="#nd8jb"/></g><g><use fill="#fff" xlink:href="#nd8jc"/></g><g><use fill="#fff" xlink:href="#nd8jd"/></g></g></g></svg>