<?xml version="1.0" encoding="UTF-8"?>
<svg width="248px" height="121px" viewBox="0 0 248 121" version="1.1" xmlns="http://www.w3.org/2000/svg" xmlns:xlink="http://www.w3.org/1999/xlink">
    <title>icon_calendly</title>
    <g id="Subpages" stroke="none" stroke-width="1" fill="none" fill-rule="evenodd">
        <g id="v4.2-subpageA" transform="translate(-165.000000, -2153.000000)" fill-rule="nonzero">
            <g id="03_calendly" transform="translate(0.000000, 2036.000000)">
                <g id="icon_calendly" transform="translate(165.005357, 117.505357)">
                    <path d="M57.4648438,113.933594 C65.2773438,113.933594 72.6210938,112.439453 79.4960938,109.451172 C86.3710938,106.462891 92.4257812,102.351562 97.6601562,97.1171875 C102.894531,91.8828125 106.996094,85.8378906 109.964844,78.9824219 C112.933594,72.1269531 114.417969,64.7929688 114.417969,56.9804688 C114.417969,49.1679688 112.933594,41.8339844 109.964844,34.9785156 C106.996094,28.1230469 102.884766,22.0683594 97.6308594,16.8144531 C92.3769531,11.5605469 86.3125,7.44921875 79.4375,4.48046875 C72.5625,1.51171875 65.21875,0.02734375 57.40625,0.02734375 C49.671875,0.02734375 42.3671875,1.51171875 35.4921875,4.48046875 C28.6171875,7.44921875 22.5527344,11.5605469 17.2988281,16.8144531 C12.0449219,22.0683594 7.93359375,28.1230469 4.96484375,34.9785156 C1.99609375,41.8339844 0.51171875,49.1679688 0.51171875,56.9804688 C0.51171875,64.7929688 2.00585938,72.1269531 4.99414062,78.9824219 C7.98242188,85.8378906 12.09375,91.8828125 17.328125,97.1171875 C22.5625,102.351562 28.6171875,106.462891 35.4921875,109.451172 C42.3671875,112.439453 49.6914062,113.933594 57.4648438,113.933594 Z M57.4648438,103.445312 C51.0585938,103.445312 45.0429688,102.244141 39.4179688,99.8417969 C33.7929688,97.4394531 28.8613281,94.1191406 24.6230469,89.8808594 C20.3847656,85.6425781 17.0742188,80.7109375 14.6914062,75.0859375 C12.3085938,69.4609375 11.1171875,63.4257812 11.1171875,56.9804688 C11.1171875,50.5742188 12.3085938,44.5585938 14.6914062,38.9335938 C17.0742188,33.3085938 20.3847656,28.3671875 24.6230469,24.109375 C28.8613281,19.8515625 33.7832031,16.5214844 39.3886719,14.1191406 C44.9941406,11.7167969 51,10.515625 57.40625,10.515625 C63.890625,10.515625 69.9355469,11.7167969 75.5410156,14.1191406 C81.1464844,16.5214844 86.078125,19.8515625 90.3359375,24.109375 C94.59375,28.3671875 97.9238281,33.3085938 100.326172,38.9335938 C102.728516,44.5585938 103.929688,50.5742188 103.929688,56.9804688 C103.96875,63.4257812 102.777344,69.4609375 100.355469,75.0859375 C97.9335938,80.7109375 94.6132812,85.6425781 90.3945312,89.8808594 C86.1757812,94.1191406 81.2539062,97.4394531 75.6289062,99.8417969 C70.0039062,102.244141 63.9492187,103.445312 57.4648438,103.445312 Z M71.46875,54.2265625 C74.3203125,54.2265625 76.7910156,53.0839844 78.8808594,50.7988281 C80.9707031,48.5136719 82.015625,45.6914062 82.015625,42.3320312 C82.015625,39.0898438 80.9609375,36.3847656 78.8515625,34.2167969 C76.7421875,32.0488281 74.28125,30.9648438 71.46875,30.9648438 C68.5390625,30.9648438 66.0195312,32.078125 63.9101562,34.3046875 C61.8007812,36.53125 60.7460938,39.2265625 60.7460938,42.390625 C60.7460938,45.7109375 61.8007812,48.5136719 63.9101562,50.7988281 C66.0195312,53.0839844 68.5390625,54.2265625 71.46875,54.2265625 Z M40.765625,54.8125 C43.2265625,54.8125 45.3847656,53.8164062 47.2402344,51.8242188 C49.0957031,49.8320312 50.0234375,47.390625 50.0234375,44.5 C50.0234375,41.6484375 49.0957031,39.2753906 47.2402344,37.3808594 C45.3847656,35.4863281 43.2265625,34.5390625 40.765625,34.5390625 C38.265625,34.5390625 36.078125,35.5058594 34.203125,37.4394531 C32.328125,39.3730469 31.390625,41.7460938 31.390625,44.5585938 C31.390625,47.4101562 32.3183594,49.8320312 34.1738281,51.8242188 C36.0292969,53.8164062 38.2265625,54.8125 40.765625,54.8125 Z M46.0390625,78.8359375 C45.1015625,77.5078125 44.7988281,75.828125 45.1308594,73.796875 C45.4628906,71.765625 46.2636719,69.7050781 47.5332031,67.6152344 C48.8027344,65.5253906 50.4140625,63.71875 52.3671875,62.1953125 C50.8828125,61.21875 49.1835938,60.4179688 47.2695312,59.7929688 C45.3554688,59.1679688 43.1875,58.8554688 40.765625,58.8554688 C36.78125,58.8554688 33.3242188,59.6953125 30.3945312,61.375 C27.4648438,63.0546875 25.1992188,65.125 23.5976562,67.5859375 C21.9960938,70.046875 21.1953125,72.4882812 21.1953125,74.9101562 C21.1953125,76.1601562 21.5566406,77.1269531 22.2792969,77.8105469 C23.0019531,78.4941406 24.2421875,78.8359375 26,78.8359375 L46.0390625,78.8359375 Z M87.9921875,78.8359375 C90.140625,78.8359375 91.6445312,78.5234375 92.5039062,77.8984375 C93.3632812,77.2734375 93.7929688,76.3554688 93.7929688,75.1445312 C93.7929688,72.8789062 92.8847656,70.4960938 91.0683594,67.9960938 C89.2519531,65.4960938 86.6738281,63.3574219 83.3339844,61.5800781 C79.9941406,59.8027344 76.0390625,58.9140625 71.46875,58.9140625 C66.859375,58.9140625 62.8652344,59.8027344 59.4863281,61.5800781 C56.1074219,63.3574219 53.5097656,65.4960938 51.6933594,67.9960938 C49.8769531,70.4960938 48.96875,72.8789062 48.96875,75.1445312 C48.96875,76.3554688 49.3984375,77.2734375 50.2578125,77.8984375 C51.1171875,78.5234375 52.6015625,78.8359375 54.7109375,78.8359375 L87.9921875,78.8359375 Z" id="􀠃" fill="#3E4965" transform="translate(57.464844, 56.980469) scale(-1, 1) translate(-57.464844, -56.980469) "></path>
                    <path d="M183.768931,109.539063 C182.675181,107.78125 181.747447,105.916016 180.985728,103.943359 C180.224009,101.970703 179.667368,99.9296875 179.315806,97.8203125 L122.597056,97.8203125 C120.175181,97.8203125 118.309947,97.1855469 117.001353,95.9160156 C115.692759,94.6464844 115.038462,92.7421875 115.038462,90.203125 L115.038462,36.2382813 C115.038462,33.6992188 115.692759,31.7949219 117.001353,30.5253906 C118.309947,29.2558594 120.175181,28.6210938 122.597056,28.6210938 L203.339243,28.6210938 C205.800181,28.6210938 207.675181,29.2558594 208.964243,30.5253906 C210.253306,31.7949219 210.897837,33.6992188 210.897837,36.2382813 L210.897837,52 C211.913462,51.84375 212.909556,51.7167969 213.886118,51.6191406 C214.862681,51.5214844 215.858775,51.4726563 216.8744,51.4726563 C217.850962,51.4726563 218.827525,51.5117188 219.804087,51.5898438 C220.78065,51.6679688 221.71815,51.7851563 222.616587,51.9414063 L222.616587,19.1289063 C222.616587,12.8398438 220.995493,8.08398438 217.753306,4.86132813 C214.511118,1.63867188 209.706431,0.02734375 203.339243,0.02734375 L122.65565,0.02734375 C116.288462,0.02734375 111.474009,1.63867188 108.21229,4.86132813 C104.950572,8.08398438 103.319712,12.8398438 103.319712,19.1289063 L103.319712,90.4375 C103.319712,96.7265625 104.950572,101.482422 108.21229,104.705078 C111.474009,107.927734 116.288462,109.539063 122.65565,109.539063 L183.768931,109.539063 Z M155.116587,48.8359375 C156.171275,48.8359375 156.903697,48.640625 157.313853,48.25 C157.724009,47.859375 157.929087,47.15625 157.929087,46.140625 L157.929087,42.6835938 C157.929087,41.6289063 157.724009,40.90625 157.313853,40.515625 C156.903697,40.125 156.171275,39.9296875 155.116587,39.9296875 L151.71815,39.9296875 C150.663462,39.9296875 149.921275,40.125 149.491587,40.515625 C149.0619,40.90625 148.847056,41.6289063 148.847056,42.6835938 L148.847056,46.140625 C148.847056,47.15625 149.0619,47.859375 149.491587,48.25 C149.921275,48.640625 150.663462,48.8359375 151.71815,48.8359375 L155.116587,48.8359375 Z M174.276743,48.8359375 C175.331431,48.8359375 176.063853,48.640625 176.474009,48.25 C176.884165,47.859375 177.089243,47.15625 177.089243,46.140625 L177.089243,42.6835938 C177.089243,41.6289063 176.884165,40.90625 176.474009,40.515625 C176.063853,40.125 175.331431,39.9296875 174.276743,39.9296875 L170.878306,39.9296875 C169.784556,39.9296875 169.042368,40.125 168.651743,40.515625 C168.261118,40.90625 168.065806,41.6289063 168.065806,42.6835938 L168.065806,46.140625 C168.065806,47.15625 168.261118,47.859375 168.651743,48.25 C169.042368,48.640625 169.784556,48.8359375 170.878306,48.8359375 L174.276743,48.8359375 Z M193.4369,48.8359375 C194.452525,48.8359375 195.165415,48.640625 195.575572,48.25 C195.985728,47.859375 196.190806,47.15625 196.190806,46.140625 L196.190806,42.6835938 C196.190806,41.6289063 195.985728,40.90625 195.575572,40.515625 C195.165415,40.125 194.452525,39.9296875 193.4369,39.9296875 L189.979868,39.9296875 C188.886118,39.9296875 188.143931,40.125 187.753306,40.515625 C187.362681,40.90625 187.167368,41.6289063 187.167368,42.6835938 L187.167368,46.140625 C187.167368,47.15625 187.362681,47.859375 187.753306,48.25 C188.143931,48.640625 188.886118,48.8359375 189.979868,48.8359375 L193.4369,48.8359375 Z M136.015025,67.6445313 C137.069712,67.6445313 137.792368,67.4589844 138.182993,67.0878906 C138.573618,66.7167969 138.768931,66.0039063 138.768931,64.9492188 L138.768931,61.4921875 C138.768931,60.4765625 138.573618,59.7734375 138.182993,59.3828125 C137.792368,58.9921875 137.069712,58.796875 136.015025,58.796875 L132.557993,58.796875 C131.503306,58.796875 130.770884,58.9921875 130.360728,59.3828125 C129.950572,59.7734375 129.745493,60.4765625 129.745493,61.4921875 L129.745493,64.9492188 C129.745493,66.0039063 129.950572,66.7167969 130.360728,67.0878906 C130.770884,67.4589844 131.503306,67.6445313 132.557993,67.6445313 L136.015025,67.6445313 Z M155.116587,67.6445313 C156.171275,67.6445313 156.903697,67.4589844 157.313853,67.0878906 C157.724009,66.7167969 157.929087,66.0039063 157.929087,64.9492188 L157.929087,61.4921875 C157.929087,60.4765625 157.724009,59.7734375 157.313853,59.3828125 C156.903697,58.9921875 156.171275,58.796875 155.116587,58.796875 L151.71815,58.796875 C150.663462,58.796875 149.921275,58.9921875 149.491587,59.3828125 C149.0619,59.7734375 148.847056,60.4765625 148.847056,61.4921875 L148.847056,64.9492188 C148.847056,66.0039063 149.0619,66.7167969 149.491587,67.0878906 C149.921275,67.4589844 150.663462,67.6445313 151.71815,67.6445313 L155.116587,67.6445313 Z M174.276743,67.6445313 C175.331431,67.6445313 176.063853,67.4589844 176.474009,67.0878906 C176.884165,66.7167969 177.089243,66.0039063 177.089243,64.9492188 L177.089243,61.4921875 C177.089243,60.4765625 176.884165,59.7734375 176.474009,59.3828125 C176.063853,58.9921875 175.331431,58.796875 174.276743,58.796875 L170.878306,58.796875 C169.784556,58.796875 169.042368,58.9921875 168.651743,59.3828125 C168.261118,59.7734375 168.065806,60.4765625 168.065806,61.4921875 L168.065806,64.9492188 C168.065806,66.0039063 168.261118,66.7167969 168.651743,67.0878906 C169.042368,67.4589844 169.784556,67.6445313 170.878306,67.6445313 L174.276743,67.6445313 Z M216.815806,120.144531 C220.917368,120.144531 224.794322,119.353516 228.446665,117.771484 C232.099009,116.189453 235.321665,114.011719 238.114634,111.238281 C240.907603,108.464844 243.095103,105.251953 244.677134,101.599609 C246.259165,97.9472656 247.050181,94.0703125 247.050181,89.96875 C247.050181,85.7890625 246.268931,81.8828125 244.706431,78.25 C243.143931,74.6171875 240.966197,71.4140625 238.173228,68.640625 C235.380259,65.8671875 232.167368,63.6992188 228.534556,62.1367188 C224.901743,60.5742188 220.995493,59.7929688 216.815806,59.7929688 C212.714243,59.7929688 208.83729,60.5742188 205.184947,62.1367188 C201.532603,63.6992188 198.319712,65.8769531 195.546275,68.6699219 C192.772837,71.4628906 190.595103,74.6660156 189.013072,78.2792969 C187.43104,81.8925781 186.640025,85.7890625 186.640025,89.96875 C186.640025,94.109375 187.43104,98.0058594 189.013072,101.658203 C190.595103,105.310547 192.772837,108.523438 195.546275,111.296875 C198.319712,114.070313 201.532603,116.238281 205.184947,117.800781 C208.83729,119.363281 212.714243,120.144531 216.815806,120.144531 Z M216.8744,109.128906 C215.663462,109.128906 214.6869,108.757813 213.944712,108.015625 C213.202525,107.273438 212.831431,106.316406 212.831431,105.144531 L212.831431,94.0117188 L201.757212,94.0117188 C200.546275,94.0117188 199.569712,93.640625 198.827525,92.8984375 C198.085337,92.15625 197.714243,91.1796875 197.714243,89.96875 C197.714243,88.7578125 198.085337,87.78125 198.827525,87.0390625 C199.569712,86.296875 200.546275,85.9257813 201.757212,85.9257813 L212.831431,85.9257813 L212.831431,74.8515625 C212.831431,73.6796875 213.202525,72.7226563 213.944712,71.9804688 C214.6869,71.2382813 215.663462,70.8476563 216.8744,70.8085938 C218.085337,70.8085938 219.0619,71.1796875 219.804087,71.921875 C220.546275,72.6640625 220.917368,73.640625 220.917368,74.8515625 L220.917368,85.9257813 L231.991587,85.9257813 C233.202525,85.9257813 234.179087,86.296875 234.921275,87.0390625 C235.663462,87.78125 236.034556,88.7578125 236.034556,89.96875 C236.034556,91.1796875 235.663462,92.15625 234.921275,92.8984375 C234.179087,93.640625 233.202525,94.0117188 231.991587,94.0117188 L220.917368,94.0117188 L220.917368,105.144531 C220.917368,106.316406 220.546275,107.273438 219.804087,108.015625 C219.0619,108.757813 218.085337,109.128906 216.8744,109.128906 Z M136.015025,86.5117188 C137.069712,86.5117188 137.792368,86.3164063 138.182993,85.9257813 C138.573618,85.5351563 138.768931,84.8125 138.768931,83.7578125 L138.768931,80.3007813 C138.768931,79.2851563 138.573618,78.5820313 138.182993,78.1914063 C137.792368,77.8007813 137.069712,77.6054688 136.015025,77.6054688 L132.557993,77.6054688 C131.503306,77.6054688 130.770884,77.8007813 130.360728,78.1914063 C129.950572,78.5820313 129.745493,79.2851563 129.745493,80.3007813 L129.745493,83.7578125 C129.745493,84.8125 129.950572,85.5351563 130.360728,85.9257813 C130.770884,86.3164063 131.503306,86.5117188 132.557993,86.5117188 L136.015025,86.5117188 Z M155.116587,86.5117188 C156.171275,86.5117188 156.903697,86.3164063 157.313853,85.9257813 C157.724009,85.5351563 157.929087,84.8125 157.929087,83.7578125 L157.929087,80.3007813 C157.929087,79.2851563 157.724009,78.5820313 157.313853,78.1914063 C156.903697,77.8007813 156.171275,77.6054688 155.116587,77.6054688 L151.71815,77.6054688 C150.663462,77.6054688 149.921275,77.8007813 149.491587,78.1914063 C149.0619,78.5820313 148.847056,79.2851563 148.847056,80.3007813 L148.847056,83.7578125 C148.847056,84.8125 149.0619,85.5351563 149.491587,85.9257813 C149.921275,86.3164063 150.663462,86.5117188 151.71815,86.5117188 L155.116587,86.5117188 Z M174.276743,86.5117188 C175.331431,86.5117188 176.063853,86.3164063 176.474009,85.9257813 C176.884165,85.5351563 177.089243,84.8125 177.089243,83.7578125 L177.089243,80.3007813 C177.089243,79.2851563 176.884165,78.5820313 176.474009,78.1914063 C176.063853,77.8007813 175.331431,77.6054688 174.276743,77.6054688 L170.878306,77.6054688 C169.784556,77.6054688 169.042368,77.8007813 168.651743,78.1914063 C168.261118,78.5820313 168.065806,79.2851563 168.065806,80.3007813 L168.065806,83.7578125 C168.065806,84.8125 168.261118,85.5351563 168.651743,85.9257813 C169.042368,86.3164063 169.784556,86.5117188 170.878306,86.5117188 L174.276743,86.5117188 Z" id="􀉊" fill="#FF9638" transform="translate(175.184947, 60.085938) rotate(-360.000000) translate(-175.184947, -60.085938) "></path>
                </g>
            </g>
        </g>
    </g>
</svg>