<?xml version="1.0" encoding="utf-8"?>
<!-- Generator: Adobe Illustrator 24.2.1, SVG Export Plug-In . SVG Version: 6.00 Build 0)  -->
<svg version="1.1" id="Layer_1" xmlns="http://www.w3.org/2000/svg" xmlns:xlink="http://www.w3.org/1999/xlink" x="0px" y="0px"
	 viewBox="0 0 144 144" style="enable-background:new 0 0 144 144;" xml:space="preserve">
<style type="text/css">
	.st0{fill:none;stroke:#161C44;stroke-width:3;stroke-linecap:round;stroke-linejoin:round;stroke-miterlimit:10;}
</style>
<polygon class="st0" points="41,55.5 72.1,73.9 72.1,106.1 41,87.7 "/>
<path class="st0" d="M17.9,37.6c11.3-17.3,30.8-28.8,53-28.8c4.7,0,9.3,0.5,13.8,1.5c2.4,0.5,4.8,1.2,7,2"/>
<path class="st0" d="M38.1,126C19.9,114.9,7.8,94.8,7.8,72c0-8.3,1.6-16.3,4.5-23.5"/>
<path class="st0" d="M124.5,105.5c-11.2,17.8-31,29.7-53.6,29.7c-7.2,0-14.1-1.2-20.5-3.4"/>
<path class="st0" d="M104,18.2c18.1,11.1,30.1,31.1,30.1,53.8c0,7.9-1.5,15.6-4.1,22.6"/>
<polygon class="st0" points="103,56.3 71.9,37.9 41,55.5 72.1,73.9 "/>
<polygon class="st0" points="72.1,106.1 72.1,73.9 103,56.3 103,88.1 "/>
<polyline class="st0" points="90.2,7.4 92.7,13 87,15.5 "/>
<polyline class="st0" points="134.8,93.6 129.4,96.5 126.4,91.1 "/>
<polyline class="st0" points="51.1,136.5 48.6,130.9 54.3,128.4 "/>
<polyline class="st0" points="7.2,49.4 12.9,46.9 15.4,52.5 "/>
</svg>
