<?xml version="1.0" encoding="utf-8"?>
<!-- Generator: Adobe Illustrator 24.2.1, SVG Export Plug-In . SVG Version: 6.00 Build 0)  -->
<svg version="1.1" id="Layer_1" xmlns="http://www.w3.org/2000/svg" xmlns:xlink="http://www.w3.org/1999/xlink" x="0px" y="0px"
	 viewBox="0 0 144 144" style="enable-background:new 0 0 144 144;" xml:space="preserve">
<style type="text/css">
	.st0{fill:none;stroke:#161C44;stroke-width:3;stroke-linecap:round;stroke-linejoin:round;stroke-miterlimit:10;}
</style>
<polygon class="st0" points="124.8,119.9 124.5,99.2 142.4,109.4 131.2,110.6 "/>
<rect x="8.5" y="17.3" class="st0" width="37" height="30.8"/>
<line class="st0" x1="8.5" y1="24" x2="45.6" y2="24"/>
<rect x="53.8" y="17.3" class="st0" width="37" height="30.8"/>
<line class="st0" x1="53.8" y1="24" x2="90.9" y2="24"/>
<rect x="99" y="17.3" class="st0" width="37" height="30.8"/>
<line class="st0" x1="99" y1="24" x2="136.1" y2="24"/>
<rect x="8.5" y="96.1" class="st0" width="37" height="30.8"/>
<line class="st0" x1="8.5" y1="102.8" x2="45.6" y2="102.8"/>
<rect x="53.8" y="96.1" class="st0" width="37" height="30.8"/>
<line class="st0" x1="53.8" y1="102.8" x2="90.9" y2="102.8"/>
<polyline class="st0" points="136.1,114.6 136.1,126.9 99,126.9 99,96.1 136.1,96.1 136.1,101.2 "/>
<line class="st0" x1="99" y1="102.8" x2="120.2" y2="102.8"/>
<rect x="8.5" y="56.7" class="st0" width="37" height="30.8"/>
<line class="st0" x1="8.5" y1="63.4" x2="45.6" y2="63.4"/>
<rect x="53.8" y="56.7" class="st0" width="37" height="30.8"/>
<line class="st0" x1="53.8" y1="63.4" x2="90.9" y2="63.4"/>
<rect x="99" y="56.7" class="st0" width="37" height="30.8"/>
<line class="st0" x1="99" y1="63.4" x2="136.1" y2="63.4"/>
</svg>
