<svg xmlns="http://www.w3.org/2000/svg" xmlns:xlink="http://www.w3.org/1999/xlink" width="22" height="16" viewBox="0 0 22 16"><defs><path id="keqqa" d="M1318 169.8c-.01.29-.13.6-.33.81l-6.52 6.64c-.44.38-1.29.53-1.78.1a1.18 1.18 0 0 1 .01-1.71l4.58-4.66h-16.74a1.2 1.2 0 0 1-1.22-1.17c0-.65.55-1.17 1.22-1.17h16.74l-4.58-4.66c-.42-.4-.5-1.27-.01-1.71.48-.44 1.36-.3 1.78.1l6.52 6.63c.22.23.33.5.33.8z"/></defs><g><g transform="translate(-1296 -162)"><use fill="#fff" xlink:href="#keqqa"/></g></g></svg>