<?xml version="1.0" encoding="UTF-8"?>
<svg width="126px" height="91px" viewBox="0 0 126 91" version="1.1" xmlns="http://www.w3.org/2000/svg" xmlns:xlink="http://www.w3.org/1999/xlink">
    <!-- Generator: Sketch 42 (36781) - http://www.bohemiancoding.com/sketch -->
    <title>icon-plan</title>
    <desc>Created with Sketch.</desc>
    <defs></defs>
    <g id="Desktop---1400px" stroke="none" stroke-width="1" fill="none" fill-rule="evenodd">
        <g id="digitalml---ignite-Platform-Page" transform="translate(-185.000000, -1141.000000)" fill="#FFFFFF">
            <g id="Plan-Card" transform="translate(117.000000, 994.000000)">
                <g id="icon-plan" transform="translate(131.000000, 192.500000) rotate(-90.000000) translate(-131.000000, -192.500000) translate(85.500000, 129.500000)">
                    <path d="M52.624,0.0195 C47.708,-0.0065 42.788,-0.0065 37.86,0.0195 C34.266,0.0395 32.268,2.0275 32.228,5.6195 C32.2,8.1215 32.2,10.8055 32.224,14.3275 C32.252,18.1155 34.216,20.0535 38.066,20.0875 C38.98,20.0955 39.894,20.0975 40.806,20.0975 L45.274,20.0875 L49.806,20.1015 C50.994,20.1015 51.966,20.0915 52.878,20.0755 C56.148,20.0115 58.13,18.0295 58.182,14.7715 C58.224,11.9155 58.228,8.8795 58.186,5.4855 C58.14,1.9775 56.166,0.0355 52.624,0.0195 Z M52.6,5.2455 C52.67,5.2455 52.82,5.2475 52.952,5.2535 C52.956,5.3435 52.958,5.4495 52.958,5.5495 C53,8.8935 53,11.8835 52.958,14.6875 C52.958,14.7475 52.954,14.7995 52.954,14.8435 C52.902,14.8455 52.846,14.8475 52.78,14.8475 C51.902,14.8635 50.958,14.8715 49.808,14.8715 L45.27,14.8595 L40.814,14.8695 C39.916,14.8695 39.014,14.8675 38.112,14.8595 C37.826,14.8575 37.62,14.8415 37.478,14.8235 C37.466,14.6975 37.452,14.5235 37.452,14.2895 C37.428,10.8035 37.428,8.1495 37.456,5.6775 C37.456,5.5655 37.46,5.3915 37.466,5.2535 C37.604,5.2475 37.776,5.2455 37.886,5.2455 C42.792,5.2195 47.698,5.2195 52.6,5.2455 Z" id="Shape"></path>
                    <path d="M37.754,55.4335 C38.728,55.4495 39.704,55.4555 40.684,55.4555 L45.204,55.4455 L49.7,55.4555 C50.718,55.4555 51.74,55.4495 52.76,55.4335 C56.164,55.3795 58.142,53.4175 58.188,50.0515 C58.23,46.9395 58.23,43.8135 58.184,40.7635 C58.138,37.4115 56.104,35.3975 52.744,35.3775 C47.758,35.3455 42.774,35.3495 37.788,35.3735 C34.306,35.3955 32.28,37.3915 32.234,40.8535 C32.194,43.7415 32.194,46.7995 32.23,49.9455 C32.274,53.4295 34.232,55.3795 37.754,55.4335 Z M52.708,40.6035 C52.762,40.6035 52.858,40.6055 52.952,40.6075 C52.956,40.6975 52.958,40.7915 52.958,40.8395 C53.004,43.8415 53.004,46.9175 52.96,49.9755 C52.96,50.0335 52.958,50.1175 52.954,50.1975 C52.884,50.2015 52.794,50.2035 52.678,50.2075 C51.72,50.2195 50.754,50.2255 49.794,50.2255 L45.206,50.2155 L40.684,50.2255 C39.734,50.2255 38.788,50.2215 37.838,50.2075 C37.76,50.2075 37.6,50.2035 37.466,50.1955 C37.462,50.0995 37.46,49.9855 37.46,49.8855 C37.424,46.7835 37.426,43.7695 37.464,40.9215 C37.464,40.8395 37.468,40.7155 37.47,40.6095 C37.602,40.6035 37.756,40.6015 37.824,40.6015 C42.778,40.5715 47.744,40.5675 52.708,40.6035 Z" id="Shape"></path>
                    <path d="M52.612,70.4075 C51.702,70.3955 50.788,70.3915 49.878,70.3915 L45.598,70.4015 L40.754,70.3915 C39.772,70.3915 38.792,70.3955 37.806,70.4075 C34.244,70.4595 32.264,72.4595 32.232,76.0455 C32.198,79.1835 32.202,82.0915 32.232,84.9435 C32.272,88.4795 34.228,90.4435 37.74,90.4675 C40.136,90.4855 42.63,90.4955 45.162,90.4955 C47.674,90.4955 50.184,90.4855 52.698,90.4715 C56.154,90.4495 58.158,88.4315 58.192,84.9335 C58.222,82.0915 58.222,79.1815 58.192,76.0375 C58.158,72.4475 56.176,70.4495 52.612,70.4075 Z M52.966,84.8735 C52.962,85.0355 52.96,85.1535 52.954,85.2375 C52.864,85.2415 52.758,85.2415 52.662,85.2415 C47.65,85.2755 42.522,85.2755 37.774,85.2415 C37.668,85.2415 37.558,85.2375 37.464,85.2355 C37.46,85.1455 37.458,85.0275 37.454,84.8875 C37.424,82.0755 37.424,79.1995 37.454,76.1015 C37.454,76.0015 37.458,75.8035 37.466,75.6475 C37.584,75.6415 37.734,75.6415 37.874,75.6375 C38.832,75.6215 39.786,75.6195 40.74,75.6195 L45.208,75.6295 L49.664,75.6195 C50.626,75.6195 51.584,75.6255 52.546,75.6355 C52.712,75.6395 52.84,75.6455 52.936,75.6575 C52.948,75.7635 52.958,75.9035 52.96,76.0875 C52.996,79.1935 52.996,82.0695 52.966,84.8735 Z" id="Shape"></path>
                    <path d="M52.612,104.2715 C51.596,104.2595 50.578,104.2555 49.562,104.2555 L44.868,104.2615 L40.672,104.2515 C39.716,104.2515 38.76,104.2575 37.808,104.2695 C34.244,104.3175 32.264,106.3195 32.23,109.9035 C32.196,113.0415 32.2,115.9535 32.23,118.8055 C32.27,122.3395 34.226,124.3015 37.738,124.3295 C40.134,124.3455 42.628,124.3535 45.16,124.3535 C47.672,124.3535 50.182,124.3435 52.696,124.3295 C56.152,124.3075 58.156,122.2915 58.19,118.7935 C58.22,115.9515 58.22,113.0395 58.19,109.8955 C58.158,106.3095 56.176,104.3135 52.612,104.2715 Z M52.966,118.7375 C52.962,118.8975 52.96,119.0135 52.956,119.1015 C52.866,119.1055 52.76,119.1055 52.662,119.1055 C47.65,119.1395 42.526,119.1395 37.772,119.1015 C37.67,119.1015 37.558,119.1015 37.466,119.0975 C37.462,119.0035 37.46,118.8895 37.456,118.7455 C37.426,115.9335 37.426,113.0595 37.456,109.9595 C37.456,109.8595 37.46,109.6615 37.468,109.5055 C37.586,109.4995 37.736,109.4995 37.874,109.4955 C38.832,109.4835 39.788,109.4795 40.744,109.4795 L45.212,109.4855 L49.656,109.4795 C50.62,109.4795 51.586,109.4835 52.55,109.4955 C52.716,109.4995 52.844,109.5055 52.94,109.5175 C52.952,109.6235 52.962,109.7615 52.964,109.9435 C52.996,113.0595 52.996,115.9315 52.966,118.7375 Z" id="Shape"></path>
                    <path d="M90.848,51.0335 C90.812,46.9535 86.948,43.0975 82.9,43.0975 L82.656,43.1015 C81.734,43.1395 78.702,43.1595 73.884,43.1595 L69.326,43.1535 C68.412,43.1535 67.492,43.1575 66.576,43.1695 C65.166,43.1855 64.254,43.9975 64.01,45.4575 C63.8,46.6875 64.74,47.9215 66.11,48.2095 C66.618,48.3115 67.132,48.3215 67.66,48.3215 L82.378,48.3175 C85.058,48.3215 85.674,48.9235 85.674,51.5455 L85.674,74.2575 C85.674,76.3975 85.274,76.7995 83.152,76.8035 L78.962,76.8075 L73.012,76.8015 C74.274,75.5395 76.066,73.7415 76.576,73.2135 C77.126,72.6495 77.408,71.9455 77.376,71.2275 C77.334,70.5355 77,69.8995 76.436,69.4355 C75.412,68.5735 73.9,68.7175 72.752,69.8175 L64.828,77.4975 C64.252,78.0495 63.932,78.7755 63.932,79.5355 C63.932,80.3235 64.274,81.0895 64.896,81.6955 L73.292,89.7815 C74.038,90.4975 74.858,90.8755 75.662,90.8755 C76.296,90.8755 76.874,90.6355 77.332,90.1815 C78.21,89.3135 78.544,87.7715 76.846,86.0415 C76.232,85.4215 74.28,83.3735 72.976,81.9995 L78.532,82.0035 C79.906,82.0035 81.462,82.0035 83.084,81.9935 C87.258,81.9715 90.814,78.6815 90.846,74.8055 C90.92,66.9315 90.92,58.9335 90.848,51.0335 Z" id="Shape"></path>
                    <path d="M18.146,35.5675 C17.01,34.4755 15.504,34.3255 14.468,35.1815 C13.9,35.6495 13.566,36.2875 13.524,36.9835 C13.49,37.6895 13.774,38.3935 14.324,38.9635 C14.834,39.4935 16.622,41.2895 17.888,42.5555 L12.668,42.5595 L7.748,42.5555 C5.626,42.5515 5.226,42.1475 5.226,40.0095 L5.226,17.2975 C5.226,14.6735 5.842,14.0715 8.522,14.0695 L23.24,14.0735 C23.768,14.0735 24.282,14.0635 24.794,13.9615 C26.162,13.6755 27.102,12.4415 26.892,11.2115 C26.648,9.7495 25.736,8.9375 24.326,8.9215 C23.41,8.9115 22.49,8.9055 21.574,8.9055 L17.018,8.9115 C12.2,8.9115 9.168,8.8915 8.246,8.8535 L8.002,8.8495 C3.954,8.8495 0.09,12.7075 0.054,16.7835 C-0.018,24.6835 -0.018,32.6815 0.054,40.5555 C0.088,44.4315 3.642,47.7235 7.82,47.7435 C9.566,47.7535 11.236,47.7535 12.686,47.7535 L17.926,47.7495 C16.622,49.1215 14.666,51.1715 14.052,51.7935 C12.358,53.5215 12.69,55.0635 13.568,55.9315 C14.028,56.3855 14.604,56.6255 15.238,56.6255 C16.044,56.6255 16.864,56.2475 17.612,55.5295 L26.006,47.4435 C26.626,46.8375 26.968,46.0715 26.968,45.2835 C26.968,44.5255 26.652,43.8035 26.078,43.2495 L18.146,35.5675 Z" id="Shape"></path>
                    <path d="M23.6,110.1775 C21.784,108.4175 19.97,106.6595 18.146,104.9015 C17.004,103.8055 15.486,103.6635 14.47,104.5175 C13.9,104.9855 13.566,105.6235 13.524,106.3215 C13.49,107.0255 13.774,107.7275 14.324,108.3015 C14.834,108.8295 16.622,110.6275 17.888,111.8895 L11.938,111.8955 L7.752,111.8935 C5.628,111.8875 5.228,111.4855 5.228,109.3455 L5.228,86.6315 C5.228,84.0115 5.844,83.4075 8.524,83.4035 L23.242,83.4055 C23.744,83.4055 24.278,83.3955 24.798,83.2915 C26.162,83.0035 27.102,81.7715 26.892,80.5455 C26.648,79.0815 25.738,78.2675 24.326,78.2535 C23.41,78.2415 22.49,78.2375 21.574,78.2375 L17.018,78.2435 C12.2,78.2435 9.168,78.2215 8.246,78.1855 L8.002,78.1815 C3.954,78.1815 0.09,82.0375 0.054,86.1175 C-0.018,94.0155 -0.018,102.0135 0.054,109.8875 C0.088,113.7635 3.642,117.0555 7.82,117.0755 C9.442,117.0855 10.996,117.0855 12.37,117.0855 L17.926,117.0815 C16.622,118.4555 14.668,120.5035 14.056,121.1235 C12.358,122.8475 12.692,124.3935 13.57,125.2635 C14.03,125.7175 14.606,125.9575 15.24,125.9575 C16.046,125.9575 16.866,125.5795 17.614,124.8615 L26.008,116.7755 C26.628,116.1715 26.97,115.4055 26.97,114.6175 C26.97,113.8575 26.654,113.1335 26.08,112.5795 L23.6,110.1775 Z" id="Shape"></path>
                </g>
            </g>
        </g>
    </g>
</svg>