<?xml version="1.0" encoding="UTF-8"?>
<svg width="126px" height="107px" viewBox="0 0 126 107" version="1.1" xmlns="http://www.w3.org/2000/svg" xmlns:xlink="http://www.w3.org/1999/xlink">
    <!-- Generator: Sketch 42 (36781) - http://www.bohemiancoding.com/sketch -->
    <title>icon-build</title>
    <desc>Created with Sketch.</desc>
    <defs></defs>
    <g id="Desktop---1400px" stroke="none" stroke-width="1" fill="none" fill-rule="evenodd">
        <g id="digitalml---ignite-Platform-Page" transform="translate(-180.000000, -2247.000000)" fill="#FFFFFF">
            <g id="Build-Card" transform="translate(120.000000, 2106.000000)">
                <g id="icon-build" transform="translate(60.000000, 141.000000)">
                    <path d="M114.830532,74.94 C114.647532,74.466 114.237532,74.117 113.741532,74.011 C113.244532,73.906 112.728532,74.059 112.369532,74.418 L107.927532,78.861 L105.593532,76.527 L110.036532,72.083 C110.395532,71.724 110.548532,71.208 110.443532,70.711 C110.338532,70.214 109.988532,69.805 109.513532,69.623 C108.438532,69.209 107.306532,69 106.147532,69 C103.620532,69 101.238532,69.989 99.4425321,71.785 C96.7555321,74.471 95.9415321,78.396 97.2685321,81.838 L89.3995321,90.338 C88.8515321,90.929 88.8695321,91.848 89.4395321,92.418 L92.0355321,95.014 C92.3275321,95.306 92.7115321,95.453 93.0965321,95.453 C93.4615321,95.453 93.8275321,95.32 94.1165321,95.054 L102.616532,87.183 C103.678532,87.587 104.815532,87.798 105.959532,87.798 L105.960532,87.798 C108.488532,87.798 110.871532,86.808 112.669532,85.011 C115.317532,82.363 116.165532,78.41 114.830532,74.94 Z M110.547532,82.89 C109.316532,84.12 107.687532,84.798 105.959532,84.798 C104.933532,84.798 103.916532,84.549 103.020532,84.08 C102.458532,83.786 101.772532,83.877 101.304532,84.308 L93.1365321,91.871 L92.5815321,91.316 L100.144532,83.147 C100.576532,82.681 100.666532,81.995 100.373532,81.432 C99.0715321,78.944 99.5495321,75.919 101.563532,73.906 C102.727532,72.742 104.248532,72.074 105.871532,72.006 L103.234532,74.643 C102.730532,75.146 102.453532,75.815 102.452532,76.527 C102.452532,77.239 102.729532,77.908 103.233532,78.411 L106.044532,81.223 C107.050532,82.226 108.802532,82.23 109.810532,81.222 L112.448532,78.584 C112.378532,80.17 111.721532,81.716 110.547532,82.89 Z" id="Combined-Shape"></path>
                    <path d="M102.099187,106.557441 C89.3633518,106.557441 79.0018853,96.2180152 79.0018853,83.5076925 C79.0018853,70.7973698 89.3633518,60.4566594 102.099187,60.4566594 C114.835022,60.4566594 125.195201,70.7973698 125.195201,83.5076925 C125.195201,96.2180152 114.833735,106.557441 102.099187,106.557441 Z M102.099067,102.241722 C112.449328,102.241722 120.87082,93.8381445 120.87082,83.5075722 C120.87082,73.177 112.450375,64.7723781 102.099067,64.7723781 C91.7477585,64.7723781 83.3262666,73.177 83.3262666,83.5075722 C83.3262666,93.8381445 91.7477585,102.241722 102.099067,102.241722 Z M87.856473,49.2207951 C87.856473,50.4116208 86.7979613,51.4701325 85.6071356,51.6024465 L53.9840979,51.6024465 C52.6609582,51.6024465 51.6024465,50.5439348 51.6024465,49.2207951 C51.6024465,47.8976555 52.6609582,46.8391437 53.9840979,46.8391437 L85.4748216,46.8391437 C86.7979613,46.8391437 87.856473,47.8976555 87.856473,49.2207951 Z M24.6103976,49.2207951 C24.6103976,47.2360856 26.1981651,45.648318 28.1828746,45.648318 C30.1675841,45.648318 31.7553517,47.2360856 31.7553517,49.2207951 C31.7553517,51.2055046 30.1675841,52.7932722 28.1828746,52.7932722 C26.1981651,52.7932722 24.6103976,51.2055046 24.6103976,49.2207951 Z M9.12966361,64.833843 C3.70479103,61.7906218 2.93796022e-16,55.9688073 2.93796022e-16,49.2207951 C2.93796022e-16,42.4727829 3.57247706,36.6509684 8.99734964,33.6077472 C3.70479103,30.564526 0,24.8750255 0,18.3916412 L0,17.4654434 C2.93796022e-16,7.80652396 7.80652396,0 17.4654434,0 L92.6197757,0 C102.278695,0 110.085219,7.80652396 110.085219,17.4654434 L110.085219,18.3916412 C110.085219,24.8750255 106.512742,30.69684 101.08787,33.6077472 C106.380428,36.6509684 110.085219,42.4727829 110.085219,49.0884811 C110.085219,50.4116208 109.026707,51.4701325 107.703568,51.4701325 C106.380428,51.4701325 105.586544,50.5439348 105.586544,49.2207951 C105.586544,41.811213 99.6324159,35.8570846 92.3551478,35.8570846 L17.8623853,35.8570846 C10.5851172,35.8570846 4.63098879,41.811213 4.63098879,49.0884811 C4.63098879,56.4980632 10.5851172,62.4521916 17.8623853,62.4521916 L74.4927625,62.4521916 C75.8159021,62.4521916 76.8744139,63.5107034 76.8744139,64.833843 C76.8744139,66.1569827 75.8159021,67.2154944 74.4927625,67.2154944 L17.8623853,67.2154944 C10.5851172,67.2154944 4.63098879,73.1696228 4.63098879,80.4468909 C4.63098879,87.856473 10.5851172,93.8106014 17.8623853,93.8106014 L68.803262,93.8106014 C70.1264016,93.8106014 71.1849134,94.8691131 71.1849134,96.1922528 C71.1849134,97.5153925 70.1264016,98.5739042 68.803262,98.5739042 L17.8623853,98.5739042 C7.93883792,98.5739042 1.17518409e-15,90.5027523 1.17518409e-15,80.7115189 C2.93796022e-16,73.8311927 3.70479103,67.8770642 9.12966361,64.833843 Z M53.9840979,78.1975535 L68.2740061,78.1975535 C69.5971458,78.1975535 70.6556575,79.2560652 70.6556575,80.5792049 C70.6556575,81.9023445 69.5971458,82.9608563 68.2740061,82.9608563 L53.9840979,82.9608563 C52.6609582,82.9608563 51.6024465,81.9023445 51.6024465,80.5792049 C51.6024465,79.2560652 52.6609582,78.1975535 53.9840979,78.1975535 Z M17.8623853,31.2260958 L92.2228338,31.2260958 L92.6197757,31.2260958 C99.7647299,31.2260958 105.45423,25.4042813 105.45423,18.3916412 L105.45423,17.4654434 C105.45423,10.3204893 99.6324159,4.63098879 92.6197757,4.63098879 L17.4654434,4.63098879 C10.3204893,4.63098879 4.63098879,10.4528033 4.63098879,17.4654434 L4.63098879,18.3916412 C4.63098879,25.5365953 10.4528033,31.2260958 17.4654434,31.2260958 L17.8623853,31.2260958 Z M24.6103976,80.4468909 C24.6103976,78.4621814 26.1981651,76.8744139 28.1828746,76.8744139 C30.1675841,76.8744139 31.7553517,78.4621814 31.7553517,80.4468909 C31.7553517,82.4316004 30.1675841,84.019368 28.1828746,84.019368 C26.1981651,84.019368 24.6103976,82.4316004 24.6103976,80.4468909 Z M87.856473,17.8623853 C87.856473,19.185525 86.7979613,20.2440367 85.4748216,20.2440367 L53.9840979,20.2440367 C52.6609582,20.2440367 51.6024465,19.185525 51.6024465,17.8623853 C51.6024465,16.5392457 52.6609582,15.4807339 53.9840979,15.4807339 L85.6071356,15.4807339 C86.7979613,15.6130479 87.856473,16.6715596 87.856473,17.8623853 Z" id="Combined-Shape"></path>
                    <path d="M28.1828746,14.2899083 C26.1981651,14.2899083 24.6103976,15.8776758 24.6103976,17.8623853 C24.6103976,19.8470948 26.1981651,21.4348624 28.1828746,21.4348624 C30.1675841,21.4348624 31.7553517,19.8470948 31.7553517,17.8623853 C31.7553517,15.8776758 30.1675841,14.2899083 28.1828746,14.2899083 Z" id="Shape"></path>
                </g>
            </g>
        </g>
    </g>
</svg>