<?xml version="1.0" encoding="utf-8"?>
<!-- Generator: Adobe Illustrator 21.1.0, SVG Export Plug-In . SVG Version: 6.00 Build 0)  -->
<svg version="1.1" id="Layer_1" xmlns="http://www.w3.org/2000/svg" xmlns:xlink="http://www.w3.org/1999/xlink" x="0px" y="0px"
	 viewBox="0 0 100 125" style="enable-background:new 0 0 100 125;" xml:space="preserve">
<style type="text/css">
	.st0{opacity:0.7;fill:#00849D;}
</style>
<circle class="st0" cx="50.5" cy="66.5" r="43"/>
<path d="M68,88.8V72.2h-2.8V64H63v-4.1h-3.3v-3.7h-2.5v-1.8c0-0.6-0.4-1-1-1h-0.4v-3.8h-1.1v-3.2h-0.9V32.7H53v-0.9
	c0-0.2,0-0.3-0.1-0.5L52,29.8c-0.2-0.3-0.5-0.5-0.9-0.5H51V14c0-0.6-0.4-1-1-1c-0.6,0-1,0.4-1,1v15.2h-0.1c-0.4,0-0.7,0.2-0.9,0.5
	l-0.9,1.6C47,31.5,47,31.6,47,31.8v0.9h-0.8v13.9h-0.9v3.2h-1.1v3.8h-0.4c-0.6,0-1,0.4-1,1v1.8h-2.5v3.7H37V64h-2.2v8.2H32v16.6
	h-2.2V113h40.4V88.8H68z M66,88.8h-1.4V77h-2v11.8h-1V77h-2v11.8h-1.4V74.2H66C66,74.2,66,88.8,66,88.8z M53.8,51.7v1.8h-2.9V34.7
	h0.9v13.9h0.9v3.2H53.8z M49,32.1l0.5-0.8h1.1l0.5,0.8v0.6h-2V32.1z M46.2,51.7h1.1v-3.2h0.9V34.7h0.7v18.8h-2.7V51.7z M44.8,55.5
	h10.4v0.8H44.8V55.5z M42.3,58.3h15.4v1.7H42.3V58.3z M39,61.9h22V64H39V61.9z M34,74.2h7.8v14.6h-1.4V77h-2v11.8h-1V77h-2v11.8H34
	V74.2z M43,111h-1.6V92h-2v19h-1V92h-2v19h-1V92h-2v19h-1.6V90.8H32h11V111z M53.9,111V69c0-0.6-0.4-1-1-1c-0.6,0-1,0.4-1,1v42h-1
	V69c0-0.6-0.4-1-1-1c-0.6,0-1,0.4-1,1v42h-1V69c0-0.6-0.4-1-1-1c-0.6,0-1,0.4-1,1v42h-1V88.8h-1.2V72.2h-1.3v-2.7h-2v2.7h-3.7V66
	h26.4v6.2h-3.9v-2.7h-2v2.7h-1.1v16.6H55V111H53.9z M68.2,111h-1.6V92h-2v19h-1V92h-2v19h-1V92h-2v19H57V90.8h11h0.2V111z"/>
</svg>
