<?xml version="1.0" encoding="UTF-8"?>
<svg width="130px" height="130px" viewBox="0 0 130 130" version="1.1" xmlns="http://www.w3.org/2000/svg" xmlns:xlink="http://www.w3.org/1999/xlink">
    <!-- Generator: Sketch 42 (36781) - http://www.bohemiancoding.com/sketch -->
    <title>icon-Growth</title>
    <desc>Created with Sketch.</desc>
    <defs>
        <ellipse id="path-1" cx="64.8290532" cy="64.9718485" rx="64.8290532" ry="64.9718485"></ellipse>
        <mask id="mask-2" maskContentUnits="userSpaceOnUse" maskUnits="objectBoundingBox" x="0" y="0" width="129.658106" height="129.943697" fill="white">
            <use xlink:href="#path-1"></use>
        </mask>
    </defs>
    <g id="Mobile---320px" stroke="none" stroke-width="1" fill="none" fill-rule="evenodd">
        <g id="digitalml---Mobile-Homepage" transform="translate(-95.000000, -3590.000000)">
            <g id="Group-14" transform="translate(-878.000000, 3035.000000)">
                <g id="Growth" transform="translate(973.000000, 555.000000)">
                    <g id="icon-Growth">
                        <use id="Oval-4" stroke="#FFFFFF" mask="url(#mask-2)" stroke-width="2.7" xlink:href="#path-1"></use>
                        <path d="M51.9738775,46.7585674 L54.9190567,46.7585674 L54.9190567,46.7585674 L54.9190567,46.7585674 L75.5353111,46.7585674 L75.5942147,46.7585674 L75.7120219,46.7585674 C75.7709254,46.7585674 75.829829,46.7585674 75.8887326,46.6995341 L81.7201874,44.1020676 C81.8968982,44.0430343 81.9558018,43.8659343 81.9558018,43.6888343 C81.9558018,43.5117344 81.8379946,43.3346344 81.7201874,43.2756011 L75.8887326,40.6781346 C75.7709254,40.6191013 75.7120219,40.6191013 75.5942147,40.6781346 L75.5353111,40.6781346 L51.9738775,40.6781346 C50.3245771,40.6781346 48.9108911,42.0359012 48.9108911,43.7478677 C48.9108911,45.4008009 50.2656735,46.7585674 51.9738775,46.7585674 Z M76.0065398,45.7550008 L76.0065398,41.6817012 L80.5421157,43.6888343 L76.0065398,45.7550008 Z M75.122986,45.9321008 L55.3313818,45.9321008 L55.3313818,41.5636346 L75.122986,41.5636346 L75.122986,45.9321008 Z M51.9738775,41.5636346 L54.5067316,41.5636346 L54.5067316,45.9321008 L51.9738775,45.9321008 C50.7958058,45.9321008 49.7944449,44.9285342 49.7944449,43.7478677 C49.7944449,42.5081678 50.7958058,41.5636346 51.9738775,41.5636346 Z" id="Shape" fill="#FFFFFF"></path>
                        <path d="M64.7687607,44.0402538 L67.0660005,44.0402538 C67.3016148,44.0402538 67.4783256,43.8631538 67.4783256,43.6270205 C67.4783256,43.3908872 67.3016148,43.2137872 67.0660005,43.2137872 L64.7687607,43.2137872 C64.5331464,43.2137872 64.3564356,43.3908872 64.3564356,43.6270205 C64.3564356,43.8631538 64.4742428,44.0402538 64.7687607,44.0402538 Z" id="Shape" fill="#FFFFFF"></path>
                        <path d="M70.5608399,44.0402538 L72.1512367,44.0402538 C72.386851,44.0402538 72.5635618,43.8631538 72.5635618,43.6270205 C72.5635618,43.3908872 72.386851,43.2137872 72.1512367,43.2137872 L70.5608399,43.2137872 C70.3252256,43.2137872 70.1485149,43.3908872 70.1485149,43.6270205 C70.1485149,43.8631538 70.3252256,44.0402538 70.5608399,44.0402538 Z" id="Shape" fill="#FFFFFF"></path>
                        <path d="M58.9766815,44.0402538 L61.2739213,44.0402538 C61.5095356,44.0402538 61.6862464,43.8631538 61.6862464,43.6270205 C61.6862464,43.3908872 61.5095356,43.2137872 61.2739213,43.2137872 L58.9766815,43.2137872 C58.7410672,43.2137872 58.5643564,43.3908872 58.5643564,43.6270205 C58.5643564,43.8631538 58.7410672,44.0402538 58.9766815,44.0402538 Z" id="Shape" fill="#FFFFFF"></path>
                        <path d="M96.9469786,72.4633044 C97.1825929,72.4633044 97.3593036,72.2862045 97.3593036,72.0500711 L97.3593036,65.5564051 C97.3593036,65.3202718 97.1825929,65.1431718 96.9469786,65.1431718 C96.7113642,65.1431718 96.5346535,65.3202718 96.5346535,65.5564051 L96.5346535,72.0500711 C96.5346535,72.2862045 96.7113642,72.4633044 96.9469786,72.4633044 Z" id="Shape" fill="#FFFFFF"></path>
                        <path d="M96.9469786,76.4205696 C97.1825929,76.4205696 97.3593036,76.2434696 97.3593036,76.0073363 L97.3593036,73.9411698 C97.3593036,73.7050365 97.1825929,73.5279365 96.9469786,73.5279365 C96.7113642,73.5279365 96.5346535,73.7050365 96.5346535,73.9411698 L96.5346535,76.0073363 C96.5346535,76.2434696 96.7113642,76.4205696 96.9469786,76.4205696 Z" id="Shape" fill="#FFFFFF"></path>
                        <path d="M100.526972,51.2160116 C101.64614,51.2160116 102.588597,50.2714783 102.588597,49.1498451 C102.588597,48.0282119 101.64614,47.0836786 100.526972,47.0836786 C99.4078039,47.0836786 98.4653465,48.0282119 98.4653465,49.1498451 C98.4653465,50.2714783 99.3489003,51.2160116 100.526972,51.2160116 Z M100.526972,47.9101452 C101.174911,47.9101452 101.705044,48.4414452 101.705044,49.0908118 C101.705044,49.7401784 101.174911,50.2714783 100.526972,50.2714783 C99.8790326,50.2714783 99.3489003,49.7401784 99.3489003,49.0908118 C99.2899967,48.5004785 99.8790326,47.9101452 100.526972,47.9101452 Z" id="Shape" fill="#FFFFFF"></path>
                        <path d="M32.9527146,94.1673573 C31.8335465,94.1673573 30.8910891,95.1118905 30.8910891,96.2335237 C30.8910891,97.355157 31.8335465,98.2996902 32.9527146,98.2996902 C34.0718827,98.2996902 35.01434,97.355157 35.01434,96.2335237 C35.01434,95.1118905 34.1307862,94.1673573 32.9527146,94.1673573 Z M32.9527146,97.4141903 C32.3047751,97.4141903 31.7746429,96.8828903 31.7746429,96.2335237 C31.7746429,95.5841571 32.3047751,95.0528572 32.9527146,95.0528572 C33.600654,95.0528572 34.1307862,95.5841571 34.1307862,96.2335237 C34.1896898,96.8828903 33.600654,97.4141903 32.9527146,97.4141903 Z" id="Shape" fill="#FFFFFF"></path>
                        <path d="M41.1881188,30.7273826 C41.1881188,30.9635159 41.3648296,31.1406158 41.6004439,31.1406158 L49.375717,31.1406158 C49.6113313,31.1406158 49.7880421,30.9635159 49.7880421,30.7273826 C49.7880421,30.4912492 49.6113313,30.3141493 49.375717,30.3141493 L41.6593475,30.3141493 C41.4237331,30.3141493 41.1881188,30.4912492 41.1881188,30.7273826 Z" id="Shape" fill="#FFFFFF"></path>
                        <path d="M36.451929,31.1406158 L38.9847832,31.1406158 C39.2203975,31.1406158 39.3971083,30.9635159 39.3971083,30.7273826 C39.3971083,30.4912492 39.2203975,30.3141493 38.9847832,30.3141493 L36.451929,30.3141493 C36.2163147,30.3141493 36.039604,30.4912492 36.039604,30.7273826 C36.039604,30.9044825 36.2163147,31.1406158 36.451929,31.1406158 Z" id="Shape" fill="#FFFFFF"></path>
                        <path d="M36.451929,28.5606882 L41.8710588,28.5606882 C42.1066731,28.5606882 42.2833839,28.3835883 42.2833839,28.147455 C42.2833839,27.9113216 42.1066731,27.7342217 41.8710588,27.7342217 L36.451929,27.7342217 C36.2163147,27.7342217 36.039604,27.9113216 36.039604,28.147455 C36.039604,28.3835883 36.2163147,28.5606882 36.451929,28.5606882 Z" id="Shape" fill="#FFFFFF"></path>
                        <path d="M44.1747013,28.5606882 L45.9418088,28.5606882 C46.1774232,28.5606882 46.3541339,28.3835883 46.3541339,28.147455 C46.3541339,27.9113216 46.1774232,27.7342217 45.9418088,27.7342217 L44.1747013,27.7342217 C43.939087,27.7342217 43.7623762,27.9113216 43.7623762,28.147455 C43.7623762,28.3835883 43.939087,28.5606882 44.1747013,28.5606882 Z" id="Shape" fill="#FFFFFF"></path>
                        <path d="M92.4420281,84.0291316 L100.217301,84.0291316 C100.452915,84.0291316 100.629626,83.8520316 100.629626,83.6158983 C100.629626,83.379765 100.452915,83.202665 100.217301,83.202665 L92.4420281,83.202665 C92.2064137,83.202665 92.029703,83.379765 92.029703,83.6158983 C92.029703,83.8520316 92.2064137,84.0291316 92.4420281,84.0291316 Z" id="Shape" fill="#FFFFFF"></path>
                        <path d="M102.326733,83.6158983 C102.326733,83.8520316 102.503443,84.0291316 102.739058,84.0291316 L105.271912,84.0291316 C105.507526,84.0291316 105.684237,83.8520316 105.684237,83.6158983 C105.684237,83.379765 105.507526,83.202665 105.271912,83.202665 L102.739058,83.202665 C102.503443,83.202665 102.326733,83.379765 102.326733,83.6158983 Z" id="Shape" fill="#FFFFFF"></path>
                        <path d="M104.940366,85.7825926 L99.521236,85.7825926 C99.2856216,85.7825926 99.1089109,85.9596926 99.1089109,86.1958259 C99.1089109,86.4319592 99.2856216,86.6090592 99.521236,86.6090592 L104.940366,86.6090592 C105.17598,86.6090592 105.352691,86.4319592 105.352691,86.1958259 C105.352691,86.0187259 105.17598,85.7825926 104.940366,85.7825926 Z" id="Shape" fill="#FFFFFF"></path>
                        <path d="M95.6598498,85.7825926 C95.4242355,85.7825926 95.2475248,85.9596926 95.2475248,86.1958259 C95.2475248,86.4319592 95.4242355,86.6090592 95.6598498,86.6090592 L97.4269574,86.6090592 C97.6625717,86.6090592 97.8392825,86.4319592 97.8392825,86.1958259 C97.8392825,85.9596926 97.6625717,85.7825926 97.4269574,85.7825926 L95.6598498,85.7825926 Z" id="Shape" fill="#FFFFFF"></path>
                        <path d="M94.3329185,31.2778255 C94.3918221,31.3368589 94.5096293,31.3958922 94.6274364,31.3958922 C94.7452436,31.3958922 94.8630508,31.3368589 94.9219543,31.2778255 C95.0986651,31.1007256 95.0986651,30.8055589 94.9219543,30.6874923 L94.0384006,29.8019923 C93.8616898,29.6248924 93.5671719,29.6248924 93.4493647,29.8019923 C93.272654,29.9790923 93.272654,30.274259 93.4493647,30.3923256 L94.3329185,31.2778255 Z" id="Shape" fill="#FFFFFF"></path>
                        <path d="M97.5507403,34.502735 C97.6096439,34.5617684 97.727451,34.6208017 97.8452582,34.6208017 C97.9630654,34.6208017 98.0808725,34.5617684 98.1397761,34.502735 C98.3164869,34.325635 98.3164869,34.0304684 98.1397761,33.9124018 L97.2562224,33.0269018 C97.0795116,32.8498019 96.7849937,32.8498019 96.6671865,33.0269018 C96.4904758,33.2040018 96.4904758,33.4991685 96.6671865,33.6172351 L97.5507403,34.502735 Z" id="Shape" fill="#FFFFFF"></path>
                        <path d="M93.7438827,34.5997499 C93.8616898,34.5997499 93.979497,34.5407165 94.0384006,34.4816832 L94.9219543,33.5961833 C95.0986651,33.4190833 95.0986651,33.1239167 94.9219543,33.00585 C94.7452436,32.8877834 94.4507257,32.82875 94.3329185,33.00585 L93.4493647,33.8913499 C93.272654,34.0684499 93.272654,34.3636166 93.4493647,34.4816832 C93.5671719,34.5407165 93.6849791,34.5997499 93.7438827,34.5997499 Z" id="Shape" fill="#FFFFFF"></path>
                        <path d="M96.9617045,31.3958922 C97.0795116,31.3958922 97.1973188,31.3368589 97.2562224,31.2778255 L98.1397761,30.3923256 C98.3164869,30.2152256 98.3164869,29.920059 98.1397761,29.8019923 C97.9630654,29.6248924 97.6685475,29.6248924 97.5507403,29.8019923 L96.6671865,30.6284589 C96.4904758,30.8055589 96.4904758,31.1007256 96.6671865,31.2187922 C96.7849937,31.3368589 96.9028009,31.3958922 96.9617045,31.3958922 Z" id="Shape" fill="#FFFFFF"></path>
                        <path d="M36.1176085,79.4655986 C35.9408978,79.2884986 35.6463798,79.2884986 35.5285727,79.4655986 C35.3518619,79.6426986 35.3518619,79.9378652 35.5285727,80.0559318 L36.4121264,80.9414318 C36.47103,81.0004651 36.5888372,81.0594984 36.7066444,81.0594984 C36.8244515,81.0594984 36.9422587,81.0004651 37.0011623,80.9414318 C37.177873,80.7643318 37.177873,80.4691651 37.0011623,80.3510985 L36.1176085,79.4655986 Z" id="Shape" fill="#FFFFFF"></path>
                        <path d="M36.4121264,76.2406891 L35.5285727,77.126189 C35.3518619,77.303289 35.3518619,77.5984556 35.5285727,77.7165223 C35.5874763,77.7755556 35.7052834,77.8345889 35.8230906,77.8345889 C35.9408978,77.8345889 36.0587049,77.7755556 36.1176085,77.7165223 L37.0011623,76.8310224 C37.177873,76.6539224 37.177873,76.3587557 37.0011623,76.2406891 C36.8833551,76.0635891 36.5888372,76.0635891 36.4121264,76.2406891 Z" id="Shape" fill="#FFFFFF"></path>
                        <path d="M99.2781502,92.1547684 L99.2781502,92.0367018 C99.2781502,91.8005685 99.1014395,91.6234685 98.8658252,91.6234685 L89.1467338,91.6234685 L89.1467338,40.5006067 C89.1467338,37.0176404 86.3782653,34.1840407 83.020761,34.1840407 L82.9029539,34.1840407 L82.7851467,34.1840407 L82.0783037,34.1840407 L82.0783037,34.1840407 L41.9060593,34.1840407 L41.9060593,34.1840407 L36.6636404,34.1840407 C33.4828468,34.1840407 30.8910891,36.7815071 30.8910891,39.9693068 C30.8910891,40.55964 31.0088963,41.1499733 31.185607,41.7403066 C31.185607,41.8583732 31.2445106,41.9174066 31.3623178,41.9764399 L31.3623178,42.0945066 C31.3623178,42.3306399 31.5390285,42.5077399 31.7746429,42.5077399 L41.4937342,42.5077399 L41.4937342,93.9257683 L41.4937342,94.0438349 C41.670445,97.3497013 44.3800099,99.9471677 47.7375142,99.9471677 L47.8553213,99.9471677 L48.0909357,99.9471677 L48.0909357,99.9471677 L48.5621643,99.9471677 L88.7933123,99.9471677 L88.7933123,99.9471677 L94.0357313,99.9471677 C97.2165248,99.9471677 99.8082825,97.3497013 99.8082825,94.1619016 C99.8082825,93.5715683 99.6904753,92.981235 99.5137646,92.3909017 C99.3959574,92.2728351 99.3370538,92.2138018 99.2781502,92.1547684 Z M36.6636404,35.0695406 C37.6650013,35.1285739 38.7841694,35.7189072 39.7266267,36.7815071 C40.9046984,38.1392736 41.5526378,39.8512401 41.4937342,41.6222399 L32.0102572,41.6222399 L32.0102572,41.5041733 C31.8335465,40.9728733 31.7746429,40.5006067 31.7746429,39.9693068 C31.7746429,37.2537737 33.9540755,35.0695406 36.6636404,35.0695406 Z M42.3183844,93.5715683 L42.3183844,42.0354732 L42.3183844,42.0354732 L42.3183844,42.0354732 L42.3183844,42.0354732 L42.3183844,42.0354732 C42.4950952,39.9102734 41.7882522,37.7850736 40.3745661,36.1911738 C39.9622411,35.7779405 39.549916,35.3647072 39.1375909,35.0695406 L82.8440503,35.0695406 L82.9618574,35.0695406 L83.0796646,35.0695406 C85.9659402,35.0695406 88.3220836,37.489907 88.3220836,40.5006067 L88.3220836,91.6234685 L53.6278726,91.6234685 C53.568969,91.6234685 53.5100654,91.6234685 53.4511618,91.6825018 L53.3333546,91.6825018 C53.0977403,91.7415351 52.9799331,91.9776684 52.9799331,92.2138018 C53.0388367,92.627035 53.1566439,93.2173683 53.1566439,93.6306016 C53.1566439,96.6413013 50.7415969,99.0616678 47.7375142,99.0616678 C44.792335,99.0026344 42.3183844,96.582268 42.3183844,93.5715683 Z M93.9179241,99.0616678 L50.9183077,99.0616678 C52.8032224,97.9990679 54.0401977,95.9329014 54.0401977,93.6306016 C54.0401977,93.2764017 53.9812941,92.9222017 53.9223905,92.5680017 L98.5713072,92.5680017 L98.5713072,92.6860684 C98.748018,93.158335 98.8069216,93.6896349 98.8069216,94.1619016 C98.8658252,96.8184013 96.627489,99.0616678 93.9179241,99.0616678 Z" id="Shape" fill="#FFFFFF"></path>
                        <path d="M52.0546564,86.867116 L52.0546564,82.9709164 C52.0546564,82.7347831 51.8779456,82.5576831 51.6423313,82.5576831 L46.1053944,82.5576831 C45.8697801,82.5576831 45.6930693,82.7347831 45.6930693,82.9709164 L45.6930693,86.867116 C45.6930693,87.1032493 45.8697801,87.2803493 46.1053944,87.2803493 L51.6423313,87.2803493 C51.8779456,87.3393826 52.0546564,87.1032493 52.0546564,86.867116 Z M51.2300062,86.4538827 L46.5766231,86.4538827 L46.5766231,83.3841497 L51.2300062,83.3841497 L51.2300062,86.4538827 Z" id="Shape" fill="#FFFFFF"></path>
                        <path d="M59.3651036,77.3978279 L53.8281667,77.3978279 C53.5925523,77.3978279 53.4158416,77.5749279 53.4158416,77.8110612 L53.4158416,86.784127 C53.4158416,87.0202603 53.5925523,87.1973603 53.8281667,87.1973603 L59.3651036,87.1973603 C59.6007179,87.1973603 59.7774287,87.0202603 59.7774287,86.784127 L59.7774287,77.8700945 C59.7774287,77.6339612 59.6007179,77.3978279 59.3651036,77.3978279 Z M58.9527785,86.429927 L54.2993953,86.429927 L54.2993953,78.2833278 L58.9527785,78.2833278 L58.9527785,86.429927 Z" id="Shape" fill="#FFFFFF"></path>
                        <path d="M67.7314402,76.1078641 L62.1945033,76.1078641 C61.958889,76.1078641 61.7821782,76.2849641 61.7821782,76.5210974 L61.7821782,86.9699964 C61.7821782,87.2061297 61.958889,87.3832297 62.1945033,87.3832297 L67.7314402,87.3832297 C67.9670545,87.3832297 68.1437653,87.2061297 68.1437653,86.9699964 L68.1437653,76.5210974 C68.2026689,76.2849641 67.9670545,76.1078641 67.7314402,76.1078641 Z M67.3191151,86.5567631 L62.665732,86.5567631 L62.665732,76.993364 L67.3191151,76.993364 L67.3191151,86.5567631 Z" id="Shape" fill="#FFFFFF"></path>
                        <path d="M75.4542125,70.9480089 L69.9172756,70.9480089 C69.6816612,70.9480089 69.5049505,71.1251089 69.5049505,71.3612422 L69.5049505,86.827974 C69.5049505,87.0641074 69.6816612,87.2412073 69.9172756,87.2412073 L75.4542125,87.2412073 C75.6898268,87.2412073 75.8665376,87.0641074 75.8665376,86.827974 L75.8665376,71.3612422 C75.9254412,71.1251089 75.6898268,70.9480089 75.4542125,70.9480089 Z M75.0418874,86.4147407 L70.3885043,86.4147407 L70.3885043,71.8335088 L75.0418874,71.8335088 L75.0418874,86.4147407 Z" id="Shape" fill="#FFFFFF"></path>
                        <path d="M77.8712871,68.1476436 L77.8712871,87.0383084 C77.8712871,87.2744417 78.0479979,87.4515417 78.2836122,87.4515417 L83.8205491,87.4515417 C84.0561635,87.4515417 84.2328742,87.2744417 84.2328742,87.0383084 L84.2328742,68.1476436 C84.2328742,67.9115103 84.0561635,67.7344103 83.8205491,67.7344103 L78.2836122,67.7344103 C78.1069015,67.675377 77.8712871,67.8524769 77.8712871,68.1476436 Z M78.7548409,68.5608769 L83.408224,68.5608769 L83.408224,86.5660418 L78.7548409,86.5660418 L78.7548409,68.5608769 Z" id="Shape" fill="#FFFFFF"></path>
                        <path d="M48.2215484,77.3566538 C49.2818129,77.3566538 50.106463,76.4711539 50.106463,75.4675873 C50.106463,75.1133873 49.9886559,74.7591874 49.8119451,74.4640207 L54.8187498,69.4461879 C55.1132677,69.6232878 55.4666892,69.7413545 55.8201107,69.7413545 C56.1735322,69.7413545 56.5269537,69.6232878 56.8214716,69.4461879 L60.0022652,72.6339876 C60.0611688,72.6930209 60.1789759,72.7520542 60.2967831,72.7520542 C60.4145903,72.7520542 60.5323974,72.6930209 60.591301,72.6339876 L68.7199956,64.4873883 C69.0145135,64.6644883 69.367935,64.782555 69.7213565,64.782555 C70.0747781,64.782555 70.4281996,64.6644883 70.7227175,64.4873883 L73.4322823,67.2029214 C73.4911859,67.2619547 73.6089931,67.3209881 73.7268003,67.3209881 L73.7268003,67.3209881 C73.8446074,67.3209881 73.9624146,67.2619547 74.0213182,67.2029214 L80.3240017,60.8863553 C80.6185196,61.0634553 80.9719411,61.181522 81.3253626,61.181522 C82.3856271,61.181522 83.2102773,60.2960221 83.2102773,59.2924555 C83.2102773,58.2888889 82.3267235,57.403389 81.3253626,57.403389 C80.2650981,57.403389 79.4404479,58.2888889 79.4404479,59.2924555 C79.4404479,59.6466555 79.5582551,60.0008554 79.7349658,60.2960221 L73.903511,66.1993548 L71.4884641,63.7789884 C71.6651748,63.4838218 71.782982,63.1296218 71.782982,62.7754218 C71.782982,61.7128219 70.8994282,60.8863553 69.8980673,60.8863553 C68.8378028,60.8863553 68.0131526,61.7718553 68.0131526,62.7754218 C68.0131526,63.1296218 68.1309598,63.4838218 68.3076705,63.7789884 L60.4145903,71.630421 L57.5283146,68.7377879 C57.7050254,68.4426213 57.8228326,68.0884213 57.8228326,67.7342214 C57.8228326,66.6716215 56.9392788,65.8451549 55.9379179,65.8451549 C54.8776534,65.8451549 54.0530032,66.7306548 54.0530032,67.7342214 C54.0530032,68.0884213 54.1708103,68.4426213 54.3475211,68.7377879 L49.2229093,73.8146541 C48.9283914,73.6375541 48.5749699,73.5194875 48.2215484,73.5194875 C47.1612838,73.5194875 46.3366337,74.4049874 46.3366337,75.408554 C46.3366337,76.4711539 47.1612838,77.3566538 48.2215484,77.3566538 Z M81.5020734,58.1708223 C82.0911092,58.1708223 82.5623379,58.6430889 82.5623379,59.2334222 C82.5623379,59.8237555 82.0911092,60.2960221 81.5020734,60.2960221 C81.2075554,60.2960221 80.9719411,60.1779554 80.7363268,60.0008554 C80.559616,59.8237555 80.4418089,59.5285888 80.4418089,59.2334222 C80.4418089,58.6430889 80.9130375,58.1708223 81.5020734,58.1708223 Z M69.8391637,61.7128219 C70.4281996,61.7128219 70.8994282,62.1850886 70.8994282,62.7754218 C70.8994282,63.0705885 70.7816211,63.3067218 70.6049103,63.5428551 C70.1925852,63.9560884 69.5446458,63.9560884 69.1323207,63.5428551 C68.95561,63.3657551 68.8378028,63.0705885 68.8378028,62.7754218 C68.7788992,62.1850886 69.2501279,61.7128219 69.8391637,61.7128219 Z M55.8790143,66.7306548 C56.4680501,66.7306548 56.9392788,67.2029214 56.9392788,67.7932547 C56.9392788,68.0884213 56.8214716,68.3245546 56.6447609,68.5016546 C56.2324358,68.9148879 55.5255928,68.9148879 55.1721713,68.5016546 C54.9954605,68.3245546 54.8776534,68.029388 54.8776534,67.7932547 C54.8776534,67.2029214 55.348882,66.7306548 55.8790143,66.7306548 Z M48.2215484,74.3459541 C48.5160663,74.3459541 48.7516806,74.4640207 48.9872949,74.6411207 C49.1051021,74.7591874 49.2818129,75.054354 49.2818129,75.408554 C49.2818129,75.9988872 48.8105842,76.4711539 48.2215484,76.4711539 C47.6325125,76.4711539 47.1612838,75.9988872 47.1612838,75.408554 C47.1612838,74.8182207 47.6325125,74.3459541 48.2215484,74.3459541 Z" id="Shape" fill="#FFFFFF"></path>
                        <path d="M31.3034142,57.6287208 C31.5390285,57.6287208 31.7157393,57.4516208 31.7157393,57.2154875 L31.7157393,50.7218214 C31.7157393,50.4856881 31.5390285,50.3085881 31.3034142,50.3085881 C31.0677999,50.3085881 30.8910891,50.4856881 30.8910891,50.7218214 L30.8910891,57.2154875 C30.8910891,57.4516208 31.0677999,57.6287208 31.3034142,57.6287208 Z" id="Shape" fill="#FFFFFF"></path>
                        <path d="M30.8910891,61.1727526 C30.8910891,61.4088859 31.0677999,61.5859859 31.3034142,61.5859859 C31.5390285,61.5859859 31.7157393,61.4088859 31.7157393,61.1727526 L31.7157393,59.1065861 C31.7157393,58.8704528 31.5390285,58.6933528 31.3034142,58.6933528 C31.0677999,58.6933528 30.8910891,58.8704528 30.8910891,59.1065861 L30.8910891,61.1727526 L30.8910891,61.1727526 Z" id="Shape" fill="#FFFFFF"></path>
                        <path d="M33.837869,77.7165223 C33.8967726,77.7755556 34.0145798,77.8345889 34.1323869,77.8345889 C34.2501941,77.8345889 34.3680013,77.7755556 34.4269048,77.7165223 C34.6036156,77.5394223 34.6036156,77.2442556 34.4269048,77.126189 L33.5433511,76.2406891 C33.3666403,76.0635891 33.0721224,76.0635891 32.9543152,76.2406891 C32.7776045,76.4177891 32.7776045,76.7129557 32.9543152,76.8310224 L33.837869,77.7165223 Z" id="Shape" fill="#FFFFFF"></path>
                        <path d="M32.9543152,80.9414318 C33.0132188,81.0004651 33.131026,81.0594984 33.2488332,81.0594984 C33.3666403,81.0594984 33.4844475,81.0004651 33.5433511,80.9414318 L34.4269048,80.0559318 C34.6036156,79.8788319 34.6036156,79.5836652 34.4269048,79.4655986 C34.2501941,79.2884986 33.9556762,79.2884986 33.837869,79.4655986 L32.9543152,80.3510985 C32.7776045,80.5281985 32.7776045,80.7643318 32.9543152,80.9414318 Z" id="Shape" fill="#FFFFFF"></path>
                    </g>
                </g>
            </g>
        </g>
    </g>
</svg>