<?xml version="1.0" encoding="UTF-8"?>
<svg width="128px" height="110px" viewBox="0 0 128 110" version="1.1" xmlns="http://www.w3.org/2000/svg" xmlns:xlink="http://www.w3.org/1999/xlink">
    <!-- Generator: Sketch 42 (36781) - http://www.bohemiancoding.com/sketch -->
    <title>icon-run</title>
    <desc>Created with Sketch.</desc>
    <defs></defs>
    <g id="Desktop---1400px" stroke="none" stroke-width="1" fill="none" fill-rule="evenodd">
        <g id="digitalml---ignite-Platform-Page" transform="translate(-936.000000, -2240.000000)" fill="#FFFFFF">
            <g id="Run-Card" transform="translate(870.000000, 2106.000000)">
                <g id="icon-run" transform="translate(66.000000, 134.000000)">
                    <path d="M86.6381244,17.5704456 C86.6381244,18.8719601 85.5942915,19.9131717 84.2895005,19.9131717 L53.235474,19.9131717 C51.930683,19.9131717 50.8868502,18.8719601 50.8868502,17.5704456 C50.8868502,16.2689311 51.930683,15.2277195 53.235474,15.2277195 L84.4199796,15.2277195 C85.5942915,15.357871 86.6381244,16.3990826 86.6381244,17.5704456 Z M27.7920489,14.0563565 C25.8348624,14.0563565 24.2691131,15.6181739 24.2691131,17.5704456 C24.2691131,19.5227173 25.8348624,21.0845347 27.7920489,21.0845347 C29.7492355,21.0845347 31.3149847,19.5227173 31.3149847,17.5704456 C31.3149847,15.6181739 29.7492355,14.0563565 27.7920489,14.0563565 Z M86.6381244,48.416339 C86.6381244,47.1148245 85.5942915,46.0736129 84.2895005,46.0736129 L53.235474,46.0736129 C51.930683,46.0736129 50.8868502,47.1148245 50.8868502,48.416339 C50.8868502,49.7178535 51.930683,50.7590651 53.235474,50.7590651 L84.4199796,50.7590651 C85.5942915,50.6289136 86.6381244,49.5877021 86.6381244,48.416339 Z M24.2691131,48.416339 C24.2691131,50.3686107 25.8348624,51.9304281 27.7920489,51.9304281 C29.7492355,51.9304281 31.3149847,50.3686107 31.3149847,48.416339 C31.3149847,46.4640673 29.7492355,44.9022499 27.7920489,44.9022499 C25.8348624,44.9022499 24.2691131,46.4640673 24.2691131,48.416339 Z M9.0030581,63.77421 C3.65341488,60.7807267 2.89721809e-16,55.0540629 2.89721809e-16,48.416339 C2.89721809e-16,41.7786151 3.52293578,36.0519514 8.872579,33.058468 C3.65341488,30.0649847 0,24.4684724 0,18.0910514 L0,17.1799913 C2.89721809e-16,7.67893549 7.69826707,0 17.2232416,0 L91.3353721,0 C100.860347,0 108.558614,7.67893549 108.558614,17.1799913 L108.558614,18.0910514 C108.558614,24.4684724 105.035678,30.1951362 99.6860347,33.058468 C104.905199,36.0519514 108.558614,41.7786151 108.558614,48.2861876 C108.558614,49.5877021 107.514781,50.6289136 106.20999,50.6289136 C104.905199,50.6289136 104.122324,49.7178535 104.122324,48.416339 C104.122324,41.1278579 98.2507645,35.2710427 91.0744139,35.2710427 L17.6146789,35.2710427 C10.4383282,35.2710427 4.5667686,41.1278579 4.5667686,48.2861876 C4.5667686,55.5746687 10.4383282,61.4314839 17.6146789,61.4314839 L73.459735,61.4314839 C74.764526,61.4314839 75.8083588,62.4726955 75.8083588,63.77421 C75.8083588,65.0757245 74.764526,66.1169361 73.459735,66.1169361 L17.6146789,66.1169361 C10.4383282,66.1169361 4.5667686,71.9737513 4.5667686,79.132081 C4.5667686,86.4205621 10.4383282,92.2773773 17.6146789,92.2773773 L67.8491335,92.2773773 C69.1539246,92.2773773 70.1977574,93.3185889 70.1977574,94.6201034 C70.1977574,95.9216179 69.1539246,96.9628295 67.8491335,96.9628295 L17.6146789,96.9628295 C7.82874618,96.9628295 1.15888723e-15,89.0235911 1.15888723e-15,79.3923839 C2.89721809e-16,72.6245085 3.65341488,66.7676933 9.0030581,63.77421 Z M17.6146789,30.715742 L90.9439348,30.715742 L91.3353721,30.715742 C98.3812436,30.715742 103.991845,24.9890782 103.991845,18.0910514 L103.991845,17.1799913 C103.991845,10.151813 98.2507645,4.55530071 91.3353721,4.55530071 L17.2232416,4.55530071 C10.17737,4.55530071 4.5667686,10.2819645 4.5667686,17.1799913 L4.5667686,18.0910514 C4.5667686,25.1192296 10.3078491,30.715742 17.2232416,30.715742 L17.6146789,30.715742 Z M53.235474,76.9195063 C51.930683,76.9195063 50.8868502,77.9607179 50.8868502,79.2622324 C50.8868502,80.5637469 51.930683,81.6049585 53.235474,81.6049585 L67.3272171,81.6049585 C68.6320082,81.6049585 69.675841,80.5637469 69.675841,79.2622324 C69.675841,77.9607179 68.6320082,76.9195063 67.3272171,76.9195063 L53.235474,76.9195063 Z M24.2691131,79.132081 C24.2691131,81.0843527 25.8348624,82.6461701 27.7920489,82.6461701 C29.7492355,82.6461701 31.3149847,81.0843527 31.3149847,79.132081 C31.3149847,77.1798092 29.7492355,75.6179918 27.7920489,75.6179918 C25.8348624,75.6179918 24.2691131,77.1798092 24.2691131,79.132081 Z M104.644241,108.416157 C110.385321,108.416157 115.734964,106.333734 120.040775,102.689493 L119.127421,107.114642 C118.866463,108.286006 119.649337,109.58752 120.954128,109.847823 L121.345566,109.847823 C122.389399,109.847823 123.302752,109.066914 123.56371,108.025703 L125.781855,97.0929809 C125.912334,96.4422237 125.781855,95.7914664 125.390418,95.2708606 C124.998981,94.7502548 124.346585,94.4899519 123.69419,94.3598005 L112.603466,93.8391947 C111.298675,93.7090433 110.254842,94.7502548 110.254842,96.0517693 C110.254842,97.3532838 111.168196,98.3944954 112.472987,98.3944954 L117.953109,98.6547983 C114.430173,102.038736 109.732926,103.860856 104.77472,103.860856 C99.6860347,103.860856 94.8583078,101.908585 91.204893,98.264344 C87.5514781,94.6201034 85.5942915,89.8044998 85.5942915,84.7285933 C85.5942915,83.4270788 84.5504587,82.5160186 83.2456677,82.5160186 L83.2456677,82.5160186 C81.9408767,82.5160186 80.8970438,83.5572302 81.0275229,84.8587447 C81.0275229,91.2361657 83.5066259,97.0929809 87.9429154,101.648282 C92.2487258,105.943279 98.2507645,108.416157 104.644241,108.416157 Z M104.644241,61.0410296 C99.2945973,61.0410296 94.3363914,62.7329984 90.1610601,65.9867846 L91.0744139,61.5616354 C91.3353721,60.3902723 90.5524975,59.0887578 89.2477064,58.8284549 C88.0733945,58.568152 86.7686035,59.3490607 86.5076453,60.6505752 L84.2895005,71.5832969 C84.1590214,72.2340542 84.2895005,72.8848114 84.6809378,73.4054172 C85.0723751,73.926023 85.7247706,74.1863259 86.3771662,74.3164774 L97.4678899,74.8370832 L97.598369,74.8370832 C98.7726809,74.8370832 99.8165138,73.926023 99.8165138,72.6245085 C99.8165138,71.322994 98.90316,70.2817824 97.598369,70.2817824 L91.9877676,70.0214795 C95.3802243,67.1581477 99.8165138,65.5963303 104.252803,65.5963303 C109.341488,65.5963303 114.169215,67.548602 117.82263,71.1928426 C121.476045,74.8370832 123.433231,79.6526868 123.433231,84.7285933 C123.433231,86.0301078 124.477064,86.9411679 125.781855,86.9411679 L125.781855,86.9411679 C127.086646,86.9411679 128,85.8999563 128,84.5984418 C128,78.2210208 125.520897,72.3642056 121.084608,67.8089049 C116.909276,63.5139071 110.907238,61.0410296 104.644241,61.0410296 L104.644241,61.0410296 Z" id="Shape"></path>
                </g>
            </g>
        </g>
    </g>
</svg>