<?xml version="1.0" encoding="utf-8"?>
<!-- Generator: Adobe Illustrator 24.2.1, SVG Export Plug-In . SVG Version: 6.00 Build 0)  -->
<svg version="1.1" id="Layer_1" xmlns="http://www.w3.org/2000/svg" xmlns:xlink="http://www.w3.org/1999/xlink" x="0px" y="0px"
	 viewBox="0 0 144 144" style="enable-background:new 0 0 144 144;" xml:space="preserve">
<style type="text/css">
	.st0{fill:none;stroke:#FFFFFF;stroke-width:3;stroke-linecap:round;stroke-linejoin:round;stroke-miterlimit:10;}
	.st1{fill:none;stroke:#FFFFFF;stroke-width:3;stroke-linecap:round;stroke-miterlimit:10;}
</style>
<g>
	<polyline class="st0" points="50.83,77 40.78,91.36 35.82,86.57 	"/>
</g>
<g>
	<polyline class="st0" points="50.83,110.95 40.78,125.31 35.82,120.52 	"/>
</g>
<polygon class="st0" points="122.89,30.01 96.9,30.01 96.9,4.02 "/>
<line class="st1" x1="64.4" y1="79.5" x2="105.89" y2="79.5"/>
<line class="st1" x1="64.4" y1="87.5" x2="105.89" y2="87.5"/>
<line class="st1" x1="64.4" y1="112.17" x2="105.89" y2="112.17"/>
<line class="st1" x1="64.4" y1="120.17" x2="105.89" y2="120.17"/>
<line class="st1" x1="64.4" y1="95.5" x2="88.82" y2="95.5"/>
<polyline class="st0" points="122.89,33.9 122.89,139.98 17.83,139.98 17.83,4.02 92.23,4.02 "/>
<path class="st0" d="M50.83,17.01c-11.69,0-21.17,9.48-21.17,21.17s9.48,21.17,21.17,21.17S72,49.88,72,38.18H50.83V17.01z"/>
<path class="st0" d="M56.21,13.48c0.91,0.19,1.8,0.44,2.68,0.73c8.41,2.79,14.88,9.84,16.83,18.6h-0.51h-19V13.76V13.48z"/>
</svg>
