<?xml version="1.0" encoding="utf-8"?>
<!-- Generator: Adobe Illustrator 24.2.1, SVG Export Plug-In . SVG Version: 6.00 Build 0)  -->
<svg version="1.1" id="Layer_1" xmlns="http://www.w3.org/2000/svg" xmlns:xlink="http://www.w3.org/1999/xlink" x="0px" y="0px"
	 viewBox="0 0 144 144" style="enable-background:new 0 0 144 144;" xml:space="preserve">
<style type="text/css">
	.st0{fill:none;stroke:#FFFFFF;stroke-width:3;stroke-linecap:round;stroke-linejoin:round;stroke-miterlimit:10;}
</style>
<polygon class="st0" points="40.98,55.5 72.1,73.92 72.1,106.12 40.98,87.7 "/>
<path class="st0" d="M17.93,37.62c11.26-17.33,30.8-28.79,53-28.79c4.73,0,9.34,0.52,13.77,1.51c2.4,0.53,4.75,1.2,7.04,2"/>
<path class="st0" d="M38.08,125.96C19.9,114.87,7.77,94.85,7.77,72c0-8.33,1.61-16.27,4.54-23.55"/>
<path class="st0" d="M124.53,105.46c-11.16,17.85-30.99,29.71-53.59,29.71c-7.19,0-14.1-1.2-20.53-3.41"/>
<path class="st0" d="M104,18.17c18.06,11.12,30.1,31.07,30.1,53.83c0,7.95-1.47,15.56-4.15,22.57"/>
<polygon class="st0" points="103.02,56.3 71.9,37.88 40.98,55.5 72.1,73.92 "/>
<polygon class="st0" points="72.1,106.12 72.1,73.92 103.02,56.3 103.02,88.1 "/>
<polyline class="st0" points="90.19,7.38 92.66,13.01 87.04,15.48 "/>
<polyline class="st0" points="134.77,93.59 129.38,96.54 126.43,91.14 "/>
<polyline class="st0" points="51.07,136.52 48.62,130.88 54.26,128.43 "/>
<polyline class="st0" points="7.25,49.44 12.86,46.93 15.37,52.54 "/>
</svg>
